<?xml version="1.0" encoding="utf-8"?>
<!-- Generator: Adobe Illustrator 22.1.0, SVG Export Plug-In . SVG Version: 6.00 Build 0)  -->
<svg version="1.1" id="Layer_1" xmlns="http://www.w3.org/2000/svg" xmlns:xlink="http://www.w3.org/1999/xlink" x="0px" y="0px"
	 viewBox="0 0 188.2 75.3" enable-background="new 0 0 188.2 75.3" xml:space="preserve">
<g>
	<path d="M73.2,51.2V29.9H44.7v21.4h-1.3V8.8h1.3v19.9h28.6V8.8h1.3v42.5H73.2z"/>
</g>
<g>
	<path d="M42,62.6h1.1v3.5c0.4-0.5,1-0.8,1.7-0.8c0.4,0,0.7,0.1,1,0.3s0.5,0.4,0.6,0.7s0.2,0.8,0.2,1.4v3.1h-1.1v-3.3
		c0-0.4-0.1-0.7-0.3-1s-0.4-0.4-0.8-0.4c-0.2,0-0.5,0.1-0.7,0.2s-0.4,0.3-0.7,0.6v3.9H42V62.6z"/>
	<path d="M51.6,70.8v-0.7c-0.2,0.2-0.5,0.4-0.8,0.6s-0.6,0.2-0.9,0.2c-0.3,0-0.7-0.1-0.9-0.3s-0.5-0.4-0.7-0.7s-0.2-0.8-0.2-1.5
		v-3.1h1.1v3.1c0,0.6,0.1,1,0.2,1.2c0.2,0.2,0.4,0.3,0.9,0.3c0.5,0,0.9-0.2,1.3-0.7v-3.8h1.1v5.4H51.6z"/>
	<path d="M57.9,62.6H59v8.2h-2.3c-0.8,0-1.4-0.3-1.9-0.8s-0.7-1.2-0.7-2c0-0.8,0.2-1.4,0.7-2s1.1-0.8,1.9-0.8c0.4,0,0.8,0.1,1.2,0.2
		V62.6z M57.9,69.9v-3.4c-0.3-0.2-0.7-0.3-1-0.3c-0.5,0-1,0.2-1.3,0.5s-0.5,0.8-0.5,1.4c0,0.6,0.1,1,0.4,1.3
		c0.2,0.2,0.3,0.3,0.5,0.4s0.5,0.1,1,0.1H57.9z"/>
	<path d="M64.1,62.6h1.1v8.2h-2.3c-0.8,0-1.4-0.3-1.9-0.8s-0.7-1.2-0.7-2c0-0.8,0.2-1.4,0.7-2s1.1-0.8,1.9-0.8
		c0.4,0,0.8,0.1,1.2,0.2V62.6z M64.1,69.9v-3.4c-0.3-0.2-0.7-0.3-1-0.3c-0.5,0-1,0.2-1.3,0.5s-0.5,0.8-0.5,1.4c0,0.6,0.1,1,0.4,1.3
		c0.2,0.2,0.3,0.3,0.5,0.4s0.5,0.1,1,0.1H64.1z"/>
	<path d="M71.4,68.2h-3.8c0,0.5,0.2,0.9,0.5,1.2s0.7,0.5,1.2,0.5c0.7,0,1.4-0.2,1.9-0.7v1c-0.3,0.2-0.7,0.4-1,0.5s-0.7,0.1-1.1,0.1
		c-0.6,0-1.1-0.1-1.4-0.4s-0.7-0.6-0.9-1s-0.3-0.9-0.3-1.4c0-0.8,0.2-1.5,0.7-2s1.1-0.8,1.8-0.8c0.7,0,1.3,0.2,1.7,0.8
		s0.6,1.2,0.6,2V68.2z M67.6,67.6h2.7c0-0.4-0.2-0.8-0.4-1s-0.5-0.3-0.9-0.3s-0.7,0.1-0.9,0.3S67.7,67.2,67.6,67.6z"/>
	<path d="M73.8,65.4v1.2l0.1-0.1c0.5-0.8,1-1.2,1.5-1.2c0.4,0,0.8,0.2,1.3,0.6l-0.6,0.9c-0.4-0.4-0.7-0.5-1-0.5
		c-0.3,0-0.6,0.2-0.9,0.5s-0.4,0.7-0.4,1.2v2.8h-1.1v-5.4H73.8z"/>
	<path d="M77.3,70.4v-1.1c0.3,0.2,0.6,0.4,0.9,0.5S78.8,70,79,70c0.2,0,0.4-0.1,0.6-0.2s0.2-0.2,0.2-0.4c0-0.2-0.1-0.3-0.2-0.4
		s-0.3-0.3-0.7-0.4c-0.7-0.4-1.1-0.7-1.4-1s-0.3-0.6-0.3-0.9c0-0.4,0.2-0.8,0.5-1s0.7-0.4,1.2-0.4c0.5,0,1.1,0.1,1.6,0.4v1.1
		c-0.6-0.4-1.2-0.6-1.6-0.6c-0.2,0-0.4,0-0.5,0.1c-0.1,0.1-0.2,0.2-0.2,0.3c0,0.1,0.1,0.2,0.2,0.4s0.3,0.2,0.6,0.4l0.4,0.2
		c0.9,0.5,1.3,1.1,1.3,1.7c0,0.4-0.2,0.8-0.5,1.1c-0.3,0.3-0.8,0.4-1.3,0.4c-0.3,0-0.6,0-0.9-0.1S77.7,70.6,77.3,70.4z"/>
	<path d="M82.5,65.4v-0.3c0-0.9,0.2-1.5,0.6-1.9s0.8-0.6,1.3-0.6c0.2,0,0.5,0,0.8,0.1v1c-0.2-0.1-0.3-0.1-0.5-0.1
		c-0.4,0-0.7,0.1-0.9,0.3s-0.2,0.6-0.2,1.2v0.3h1v1h-1v4.4h-1.1v-4.4h-0.8v-1H82.5z"/>
	<path d="M86.1,63.2c0.2,0,0.3,0.1,0.5,0.2s0.2,0.3,0.2,0.4c0,0.2-0.1,0.3-0.2,0.4s-0.3,0.2-0.5,0.2c-0.2,0-0.3-0.1-0.4-0.2
		s-0.2-0.3-0.2-0.4c0-0.2,0.1-0.3,0.2-0.4S85.9,63.2,86.1,63.2z M85.5,65.4h1.1v5.4h-1.1V65.4z"/>
	<path d="M92.9,68.2h-3.8c0,0.5,0.2,0.9,0.5,1.2s0.7,0.5,1.2,0.5c0.7,0,1.4-0.2,1.9-0.7v1c-0.3,0.2-0.7,0.4-1,0.5s-0.7,0.1-1.1,0.1
		c-0.6,0-1.1-0.1-1.4-0.4s-0.7-0.6-0.9-1S88,68.6,88,68.1c0-0.8,0.2-1.5,0.7-2s1.1-0.8,1.8-0.8c0.7,0,1.3,0.2,1.7,0.8s0.6,1.2,0.6,2
		V68.2z M89.1,67.6h2.7c0-0.4-0.2-0.8-0.4-1s-0.5-0.3-0.9-0.3s-0.7,0.1-0.9,0.3S89.2,67.2,89.1,67.6z"/>
	<path d="M94.2,62.6h1.1v8.2h-1.1V62.6z"/>
	<path d="M100.6,62.6h1.1v8.2h-2.3c-0.8,0-1.4-0.3-1.9-0.8s-0.7-1.2-0.7-2c0-0.8,0.2-1.4,0.7-2s1.1-0.8,1.9-0.8
		c0.4,0,0.8,0.1,1.2,0.2V62.6z M100.6,69.9v-3.4c-0.3-0.2-0.7-0.3-1-0.3c-0.5,0-1,0.2-1.3,0.5s-0.5,0.8-0.5,1.4c0,0.6,0.1,1,0.4,1.3
		c0.2,0.2,0.3,0.3,0.5,0.4s0.5,0.1,1,0.1H100.6z"/>
	<path d="M113.5,65.4h1.1l-2.4,5.5h-0.3l-1.6-3.8l-1.6,3.8h-0.3l-2.4-5.5h1.1l1.4,3.3l1.4-3.3h0.8l1.4,3.3L113.5,65.4z"/>
	<path d="M119.9,68.2h-3.8c0,0.5,0.2,0.9,0.5,1.2s0.7,0.5,1.2,0.5c0.7,0,1.4-0.2,1.9-0.7v1c-0.3,0.2-0.7,0.4-1,0.5s-0.7,0.1-1.1,0.1
		c-0.6,0-1.1-0.1-1.4-0.4s-0.7-0.6-0.9-1s-0.3-0.9-0.3-1.4c0-0.8,0.2-1.5,0.7-2s1.1-0.8,1.8-0.8c0.7,0,1.3,0.2,1.7,0.8
		s0.6,1.2,0.6,2V68.2z M116.1,67.6h2.7c0-0.4-0.2-0.8-0.4-1s-0.5-0.3-0.9-0.3s-0.7,0.1-0.9,0.3S116.2,67.2,116.1,67.6z"/>
	<path d="M121.2,62.6h1.1v3.2c0.5-0.3,1-0.5,1.5-0.5c0.7,0,1.2,0.3,1.7,0.8s0.7,1.2,0.7,2c0,0.9-0.3,1.6-0.8,2.1s-1.2,0.8-2.1,0.8
		c-0.3,0-0.7,0-1.1-0.1s-0.7-0.2-0.9-0.3V62.6z M122.2,66.8v2.9c0.4,0.1,0.7,0.2,1.1,0.2c0.5,0,0.9-0.2,1.2-0.5s0.4-0.8,0.4-1.3
		c0-0.5-0.1-1-0.4-1.3s-0.6-0.5-1.1-0.5C123,66.3,122.6,66.5,122.2,66.8z"/>
	<path d="M127.1,70.4v-1.1c0.3,0.2,0.6,0.4,0.9,0.5s0.6,0.2,0.8,0.2c0.2,0,0.4-0.1,0.6-0.2s0.2-0.2,0.2-0.4c0-0.2-0.1-0.3-0.2-0.4
		s-0.3-0.3-0.7-0.4c-0.7-0.4-1.1-0.7-1.4-1s-0.3-0.6-0.3-0.9c0-0.4,0.2-0.8,0.5-1s0.7-0.4,1.2-0.4c0.5,0,1.1,0.1,1.6,0.4v1.1
		c-0.6-0.4-1.2-0.6-1.6-0.6c-0.2,0-0.4,0-0.5,0.1c-0.1,0.1-0.2,0.2-0.2,0.3c0,0.1,0.1,0.2,0.2,0.4c0.1,0.1,0.3,0.2,0.6,0.4l0.4,0.2
		c0.9,0.5,1.3,1.1,1.3,1.7c0,0.4-0.2,0.8-0.5,1.1c-0.3,0.3-0.8,0.4-1.3,0.4c-0.3,0-0.6,0-0.9-0.1S127.5,70.6,127.1,70.4z"/>
	<path d="M132.7,63.2c0.2,0,0.3,0.1,0.5,0.2s0.2,0.3,0.2,0.4c0,0.2-0.1,0.3-0.2,0.4s-0.3,0.2-0.5,0.2c-0.2,0-0.3-0.1-0.4-0.2
		s-0.2-0.3-0.2-0.4c0-0.2,0.1-0.3,0.2-0.4S132.5,63.2,132.7,63.2z M132.2,65.4h1.1v5.4h-1.1V65.4z"/>
	<path d="M134.2,66.3l2-2v1.1h1.7v1h-1.7V69c0,0.6,0.3,0.9,0.8,0.9c0.4,0,0.8-0.1,1.2-0.4v1c-0.4,0.2-0.9,0.3-1.3,0.3
		c-0.5,0-0.9-0.1-1.2-0.4c-0.1-0.1-0.2-0.2-0.3-0.3s-0.1-0.2-0.2-0.4s-0.1-0.5-0.1-1v-2.4h-0.9V66.3z"/>
	<path d="M143.7,68.2h-3.8c0,0.5,0.2,0.9,0.5,1.2s0.7,0.5,1.2,0.5c0.7,0,1.4-0.2,1.9-0.7v1c-0.3,0.2-0.7,0.4-1,0.5s-0.7,0.1-1.1,0.1
		c-0.6,0-1.1-0.1-1.4-0.4s-0.7-0.6-0.9-1s-0.3-0.9-0.3-1.4c0-0.8,0.2-1.5,0.7-2s1.1-0.8,1.8-0.8c0.7,0,1.3,0.2,1.7,0.8
		s0.6,1.2,0.6,2V68.2z M139.9,67.6h2.7c0-0.4-0.2-0.8-0.4-1s-0.5-0.3-0.9-0.3s-0.7,0.1-0.9,0.3S140,67.2,139.9,67.6z"/>
	<path d="M152.1,62.6h1.1v8.2h-2.3c-0.8,0-1.4-0.3-1.9-0.8s-0.7-1.2-0.7-2c0-0.8,0.2-1.4,0.7-2s1.1-0.8,1.9-0.8
		c0.4,0,0.8,0.1,1.2,0.2V62.6z M152.1,69.9v-3.4c-0.3-0.2-0.7-0.3-1-0.3c-0.5,0-1,0.2-1.3,0.5s-0.5,0.8-0.5,1.4c0,0.6,0.1,1,0.4,1.3
		c0.2,0.2,0.3,0.3,0.5,0.4s0.5,0.1,1,0.1H152.1z"/>
	<path d="M159.3,68.2h-3.8c0,0.5,0.2,0.9,0.5,1.2s0.7,0.5,1.2,0.5c0.7,0,1.4-0.2,1.9-0.7v1c-0.3,0.2-0.7,0.4-1,0.5s-0.7,0.1-1.1,0.1
		c-0.6,0-1.1-0.1-1.4-0.4s-0.7-0.6-0.9-1s-0.3-0.9-0.3-1.4c0-0.8,0.2-1.5,0.7-2s1.1-0.8,1.8-0.8c0.7,0,1.3,0.2,1.7,0.8
		s0.6,1.2,0.6,2V68.2z M155.6,67.6h2.7c0-0.4-0.2-0.8-0.4-1s-0.5-0.3-0.9-0.3s-0.7,0.1-0.9,0.3S155.6,67.2,155.6,67.6z"/>
	<path d="M160.4,70.4v-1.1c0.3,0.2,0.6,0.4,0.9,0.5s0.6,0.2,0.8,0.2c0.2,0,0.4-0.1,0.6-0.2s0.2-0.2,0.2-0.4c0-0.2-0.1-0.3-0.2-0.4
		s-0.3-0.3-0.7-0.4c-0.7-0.4-1.1-0.7-1.4-1s-0.3-0.6-0.3-0.9c0-0.4,0.2-0.8,0.5-1s0.7-0.4,1.2-0.4c0.5,0,1.1,0.1,1.6,0.4v1.1
		c-0.6-0.4-1.2-0.6-1.6-0.6c-0.2,0-0.4,0-0.5,0.1c-0.1,0.1-0.2,0.2-0.2,0.3c0,0.1,0.1,0.2,0.2,0.4c0.1,0.1,0.3,0.2,0.6,0.4l0.4,0.2
		c0.9,0.5,1.3,1.1,1.3,1.7c0,0.4-0.2,0.8-0.5,1.1c-0.3,0.3-0.8,0.4-1.3,0.4c-0.3,0-0.6,0-0.9-0.1S160.8,70.6,160.4,70.4z"/>
	<path d="M166,63.2c0.2,0,0.3,0.1,0.5,0.2s0.2,0.3,0.2,0.4c0,0.2-0.1,0.3-0.2,0.4s-0.3,0.2-0.5,0.2c-0.2,0-0.3-0.1-0.4-0.2
		s-0.2-0.3-0.2-0.4c0-0.2,0.1-0.3,0.2-0.4S165.8,63.2,166,63.2z M165.4,65.4h1.1v5.4h-1.1V65.4z"/>
	<path d="M167.9,67.3c0-0.6,0.2-1,0.6-1.4s1-0.5,1.7-0.5h2.2v0.8h-1.1c0.2,0.2,0.4,0.4,0.4,0.6s0.1,0.4,0.1,0.6
		c0,0.3-0.1,0.6-0.2,0.8s-0.4,0.5-0.6,0.6s-0.7,0.3-1.2,0.3c-0.4,0.1-0.6,0.2-0.6,0.4c0,0.1,0.1,0.2,0.2,0.3s0.4,0.2,0.8,0.2
		c0.7,0.1,1.1,0.3,1.3,0.3s0.4,0.2,0.5,0.4c0.3,0.3,0.4,0.6,0.4,1c0,0.5-0.2,0.9-0.7,1.2s-1.1,0.5-1.8,0.5c-0.8,0-1.4-0.2-1.8-0.5
		s-0.7-0.7-0.7-1.2c0-0.7,0.5-1.2,1.4-1.4c-0.4-0.2-0.5-0.5-0.5-0.7c0-0.2,0.1-0.3,0.2-0.5s0.4-0.2,0.6-0.3
		C168.3,68.6,167.9,68.1,167.9,67.3z M169.7,71.1c-0.4,0-0.7,0.1-0.9,0.2s-0.3,0.3-0.3,0.6c0,0.6,0.5,0.8,1.5,0.8
		c0.5,0,0.8-0.1,1.1-0.2s0.4-0.3,0.4-0.6c0-0.2-0.2-0.5-0.5-0.6S170.2,71.1,169.7,71.1z M169.9,66.4c-0.3,0-0.5,0.1-0.7,0.3
		s-0.3,0.4-0.3,0.7c0,0.3,0.1,0.5,0.3,0.7s0.5,0.3,0.8,0.3c0.3,0,0.6-0.1,0.8-0.3s0.3-0.4,0.3-0.7c0-0.3-0.1-0.5-0.3-0.7
		S170.2,66.4,169.9,66.4z"/>
	<path d="M174.6,65.4v0.7c0.5-0.5,1-0.8,1.6-0.8c0.3,0,0.6,0.1,0.9,0.3s0.5,0.4,0.7,0.7s0.2,0.8,0.2,1.4v3.1h-1.1v-3.1
		c0-0.6-0.1-0.9-0.3-1.2s-0.4-0.4-0.8-0.4c-0.5,0-0.9,0.3-1.3,0.8v3.8h-1.1v-5.4H174.6z"/>
</g>
<g>
	<path d="M123.9,51.2h-2L109.6,10h-0.1L97.4,51.2h-2L82.6,8.8H84L96.2,50h0.2l12.1-41.3h2L122.8,50h0.2l12.2-41.3h1.4L123.9,51.2z"
		/>
</g>
<g>
	<path d="M183.4,30c0,3.7-0.6,6.9-1.8,9.5c-1.2,2.7-2.9,4.9-5,6.6c-2.1,1.7-4.6,3-7.5,3.9c-2.9,0.8-5.9,1.3-9.2,1.3h-12V8.8h12
		c3.3,0,6.3,0.4,9.2,1.2c2.9,0.8,5.3,2.1,7.5,3.8c2.1,1.7,3.8,4,5,6.6C182.8,23.1,183.4,26.3,183.4,30z M149.2,10V50h10.4
		c3.1,0,6.1-0.4,8.8-1.2c2.7-0.8,5.1-2,7.1-3.6c2-1.6,3.6-3.7,4.7-6.2c1.2-2.5,1.7-5.5,1.7-9.1c0-3.5-0.6-6.5-1.7-9.1
		c-1.2-2.5-2.7-4.6-4.7-6.2c-2-1.6-4.4-2.8-7.1-3.6s-5.7-1.1-8.8-1.1H149.2z"/>
</g>
<polygon points="7.1,71.9 7.1,64.9 8.7,62.1 9.5,11.9 12.1,11.9 12.1,13.2 18.1,13.3 18.1,2.9 27,2.9 29.7,71 "/>
<g id="JZVuz0.tif" display="none">
	<g display="inline">
		<g>
			<path d="M442.2-196.6c0-92.2,0-184.5,0-276.5c-0.2,0-0.4,0-0.6,0c0,0-0.1,1.5-0.1,2.4c0,131,0,261.9,0,393c0,19.2,0,38.3,0,57.7
				c-1.2,0.1-2.7,0.6-3.4,0.1c-3.3-2.4-7.8,0.7-10.8-2.6c-3.2,0.8-5.9-0.9-8.7-2c-2-0.8-4.2-1.4-6.2-2.4c-3-1.5-5.9-3.5-8.9-5
				c-3.2-1.5-6.5-3.3-9.9-3.6c-4.2-0.4-7.3-2.9-9.8-5c-4-3.5-8.5-5.6-13.2-7.6c-2.2-0.9-4.4-1.8-6.6-2.8c-2.1-1-3.9-2.9-6.5-1.3
				c-0.2,0.1-1-0.2-1.2-0.5c-1.8-2.1-4.1-3.2-6.6-4.3c-2.7-1.2-4.9-3.3-7.5-4.7c-1.7-0.9-3.7-1.3-5.6-2c-0.1,0.3-0.2,0.6-0.4,0.9
				c1.5,1.4,2.8,3,4.5,4.1c3.8,2.5,7.8,4.8,11.7,7.2c2.2,1.4,4.2,3,6.4,4.6c-0.2,0.3-0.4,0.5-0.6,0.8c-0.6-0.3-1.2-0.7-1.8-0.8
				c-1.3-0.2-3.4-0.9-3.7-0.4c-1.6,2.6-3.8,0.6-5.6,0.9c-0.9,0.2-1.9-0.6-2.8-0.9c-0.9-0.3-2.1-0.3-2.7-0.9c-1.2-1.2-2.2-2.8-3-4
				c-0.7,0.4-1.5,1.2-2.2,1.1c-2.2-0.4-4.4-1.1-6.7-1.7c0.3-0.4,0.8-1.2,1.7-2.5c-1.7-0.8-3.2-1.4-4.7-2.1c-2.2-2.3-5.4-2.5-8.4-3.3
				c-2-0.6-4-1.1-6-1.6c0.6,0.9,1.2,1.9,2.3,3.6c-1.5-0.6-2.2-0.9-2.9-1.1c-0.5-0.1-1.1,0.1-1.7,0.1c-0.6,0-1.3-0.1-1.7-0.4
				c-1.9-1.3-3.8-2.8-5.7-4.2c0.2,0.7,0.4,1.4,0.9,2.9c-2.8-1.6-4.8-2.8-6.4-3.7c0.5-0.8,1.2-1.7,1.8-2.5c-0.9-0.2-1.8-0.4-2.7-0.6
				c-1,2-2.6,2.4-4.5,1.2c-0.6-0.4-1.6-0.8-1.9-0.6c-4.2,3.2-8.1-1-12.1-0.5c-0.2,0-0.5-0.1-0.5-0.2c0-3.5-3.9-2.6-5.6-4.3
				c0.6,0.8,1.2,1.7,1.8,2.5c-4.3,0.6-5.2-3.4-7.8-5.7c-0.1,1.1-0.1,1.7-0.2,3.2c-1.9-2.5-3.3-4.4-5-6.7c-0.6,1.7-1,3.1-1.6,4.7
				c-1.3-0.7-2.6-1.6-4.5-2.7c2.2-1.5,4.1-2.8,5.4-3.6c-2.1-2.6-4-5.1-5.9-7.5c-0.6,0.6-1.1,1.2-1.7,1.8c-0.4-0.8-1-1.5-1.3-2.3
				c-0.2-0.4,0-1.1-0.2-1.5c-1-1.3-2.1-2.5-3.2-3.8c-1.1,1.3-4.2,1.5-3.3,4.6c-1.6-0.7-4.4,0.4-4.2-2.9l0.1,0.1
				c-1.7-1.6-3.2-3.6-5.1-4.8c-3.3-2.1-7.4-3.1-10.3-5.6c-2.9-2.5-5.5-0.8-8.3-0.9c-0.7,0-1.6,0.1-2-0.2c-2.2-2-4-4.3-6.3-6.2
				c-1.5-1.2-3.3-2.2-5.1-2.9c-1.1-0.4-2.5-0.1-3.7-0.1c-1-2.7-2.5-3.1-5.1-1.5c-0.5-0.9-0.9-1.9-1.3-2.7c-2.7,0.9-5.3,1.7-8.1,2.6
				c1.1,0.5,2.4,1.2,3.6,1.8c-1.9,1-3.7,2-5.5,2.8c-1.9,0.8-3.9,1.5-5.8,2.2c0-0.1,0.2-0.6,0-0.9c-1.1-2.2-2.3-4.4-3.6-6.6
				c-0.2-0.4-1-0.9-1.4-0.8c-1.7,0.3-3.3,0.8-4.9,1.3c-0.9-2.6-2.4-4-3.3-3c-1.4,1.4-2.3,0.4-3.5-0.1c-0.7-0.3-1.7-0.7-2.2-0.5
				c-2.8,1.4-4.6-0.6-7.2-1.3c1.2-1,2-1.6,2.9-2.4c-1.4-1-4.7-0.1-1.8-3.4c-0.3-0.1-0.5-0.2-0.8-0.3c-1.6,0.6-3.1,1.2-5.3,2
				c0,0-0.8,0-1.5-0.3c-2.6-1-5.5-1.7-7.8-3.2c-3.1-2.1-6.3-2.8-9-0.2c-4.7,4.7-10.4,3.7-16,3.4c-4.9-0.2-9.7-0.6-14.6-0.8
				c0,0.1,0,0.2,0,0.3c0.8,0.2,1.6,0.4,2.4,0.6c-2.3,1.5-3.5,3.4-3.5,6.1c-0.3-1.7,0.1-3.3-0.1-4.9c-0.1-0.8-0.9-2.2-1.6-2.3
				c-3.3-0.3-6.6-0.4-10-0.3c-5.3,0.2-10.5,0.7-15.8,0.9c-1.7,0.1-2.9,0.3-2.7,2.4c0,0.1-0.4,0.3-0.9,0.6c-0.1-0.9-0.2-1.6-0.3-1.8
				c-1.8-0.4-3.5-0.8-5.4-1.2c1.4,3.2,2.7,6.1,3.9,9.1c-0.5,0.2-0.9,0.3-1.6,0.5c0.6,0.4,1.1,0.8,1.6,1.1c-0.1,0.3-0.2,0.6-0.4,0.9
				c-4.1-1.8-8.3-3.5-13.1-5.6c0.7,1.7,1.1,2.5,1.4,3.3c-0.1,0.1-0.3,0.2-0.4,0.4c-1.4-1.4-2.9-2.7-4.3-4.1c0,0,0.1,0,0.1-0.1
				c-2-0.7-4.5-1.4-6.8-2.4c-0.8-0.3-1.1-1.9-1.9-2.2c-4.6-1.6-9-4.1-14.1-2.6c0.1,0.2,0.4,0.5,0.9,1.1c-1.6-0.5-2.7-1.2-3.9-1.2
				c-2.7,0-5.4,0.3-8.1,0.4c-6.2,0.3-12.5-1-17.6,1.1c-1-1-1.6-1.9-2.2-2c-1.2-0.1-2.5,0.3-3.7,0.4c-3.7,0.3-7.2,6.4-10.7,6.7
				c0-0.4-0.2-6.7-0.3-6.3c-2.1,8-1,8.3-1,8.1c0-0.1,1-9.1,1-10.3c-0.1-12.7-0.7-24.5-1.1-37c-0.1-3.5-0.5-7-0.6-10.6
				c0-4.1,0.3-8.2,0.2-12.2c-0.1-5.7-0.4-11.3-0.6-17c-0.2-7.4-0.5-14.9-0.5-22.3c0-8.8-2.1-17.7,0.7-26.5c0.1-0.4-0.2-0.9-0.3-1.4
				c-0.4-8.4-0.8-16.9-1.1-25.3c0-0.4,0.8-0.9,1.1-1.1c-2.3-4-0.1-8.8-1.5-13.3c-1.7,0.2-3.9-1-4.7,1.8c-0.1,0.3-0.6,0.5-1,0.5
				c-2.4-0.2-3.4,1.1-3.3,2.6c-4.2-0.1-8.2-0.4-12.2,1.2c0.1-0.8,0.1-1.6,0.2-2.6c-1.4,0-2.5,0-3.9,0c0-8,0-16,0-23.9
				c0-3.6-1-4-4.5-3.1c-1.8,0.5-4.2,0-5.8-0.9c-1.9-1.1-2.8-1.5-3.6-0.1c-2.1-0.1-3.8-0.7-5.2-0.2c-0.9,0.3-1.8,2.2-1.8,3.5
				c-0.1,17.4-0.1,34.9,0,52.3c0,6,0.3,11.9,0.6,17.9c0.2,2.9,0.9,5.8,0.9,8.7c-0.1,8-0.4,15.9-0.7,23.9c-0.6,16.7-1.3,33.4-2,50
				c-0.2,5.4-0.6,10.7-0.9,16.6c-2.7,0-5.2-0.2-7.7,0.1c-0.8,0.1-2.2,1.2-2.2,1.9c-0.2,7.1-0.1,14.1-0.1,21.3
				c2.3,0.3,6.6,0.5,9.4,0.9c-0.9,0.4,7.9,0,11.8,0c2.1-0.1,4.1-0.3,6.2-0.2c0.2,0,0.4,1.5,0.6,2.2c-0.3,0.1-0.7,0.1-1,0.2
				c-0.1-0.5-6.8-0.7-9.1-1.1c0,0.1,0.8,2.5,1.4,3c2.7-1.5,3.8-1.1,4.6,1.4c-1.2,0.8-2.3,1.5-3.3,2.2l0.1,0.1c1.8,1.1,2.1,2.4,0.6,4
				c-1,1.1-0.7,3.4-2.9,3.4c-1.3,5-0.7,6.5,3.3,8.4c-0.1,0.6-0.3,1.3-0.3,1.4c-0.8,0.1-1.4,0.1-2,0.2c-0.4,0.1-1,0.6-1.2,0.4
				c-4.4-2.6-3.3,1.3-3.9,3.2c-0.1,0.4-0.4,0.8-0.7,1.2c-3.8-1.5-0.5-3.6-0.5-5.3c-1.6-0.1-3.1-0.2-4.6-0.3c0.1,0.3,0.2,0.8,0.4,1.4
				c-1-0.3-1.8-0.6-2.6-0.7c-3.5-0.6-7.1-0.8-10.5-1.7c-2.3-0.6-4.3-2.1-6.4-3.3c1.8-1.8,2.9-0.7,3.8,1.5c0.9-1.3,1.6-2.2,2.3-3.2
				c1.4,1.6,2.7,3,4.1,4.6c3.8-0.4,8-0.8,12.2-1.3c-0.7-0.4-1.4-0.9-2.1-1.3c0.2-0.3,0.3-0.6,0.5-0.9c2.1,1.1,4.3,2.2,6.4,3.4
				c-1-1.7-2-3.3-3-5.1c-1-0.1-2.5-0.3-4-0.4c0-0.1-0.1-0.3-0.1-0.4c0.5-0.1,0.9-0.2,1.5-0.4c-0.5-1.1-0.9-2.2-1.4-3.2
				c0-0.3,0-0.5,0.1-0.8c-1.8-1.1-4-1.9-5.3-3.5c-0.8-0.9-0.5-2.9-0.6-4.4c-0.5,0.7-1,1.4-1.3,1.7c-1.8-2.2-3.8-4.7-5.4-6.8
				c-2.7,0-5.4-0.2-8.1,0c-8.3,0.7-16.5,1.7-24.8,2.3c-14.4,0.9-28.8,1.8-42.8,5.7c-4.2,1.2-8.6,1.9-12.9,3
				c-1.2,0.3-3.4-1.1-3.5,1.7c-0.5,0-1.4,0-1.4-0.1c-0.3-2.4-2.1-0.8-3-0.9c-2.5-0.2-5.1-0.2-7.5,0.4c-2.7,0.6-5.2,2-7.8,3
				c-7.3,2.9-14.6,5.7-21.8,8.6c-0.6,0.2-1.2,0.6-1.9,0.6c-3.7,0.1-7.4,0-11,0.3c-5.1,0.4-10,1.6-15,1.4c-8.2-0.2-16.1,0.8-24.1,2.2
				c0,40.4,0,80.8,0,121.1l0.1,0.1c0.8-0.4,1.4-0.7,2.6-1.3c0.5,0.2,1.5,0.6,2.6,1c0.1-0.2,0.2-0.5,0.3-0.7
				c-0.7-0.7-1.5-1.3-2.9-2.6c1.6,0.3,2.4,0.1,3.4,0.3c-0.3-0.7-0.5-1.2-0.8-2.2c2.2,0,4.3,0,6.5,0c0.4,1,1,1.9,1.8,3.4
				c-1.7,0.3-3.5,0.8-5.4,1.1c3.3,0.4,6.5,1,9.7,1.2c0.8,0.1,1.6-0.7,2.4-1.2c-0.9-1.3-1.8-2.5-2.7-3.8c0.1-0.2,0.3-0.4,0.4-0.6
				c1.4,0.5,2.9,1,3.9,1.3c-0.5,1.2-0.9,2-1.2,2.8c0.1,0.1,0.2,0.2,0.2,0.2c0.8-0.1,1.5-0.3,2.3-0.4c0-0.1,0-0.1,0.1-0.2
				c1.6-0.4,3.1-0.9,4.7-1.3c-0.8-0.2-1.7-0.4-2.5-0.6c-0.7-0.2-1.4-0.5-2-0.9c-0.1-0.1,0.1-1.2,0.3-1.2c1-0.2,2.1-0.3,3.1-0.3
				c0.6,0,1.2,0.3,1.7,0.4c0.1-0.3,0.2-0.6,0.4-0.9c0.4,0.5,0.9,1.1,1.5,1.8c-0.7,0.5-1.4,1-2,1.5c0.8,0.3,2.3,0.5,2.3,0.8
				c0.3,3.4,0.4,6.8,0.6,10.6c-10.2,0.8-20.1,1.7-29.8,2.5c-0.7-1.5-1.6-2.6-1.6-3.7c0,4.5,0,9.1,0,13.6c0-0.7,0.6-1.5,1.1-2.3
				c1.2,1.6,2.2,2.8,3.9,0.5c0.7-1,2.4-1.7,3.7,0.2c0.5,0.7,1.3,1.1,1.8,0.8c0.9-0.5,2.1-1.7,2.8-1.5c2.5,0.8,4.5-0.9,6.8-0.7
				c1.5,0.1,3.3-0.2,4.5,0.4c2.1,1.1,3.8,0.5,5.8-0.2c2.1-0.6,4.4-0.6,6.6-0.5c2.1,0.1,4.1,1.1,5.8-1.1c0.2-0.2,1.7,0.4,2.5,0.8
				c0.8,0.4,1.7,0.9,2.7,1.5c0-1.2,0-2,0-2.9c0,0,0.2-0.2,0.4-0.2c2.1,0.9,3.1,2.6,3.9,4.6c-1.6-0.3-3.3-0.6-5.3-1
				c0.4,2,0.8,3.4,1.1,5c-6.5,2-8.6,1.5-10.6-3.5c0,0,0,0,0,0l0,0.2c0,0,0,0.2,0,0.2c-1.2-0.1-2.6,0.1-3.7-0.4
				c-1.8-0.8-3-0.4-4.1,1.3c-1.4-2-2.6-2.3-3.2,0.5c-1.5-0.6-2.9-1.2-3.8-1.6c-1.4,1-2.5,1.7-3.4,2.5c-0.5,0.4-1.1,1.1-1,1.5
				c0.3,2-1,2.4-2.4,2.5c-2.9,0.1-5.7,0-9.2,0c1.3-0.4,2.2-0.7,3-1c0.1-0.3,0.3-0.6,0.4-0.8c-3.4-0.8-7-1.6-10-2.3
				c0,3.3,0,6.5,0,10.5c3,0,5.3,0,8.1,0c0-1,0-0.9,0-1.2c-0.8-0.2-1.7-0.5-2.5-0.6c0-0.4,0-0.8,0.1-0.8c2.7-0.8,5.4-1.8,8.1-2.3
				c1.3-0.3,2.7,0.2,4,0.3c0,0.3,0,0.5,0,0.8c-3.7,1.5-7.3,2.9-11,4.4c0.5,0.8,1,1.6,1.4,2.2c-1.3,0.6-2.3,1.1-3.3,1.6
				c0.1,0.3,0.2,0.7,0.3,1c3.4-0.8,6.8-1.5,10.1-2.3c0.1,0.4,0.2,0.6,0.1,0.8c-0.4,1.1-0.7,2.2-1.1,3.3c1.2-0.1,2.4-0.3,3.6-0.4
				c2.8-0.3,5.7-0.4,8.5-0.8c2.8-0.5,5.6-1.4,8.4-1.9c1.6-0.3,3.2-0.1,4.8-0.2c5.4-0.1,10.9-0.3,16.3-0.4c0.1,0,0.1-0.5,0.4-0.5
				c-2.8,0-5.4,0-8,0c0,0,0-0.2-0.1-0.2c2-0.3,4.1-0.7,6.1-1c0-0.3,0-0.6,0-0.9c-1,0-2-0.2-2.9-0.1c-5.5,0.5-11.3,0.2-16.6,1.7
				c-6.1,1.7-11.5-0.5-17.3-0.8c-1.3-0.1-2.6-1.4-3.9-2.1c1.3-0.6,2.6-1.3,4-1.6c0.9-0.2,1.9,0.4,2.9,0.4c2,0,4.1-0.1,6.1-0.1
				c0-0.5-0.1-0.9-0.1-1.4c-1.5,0.2-2.9,0.4-4.4,0.7c4.4-3.9,9.7-1.8,14.6-2.2c-2.8,0.5-5.6,0.9-8.4,1.4c0,0.3,0,0.6,0,0.8
				c0.5,0.4,1,0.8,1.6,1.2c-1.1,0.3-2.2,0.5-3.7,0.9c4.4,1.8,6.7,1.1,9.6-1.8c0.7-0.8,2.3-1,3.4-1c3.5,0.2,7,0.7,10.5,1
				c0.4,0,0.7,0.2,1.1,0.9c-3.4,0.2-6.8,0.5-10.2,0.7c0,0.2,0,0.7,0,0.7c6.4,0,12.8,0,19.2,0c0-1,0-0.6,0-0.7
				c-1.9-0.2-3.8-0.5-5.9-0.7c2.4-3.5,5.7-2.3,8.4-2.3c5.8-0.1,11.5,0.3,17.3,0.6c0.7,0,1.3,0.2,2.6,0.5c-0.8,0.4-1.2,0.5-1.7,0.7
				c7.3,2.7,7.3,2.7,11.1,2.1c-2.4-0.7-4.2-1.3-6.1-1.9c0-0.3,0-0.6,0-0.8c3.3-0.2,6.6-0.5,9.9-0.5c0.4,0,0.8,1.2,1.4,2.1
				c0.5-0.1,1.3-0.3,2.3-0.5c0.1,1,0.2,1.4,0.3,2.4c3,0,5.9,0,9.5,0c-1.5-1-2.5-0.8-3.8-1.2c1.9-1.4,3.5-1.3,5.1-0.4c0,0,0,0,0,0
				l0,0c0,0,0,0,0,0c2.9-1.8,5.5-0.1,8.5,1.7c-0.5-1.4-0.8-2-1.1-2.7c1.2,0.2,2.2,0.4,3.3,0.7c-0.2,0.2-0.5,0.5-1.2,1.2
				c1.7,0.2,3.1,0.3,4.6,0.4c1.8,2.6,2.6,2.9,5.9,1c-2.2-0.3-4.8,0.3-4.5-3c3.3-0.2,6.6-0.5,10-0.6c0.8,0,2.2-0.4,1.7,1.3
				c1.4,0.3,2.8,0.5,4.2,0.8c-1.7,1.5-3.4,2.9-5.3,4.5c0.6,0.2,1.3,0.5,2.3,0.9c-1.6,0.5-2.9,0.9-4.3,1.4c2.2,4,6.2-0.4,8.8,1.9
				c-0.1-0.6-0.1-1.2-0.2-2.1c3.1,0.7,6.1,1.3,9.1,2c0.1,0,0.2,0,0.3,0c1.9,0.9,3.9,1.9,5.8,2.8c0.1-0.2,0.2-0.4,0.3-0.6
				c-0.5-0.4-1-0.8-1.5-1.1c2-0.7,4-1.4,6-2c-0.1-0.4-0.2-0.9-0.3-1.3c-2.1,0.1-4.2,0.2-5.8,0.3c0.3-0.8,0.8-2.1,1.4-3.6
				c0.3,0.3,0.9,0.8,1.6,1.5c0.1-0.6,0.2-1.3,0.3-2c0.9,3.8,3.5,3.8,7,3.4c-0.8-0.6-1.2-1-1.6-1.3c-0.2-0.1-0.3-0.3-0.5-0.4
				c0-1.5-0.1-3-0.1-4.5c1-0.1,2-0.1,3-0.2c1.8,2.5,4.2,0.5,6.2,0.7c1.9,0.2,3.8-0.2,5.8-0.3c0-0.4-0.1-1.6,0-1.6
				c1.1-0.1,2.3-0.3,3.3,0c2.1,0.5,4.2,1.1,6.3,1.7c0.1-0.3,0.2-0.6,0.3-0.9c-1-0.7-2-1.3-3.1-2c1.6-1,3-1.8,4.5-2.7
				c0.1,0.9,0.3,1.7,0.4,2.6c-0.4,0.1-1,0.2-1.6,0.3c0,0.2-0.1,0.4-0.1,0.6c0.9,0.4,1.9,0.8,2.8,1.2c-0.1,0.5-0.2,1-0.3,2.1
				c-0.9,0.6-2.4,1.5-3.8,2.4c-0.2,0.5-0.4,1-0.5,1.5c-0.1,0.8-0.2,1.6-0.3,2.3c0.9,0,1.9,0.3,2.6-0.1c0.5-0.3,0.6-1.4,0.9-2.5
				c0.9,0,2.3,0,3.7,0c0.3,0,0.8-0.1,0.8-0.2c1.1-3,3.2-1.5,5.3-1.3c-1.5-1.1-3-2.3-4.5-3.4c-0.1,0.1-0.3,0.2-0.4,0.2
				c0.2,0.4,0.3,0.8,0.5,1.2c-0.2,0.2-0.3,0.4-0.5,0.5c-0.5-0.7-1.2-1.2-1.4-2c-0.2-1-0.1-2.2-0.1-3.3c1.7,1,3.7,2.3,5.9,3.6
				c-0.6,0.3-1,0.4-1.8,0.9c3.1,1.4,5.8,2.6,8.5,3.8c0.1-0.3,0.3-0.6,0.4-0.9c-0.4-0.3-0.8-0.1-1.5-1.1c1.9,0,3.5,0,5.1,0
				c0,0,0-0.3,0-0.4c-0.8-0.1-1.7-0.1-2.8-0.2c1.6-2.9,3.4-0.3,5-0.3c2.1,0,4.2,0.9,6.3,1.4c0.1-0.3,0.1-0.6,0.2-0.8
				c-1.1-0.1-2.3-0.2-3.4-0.3c0-0.1,0-0.3-0.1-0.4c1-0.1,2-0.3,3-0.4c0-0.1,0-0.5,0-0.5c-1.5,0-3,0-4.5,0c0,0,0-0.2-0.1-0.3
				c0.7-0.1,1.3-0.1,2.9-0.4c-2.6-1.5-4.5-2.6-6.4-3.6c0.1-0.1,0.1-0.1,0.2-0.1c3.7,1.1,7.3,2.3,11,3.4c0,0-0.4,0.2-1,0.6
				c1.1,0.3,1.9,0.6,2.9,0.9c0.2-1.2,0.4-2.3,0.6-3.6c-0.8-0.1-1.7-0.2-2.6-0.3c0-0.1,0-0.3,0.1-0.4c2.6,0.1,5.1,0.3,7.8,0.4
				c-0.5-1.3-0.7-2.1-1.1-3c3.7,0.8,7.1,1.5,10.7,2.2c0.1-1.4,0.2-2.4,0.3-4c2.8,3.5,5.6,2.9,8.6,1.2c0.5-0.3,1.6,0.2,2.4,0.5
				c0.7,0.3,1.2,0.9,2.2,1.6c0-1.2,0-1.9,0-3.6c2,4.1,3.5,1.3,4.5,1.8c1.1,0.7,2.2,1.3,3.1,2.2c0.7,0.7,1.2,1.6,2.2,3
				c1.3-0.6,3.3-1.4,5.3-2.2C-3.4,57-4,56.7-4.6,56.7c-0.6,0-1.2,0.2-2.5,0.5c-1.1-1.1-2.7-2.8-4.2-4.5c0.2-0.2,0.4-0.4,0.6-0.7
				c0.8,0.6,1.7,1.3,2.7,2c0.9-1.4,1.7-2.9,2.7-4.3c0.3-0.4,1-0.5,1.6-0.6c3.9-0.6,7.8-1.1,11.8-1.6c0.5-0.1,1.3,0,1.6,0.3
				c2.6,2.5,5.5,2.9,8.8,1.8c1-0.3,2.2-0.8,3.2-0.5c2.9,0.7,3.8-0.6,3.5-3.3c1.9,0.3,3.7,0.5,5.4,1c1.7,0.5,3.4,1.2,5.2,1.8
				c0.3-0.8,0.6-1.5,0.9-2.1c1.4,0.7,2.6,1.3,4.4,2.2c-1.8,0.4-3.2,0.9-4.7,1.1c-4.2,0.8-4.2,0.8-2.4,4.8c0.9,0.3,1.8,0.5,2.8,0.8
				c0,0.1,0,0.3,0,0.4c-0.6,0.1-1.2,0.1-2,0.2c0.4,0.6,0.8,1.1,0.8,1.2c-0.7,2.1-1.2,3.9-1.8,5.7c-1.6-0.9-4.3-0.2-4.7-3.2
				c-0.1-0.3-2-0.6-3-0.5c-3.1,0.3-6.2,0.8-9.3,1.2c-0.8,0.1-1.7,0-2.8-0.1c0.3,0.9,0.6,1.5,0.8,2.5c2.9,0,5.6,0,8.4,0
				c0,0,0.1,0.4,0.1,0.8c-3.8,0.9-7.8,1.3-11.5,2.6c-2.4,0.8-4.6,2-7.3,1.5C4,67.7,3.4,69,3.1,69.4c-3.8,0.8-7.5,1.7-11.2,2.5
				c-0.3-0.9-0.4-2.6-0.9-2.6c-1.3-0.2-3.2-0.2-3.8,0.6c-1.5,2-3,0.8-4.6,0.7c-0.6-0.1-1.3-0.2-1.7,0c-1.3,0.7-2.3,1.4-3.3-0.5
				c-0.5-0.9-1.4-0.6-1.2,0.7c-1.2-0.1-2.6,0.2-3.4-0.3c-2.6-1.7-4.8-0.1-7.2,0.5c0.8,0.2,1.5,0.4,2.4,0.6
				c-3.8,4.1-8.2,2.1-12.8,0.7c0.6,1.3,0.8,1.7,1.2,2.4c-3,1.1-6.4-2.8-8.8,1.1c-0.9-0.8-1.8-1.5-2.6-2.2c-0.1,0.2-0.3,0.3-0.4,0.5
				c0.4,0.3,0.7,0.6,1.3,1.1c-1.5,0.8-2.8,1.6-3.6,2.1c-1.7-0.7-2.9-1.1-4.1-1.6c-0.1,0.2-0.1,0.5-0.2,0.7c0.8,0.9,1.6,1.6,2.9,3.6
				c-2.3,0-4.2,0-6.8,0c-0.2,0-0.8,1-1.8,2.3c-0.3-0.8-0.6-1.6-1-2.6c-0.1,0-0.9-0.3-1.7-0.5c-0.7,1-1.4,1.9-2.3,3.1
				c0.7,0.3,1.6,0.7,2.4,1.1c-2.9,1.8-4.7-0.4-6.8-1.6c-0.5-0.3-0.9-0.5-1.4-0.8c0.6,0.7,1.2,1.4,1.6,2.1c0.5,0.8,0.7,1.6,1.1,2.5
				c-0.9,0.1-1.7,0.3-2.6,0.3c-0.7-0.1-1.4-0.5-2-0.7c-0.4,1.3-0.7,2.3-1,3.4c-0.3,0-0.6-0.1-0.8-0.1c-0.2-1.1-0.4-2.2-0.6-3.7
				c-0.7,1.4-1.3,2.4-1.6,3c-1.3-1.3-2.5-2.5-3.8-3.8c0.5-0.1,1-0.2,1.9-0.4c-2.2-1.7-4.1-3.3-6.1-4.8c-0.2,0.1-0.3,0.3-0.5,0.4
				c0.7,0.9,1.3,1.8,2.1,2.8c-0.5,1.7-1.1,3.7-1.9,6.3C-94.2,87-96,86-97.9,85c0.9,2.8,0.7,6.2,5.3,6.5c-0.2,0.4-0.3,0.8-0.5,1.2
				c-2.5,0.3-5,0.6-7.7,0.9c0.4-1.5,0.6-2.5,1.1-4.1c-2.5,1.7-4.4,3-6.7,4.5c0.4-1.6,0.7-2.8,0.9-4c-0.1,0-0.2-0.1-0.3-0.1
				c-0.3,0.4-0.6,0.9-0.9,1.3c-0.9-1.1-1.8-2.1-2.6-3.1c2.4-1.4,2.9-1.2,4.7,1.3c1.7-1.7,1.6-2.2-0.7-4.1c-0.3-0.2-0.7-0.3-1-0.5
				c-1.7-0.6-3.4-1.2-5.1-1.8l0.1,0.1c-0.6-0.1-1.3-0.3-1.9-0.4c-0.1,0.2-0.3,0.4-0.4,0.6c1,0.9,2.1,1.7,3.4,2.8
				c-0.5,0.4-1.1,1-1.3,1.2c-0.2,1.7-0.3,3.1-0.4,4.5c-0.3,0-0.5,0-0.8,0c-0.4-0.5-0.7-1-0.9-1.3c-1.4,0.7-2.6,1.4-4.3,2.4
				c0.2-2.5-1.2-4.9,2.4-5.9c1.1-0.3,2.7-1.9,0.2-3.3c-1-0.5-1.7-1.5-2.5-2.3c-2.1-0.1-4.1-0.2-6.2-0.3c-1.6-1.6-3-3.6-4.9-4.7
				c-1.7-0.9-3.9-0.7-5.9-1c-0.1,0.4-0.2,0.7-0.3,1.1c1.5,0.7,3,1.3,4.5,2c-0.1,0.3-0.1,0.6-0.2,0.9c-2.3-0.4-4.6-0.8-7.6-1.4
				c1.8,1.4,3.1,2.3,4.9,3.7c-1.3,0.1-2,0.1-3,0.2c0.8,0.6,1.3,1,1.9,1.4c-4.5-2.8-9.2-0.1-13.7-0.6l0.2-0.1c-2,0.3-3.9,0.7-5.9,1
				c0,0.8,0,1.7,0,2.6c-2-0.1-4.6-3.9-7.2-1.3c-1-0.9-1.9-1.7-2.8-2.5c0-0.2,0-0.3,0-0.5c-0.1,0.1-0.2,0.1-0.4,0.2
				c0,0-0.1-0.1-0.1-0.1c0,0,0,0.1,0.1,0.1c-1.6,0.8-1.9,1.9-3,2.3c-1.6,0.5-3.5,0.5-5.1,0.3c-3.4-0.5-4.3-0.1-5.4,3.3
				c0.5,0.2,1,0.4,1.5,0.6c0.4,0.2,0.8,0.3,1.1,1c-2.5-0.8-5.1-1.7-7.8-2.6c0.5-0.4,0.9-0.8,1.4-1.2c-0.1-0.2-0.1-0.3-0.2-0.5
				c-1.2,0.5-2.3,0.9-3.8,1.5c-1.1-2.1-2.6-0.8-4.1,0.9c-0.7-1.3-1.2-2.3-1.7-3.2c-0.1,0.5-0.3,1-0.4,1.5c0,0.9,0.1,1.8,0.1,2.6
				c-1.7-0.7-3.1-1.1-4.2-1.9c-0.5-0.4-0.7-1.6-0.5-2.3c0.2-0.6,1.1-0.9,1.7-1.3c-0.2-0.2-0.4-0.5-0.6-0.7c-1.3,1.3-2.6,2.5-3.9,3.7
				c1.1,1.4,1.9,2.4,2.4,3.1c-1.7,0-3.5-0.5-4.8,0.1c-1.6,0.7-2.7,2.3-4.4,3.8c1.1,0.5,1.8,0.8,2.7,1.2c-1.7,1.2-3.4,2.4-5.2,3.7
				c-0.1-0.2-0.2-0.7-0.4-1.4c-0.7,0.3-1.4,0.6-2.1,0.9c-0.1-1.3-0.2-2.4-0.3-3.5c-0.2,0-0.3,0-0.5,0c-0.1,0.7-0.3,1.5-0.5,2.8
				c-1.1-0.9-1.9-1.5-3-2.4c-0.3,2.4-4,2.7-2.9,6.1c0.3,1.1-1.8,2-3.4,1c-1-0.6-1.8-1.4-3-2.3c-0.2,2.7-1.3,4.1-4.1,4.4
				c-1,0.1-1.7,2.1-2.7,3.4c-0.4-0.1-1.1-0.3-1.8-0.5c-0.6,3.9-2.3,5.4-6.5,5.8c-0.3-0.8-0.8-1.7-1-2.6c-0.3-0.9-0.4-1.9-1.1-3
				c-0.4,2.1-0.8,4.1-1.4,6.9c-1.2-2-2-3.3-2.9-4.7c-0.7,1.4-1.3,2.5-1.9,3.7c-0.2,0-0.5-0.1-0.7-0.1c-0.1-1.1-0.1-2.2-0.2-3.7
				c-1.6,0.5-2.5,5-5.3,1.2c0.9-0.1,1.5-0.2,2.7-0.3c-0.7-0.5-1.1-0.9-1.3-0.9c-1,0.3-2.7,0.7-2.8,1.2c-0.5,2.7-2.7,2.7-4.1,3.4
				c-0.8-1.5-1.4-2.6-2.1-3.9c-2,1.9-3.1,4.2-5.9,3.2c-0.1,0-0.6,0.9-0.8,1.4c-0.2,0.4-0.4,0.9-0.6,1.3c-0.3-0.3-0.5-0.7-0.9-1
				c-0.6-0.4-1.9-0.7-1.9-1.1c0,60.3,0,120.1,0,181.1c238,0,476,0,714.1,0c0-16,0.1-31.7,0.1-47.6
				C442.3,99.3,442.3-48.7,442.2-196.6z M-202.1,47.2c-1.3,1-2.8,1.7-4.6,2.9c-1.3-1.6-2.7-3.3-3.6-4.5c-2.4,0.4-4,0.7-5.6,1
				c0.3,1.3,0.5,2.7,0.8,4c-0.3,0.1-0.5,0.2-0.8,0.3c-0.6-0.8-1.1-1.7-1.8-2.7c-0.6,0.4-1.2,0.8-2,1.3c0.1-1.2,0.1-2.2,0.2-3.1
				c0.8,0,1.6-0.1,2.3-0.1c-0.5-0.4-1-0.7-1.9-1.3c1.8-0.7,4.3-0.2,3.4-3.2c-0.9-0.1-1.9-0.1-2.8-0.2c0-0.1,0-0.2,0-0.3
				c1.5-0.1,3.1-0.2,4.7-0.3c-0.4,0.8-0.8,1.5-1.4,2.6c4,0,7.5-0.1,10.9,0.1c1,0.1,2,0.9,2.9,1.5C-201.6,45.9-201.6,46.8-202.1,47.2
				z M-197.2,41.2c2.3,3.1,6.9,1.2,8.9,4.7c-4.1,0.4-7.7,0.7-11.5,1c-0.2-0.3-0.7-1-1.3-1.7c0,0,0.2,0,0.2,0c0-0.8,0-1.5,0-2.6
				c1,0.1,1,0.3,2,0.4c0-1.1,0-2.2,0-3.2c5,0,9,0,13.3,0c0,0,0,0.2,0.1,0.3C-189.3,40.5-193.1,40.9-197.2,41.2z M-114.6-106.6
				c-0.7,0.3-1.1,0.5-1.7,0.8c0.5,0.4,1,0.8,1.4,1.2c-2.7,0.3-3,0-5.2-4.7C-118.2-108.4-116.6-107.6-114.6-106.6z M-122.4,61
				c-0.2,0.5-1.8,0.6-2.7,0.4c-1.6-0.3-3.1-0.9-4.6-1.4c1.7-0.5,3.3-0.9,5-1.4c0.7-0.2,1.3-0.6,2.7-1.3
				C-122.1,58.4-121.9,59.8-122.4,61z M-106.9,59.7c-1,0.7-1.6,1.5-2.6,2.3c-2.8-0.9-6.1-1.9-9.4-3c0-0.3,0.1-0.6,0.1-0.9
				c1.7-0.3,3.4-0.5,5.5-0.8c-0.4,0.8-0.7,1.4-1.2,2.4c2.7-0.5,5.6-0.9,7.6-1.4C-106.9,58.5-106.9,59.1-106.9,59.7z M-103.6,59.4
				c-0.5-3-2.6-4-5.5-3.7c0.1-0.3,0.2-0.5,0.3-0.8c1.9,0.6,3.9,0.9,5.5,1.8C-102.3,57.3-101.1,58.9-103.6,59.4z M-84.3-95.9
				c1.6,1.8,3.3,3.6,4.9,5.4c-1.5-1.8-5.6,1.9-6-3.1c-0.7,0.4-1.4,0.9-2.4,1.5c0.2,0.6,0.7,1.9,1.2,3.1c-0.2,0.2-0.5,0.4-0.7,0.6
				c-1.4-1.2-2.7-2.4-4.4-3.8c0,0.8-0.1,1.4-0.1,2c-0.2,0.2-0.4,0.3-0.5,0.5c-0.9-1.3-1.8-2.6-2.4-3.5c0.5-1.4,1.1-2.5,1.2-3.6
				c0-0.6-0.8-1.3-1.3-1.9c-0.2,0.7-0.4,1.4-0.6,2c-3.3-0.9-3.5-1.3-1.8-3.6c-1.4,0-2.8,0-4.4,0c0.2,3.1-2.2,1.8-3.7,2.2
				c1.4,2,2.8,4,4.3,6.3c-0.1,0.1-0.3,0.8-0.7,1.5c-0.8-0.2-1.8-0.3-2.8-0.5c-0.2-0.8-0.5-1.7-0.6-2.1c-2.1-0.2-3.8-0.4-5.8-0.6
				c0,0.9,0,1.7,0,2.6c0,0-0.6,0.1-0.9,0.1c-0.4-1.1-0.8-2.2-1.2-3.2c-1.5-0.4-3.1-0.8-4.6-1.2l0,0c-2-0.9-3.9-1.9-6-2.9
				c-0.2,0.2-0.8,0.9-1.4,1.6c-0.2-0.1-0.5-0.3-0.7-0.4c0.1-0.9,0.1-1.8,0.2-3c2.2,0.2,4.3,0.5,7.3,0.8c0.8-1.2,2.2-3.1,3.6-5.1
				c1.5,1.3,3,2.6,4.5,3.8c0.7-0.5,1.7-1.4,2.7-2.2c0.5,0.7,1,1.4,1.8,2.7c1.2,0.5,2.3-0.2,3.5-1.7c1.1-1.3,2.7-2.2,4.2-3.3
				c0.4,0.8,0.8,1.5,1.4,2.7c0.9-1,1.7-1.8,2.5-2.7c0.1,1,0.3,2,0.4,2.9c0,0,0,0,0,0c0.3,1,0.4,2,0.8,2.9c0.6,1.3,1.5,2.4,2.3,3.6
				c1.3,0.2,2.7,0.5,4.7,0.8c-1.1-1-1.9-1.7-2.9-2.6C-86.7-98.5-85.1-98.4-84.3-95.9c2.2-2.3,4.7-1.2,6.2,2.9
				C-80.3-94-82.3-95-84.3-95.9z M-166.5,90.2c-0.2-0.2-0.9-0.9-1.4-1.6c-0.3,0,0,0.1-1,0.1c0,1.2,0,2.5,0,3.7
				c0-0.1-0.9-0.1-1.4-0.2c0.4-1.9,0.6-4,1.6-5.5c0.8-1.2,1.9-2.7,4.9-1.3c0-0.9,0-1.7,0-2.6c0.2,0.4,0.4,0.8,0.5,1.2
				c1.1,3.1,1.1,3.1,4.7,2.7c-4.5,2.6,0.3,4.1,0.2,6.4C-160.8,91.3-163,89.5-166.5,90.2z M245.1-87.6c-0.2-0.7-0.5-1.3-0.7-2
				c0.8-0.7,1.6-1.4,2.8-2.3c0.5,0.7,1.1,1.6,1.9,2.8C247.7-88.5,245.4-91.3,245.1-87.6z"/>
		</g>
		<path d="M-172.3-14.7c0.7-0.3,1.4-0.6,2-0.8c0.1-1.2,0.2-2.3,0.4-4.1c-0.9,1.3-1.3,2-2.2,3.4c-1-2.2-1.8-3.9-2.4-5.4
			c-0.2,0.2-0.8,0.9-1.4,1.5c-1.1-2.6-2.1-5.2-3.4-8.3c-1.8,1-3.2,1.8-5.2,3c2.1,1,3.6,1.4,4.7,2.3c0.8,0.6,1.7,1.9,1.7,2.8
			c0,0.8-2,2.2-2,2.1c-3.9-3.7-8-1.7-12-0.3l0.1-0.2l0,0.2c-0.8-0.4-1.6-0.7-2.3-1.1c-1.1-0.2-2.2-0.3-3.3-0.5c-4-2.4-4-2.4-5.2-1.3
			c1.1,0.5,2.2,1,3.9,1.7c-2.3,0.7-4,1.5-5.7,1.5c-1.7,0-3.3-1-5-1.5c-0.1,0.2-0.1,0.3-0.2,0.5c1.8,0.8,3.7,1.6,5.5,2.5l0.1-0.1
			c-1.2,0.3-2.4,0.5-3.6,0.8c-1.5,0.4-1.4,1.1-0.1,1.8c-1.7,0-3.4,0-5.1-0.1c0.1-0.8,0.2-1.6,0.2-2.5c-2.1-0.3-3.9-0.5-5.7-0.8
			c-0.1,0.5-0.2,1-0.3,1.5c2,0.5,4,1.1,6,1.6c0.3,3.3,2,4.2,5,2.9c0.4-0.2,1.1,0.2,1.7,0.4c-0.3,0.7-0.5,1.3-0.8,2
			c2.7,0.4,2-1.8,2.7-3.3c-1.3-0.7-2.4-1.2-3.5-1.8c1.3-0.1,3.4-0.6,3.8-0.1c1.5,2.4,3,5,3.6,7.7c0.5,2.3,1.2,4,3.5,4.5
			c1.7,0.4,3.6,0.1,5.7,0.1c-0.3-1.1-0.6-1.9-0.9-3.1c1.6,0,3,0,4.7,0c-4.2-1.4-5.7-4.5-6.1-8.3c1.2,2.2,2.6,4.3,5.4,4.6
			c1.9,0.2,3.9,0.3,5.8,0.4c0-0.2,0.1-0.5,0.1-0.7c2.1,0.8,2.2,5.3,5.8,3.2c0.7-3.1,1.2-3.1,3.8-1.8c1.7,0.8,3.1,1.4,3.7,3.4
			c0.1,0.3,1.3,0.3,2.3,0.6c-0.9-1.5-1.4-2.5-2-3.5c0.2-0.2,0.4-0.4,0.5-0.6c1,0.3,2,0.7,3.2,1.1c0.1-2.8,1.3-3.4,4.3-1.9
			c-1.3,0-1.9,0-2.5,0c0,0.2-0.1,0.5-0.1,0.7c1.8,0.2,3.7,0.5,5.7,0.7c0.1-0.3,0.4-0.8,0.5-1.1c0.9,0.2,1.8,0.2,2.5,0.5
			c1.7,0.8,3.3,1.7,4.9,2.6c0.8,0.5,1.5,1.1,2.2,1.6c0-2.5-0.6-4-2.9-3.9c-0.3,0-0.6-0.5-0.9-0.7l-0.1,0c1.8-0.2,4.3,2.1,5.2-2.3
			c1,2,1.6,3.2,2.5,5c1.1-1.2,2.2-2.3,3.5-3.6c0,1.1,0,2,0,3.1c3.1-0.8,6-2.2,8.8-2.1c2.6,0.1,5.1,1.7,7.2,2.5
			c0.5-1.5,0.8-2.5,1-3.1c2.3,0.8,4.2,1.5,6.1,2.2c0.3-1.1,0.7-2.3,1.1-3.7c0.4,0.8,0.8,1.7,1.3,2.6c0.3,0.4,0.8,0.9,1.2,0.9
			c0.4,0,0.9-0.5,1.1-1c0.3-0.5,0.2-1.1,0.5-2.7c1.4,1.2,2.2,2.4,3.1,2.5c3.2,0.3,6.4,0.2,9.7,0.1c0.7,0,1.5-0.3,2.2-0.7
			c2.1-1.4,3-1.2,4,1c0.2,0.4,0.3,0.8,0.7,1.6c1.1-2.3,2-2,2.7,0.4c0.4-1.5,0.6-2.3,0.7-2.9c-1.2-0.4-2.2-0.6-3.1-0.9
			c-2.4-1-4.5-2.9-7.4-1.1c-0.2,0.1-1-0.7-1.5-1.1l-0.1,0.1c2.5-1.2,4.9-1.1,7.4,0.2c1.4,0.7,3,1.2,4.5,1.8c0-0.2,0.1-0.3,0.1-0.5
			c-1.4-1.3-2.8-2.6-4.4-4c-0.1,0.1-0.5,0.6-1.4,1.7c0.2-1.7,0.3-2.5,0.4-3.3c2.5,0.4,4.8,0.8,6.8,1.2c-0.2,0.8-0.4,2.1-0.7,3.6
			c2.1,0.2,3.8,0.4,5.2,0.6c0.1-1.2,0.2-2.9,0.4-2.9c1.5,0,3.1,0.2,4.7,0.4c0-0.5-0.1-1.3-0.3-2.6c1.3,1.1,2.2,1.9,3.4,2.8
			c0.5-0.5,1.5-1.3,2.3-2c1.7,0.3,3.5,0.6,5.5,0.9c-0.6-1-1-1.7-1.8-2.9c3.6,1.1,6.5,2.3,9.5,2.7c2.6,0.3,5.2-0.5,7.9-0.7
			c2-0.1,4.4-0.9,5,2.3c0.1,0.7,1.3,1.2,2.4,2.1c0.1-1.1,0.2-1.6,0.2-1.7c1.1,0.6,2.6,2,3.3,1.7c2.5-1.3,4.7-1.5,7.3-0.1
			c2.7,1.5,5.7,2.3,8.5,3.5c1.2-0.5,2.6-1.1,3.9-1.7c0.1-2.1,0.5-4.5-1.3-6.5c-0.1-0.1,0.7-0.9,1-1.4c1.4,1.3,3.2,2.3,4.2,3.8
			c1.9,3,3.4,3.6,6.7,1.9c-0.4-0.6-0.8-1.3-1.5-2.3c2.1,0.1,3.7,0.2,5.4,0.2c-0.7,1.2-1.2,2.1-1.8,3.1c1.3-0.4,2.1-0.6,2.9-0.9
			c0.9-0.4,1.8-0.7,2.5-1.3c2.4-2.2,3.7-2.1,5.8,0.8c2.3-0.8,4.6-1.6,7.2-2.4c0.2,1.4,0.3,2.4,0.5,3.8c1.2-0.6,2.1-1.1,3.3-1.7
			c-0.8-0.5-1.2-0.8-2-1.4c4.4,0.4,1.7-3.5,3.2-4.4c0.3,4.7,0.6,9.4,0.9,14.5c4.2-3.2,1.3-7.2,2-10c4.2-2.2,8.4-1.7,13.2-1.7
			c-0.8,1-1.2,1.7-1.8,2.2c-6.3,5.3-12.7,10.5-19,15.8c-0.8,0.7-2,1.5-2.1,2.2c-0.2,4.9-0.1,9.8-0.1,15.3
			C20.3,14.8,30.9,7.8,39.9-1.8c-0.9-1.5-1.8-2.9-2.7-4.3c-1.5-2.4-3.3-4.6-4.5-7.2c-0.7-1.6-1.3-2.5-3.2-2.4
			c-1.5,0.1-3.1-0.5-4.6-0.7c0-0.3,0.1-0.6,0.1-0.9c3.3-0.3,6.7-0.7,10-1c0,0.2,0.1,0.5,0.1,0.7c-0.6,0.2-1.2,0.3-1.6,0.5
			c0.6,1.5,0.8,3.7,1.7,4c1.3,0.4,3-0.6,4.5-1c0.5-0.1,0.9-0.3,1.4-0.5c-0.8,0.5-1.6,0.9-2.4,1.4c0.1,0.3,0.2,0.6,0.2,0.9
			c1.3,0.1,2.5,0.3,4.1,0.4c-0.2,1.1-0.4,2.4-0.6,3.8c1.1-0.6,1.6-1.4,1.9-2.4c0.4-1.1,0.6-2.3,0.7-3.5c0-0.5-0.6-1-0.9-1.5
			c1.6,0,3.2-0.2,4.7-0.1c1.8,0.2,3.4,0.3,3.3-2.3c0-0.4,0.7-1.1,1.1-1.1c2.7,0.3,6-1.7,7.6,2.1c1.3-0.6,2.5-1.2,3.6-1.7
			c-0.5,0.6-1.1,1.2-1.6,1.8c0.6,0.4,1.1,1,1.7,1.1c1.3,0.3,2.7,0.4,4.5,0.6c-0.3-1-0.5-1.7-0.8-2.4c1.4,2.3,3.5,2.9,6,2.6l0,0.1
			c1.6,0.3,3.2,0.6,5,1c0-0.1,0.1-0.7,0.3-1.6c1.1,0.9,1.9,1.5,2.7,2.1l0.1-0.1c-1,0.3-2,0.6-2.8,0.8c1,1.5,1.9,2.9,2.9,4.4
			c0.3-0.2,0.6-0.4,0.9-0.5c-0.4-0.6-0.8-1.1-1-1.7c-0.1-0.2,0.4-0.5,0.6-0.8c0.5,0.1,1.1,0.2,1.6,0.3c0.7,1.2,1.3,2.5,2.1,3.9
			c-1.9,0.1-3.2,0.2-4.5,0.3c0,0.2,0,0.5,0.1,0.7c2.3-0.1,4.5-0.2,6.9-0.4c-0.6-0.5-1-0.9-1.6-1.5c1.5-0.2,2.7-0.3,3.8-0.4
			c0.5,0.7,0.9,1.3,1.6,2.2c0.6-1.1,0.9-1.8,1.2-2.4C94.5-8,95-7.6,95.6-7c-0.5-2.7,1.3-1,2.5-1.3c-3.4-0.2-5.2-2.1-5-4.9
			c0.3-4,4.2-2.4,6.6-3.4c-1-0.8-1.8-1.6-2.6-2.3c1.3,0.1,2.2,1.1,3.2,1.2c1.7,0.2,3.5,3.3,4.9-0.1c0.7,2.6,1.4,5.2,2.1,7.8
			c0.2-0.2,0.5-0.4,0.7-0.7c1.3,0.1,2.6,0.2,4.5,0.3c-1.1-0.8-1.6-1.4-2.3-1.8c-2.6-1.6-2.6-1.9,0.2-3.6c-1.4,1-1.1,1.9,0.1,2.8
			c1.2,0.9,2.5,1.7,3.9,2.6c-0.1-0.6-0.2-1.2-0.4-1.7c2,0,3.9,0,5.7,0c0.5,0,1-0.3,1.4-0.5c0.6-0.4,1.1-1.2,1.7-1.2
			c1.9-0.1,3.9,0.1,5.8,0.2c0.2-0.7,0.4-1.5,0.7-2.5c-4.1-1.9-8-3.7-12.7-3.1c-1.3,0.2-3.3,0.7-3.8-1.7c-0.7-0.3-1.3-0.5-2-0.8
			c0.2-1.5,0.5-3,0.7-4.5c-1.9-0.2-3.8-0.5-6.1-0.7c0.4-0.9,0.8-2.1,1.5-3.1c0.1-0.1,1.6,0.6,2.4,1c0.5,0.2,1.2,0.8,1.6,0.7
			c3-1.1,4.8,1.2,7,2.4c-1.1,0.7-2.2,1.4-3.5,2.1c1.9,1,3.5,1.9,5.4,2.9c-0.2-0.6-0.4-1.1-0.6-1.9c3.1,0.9,6.4-2.9,8.8,1.3
			c0.4-0.5,0.5-1.1,0.8-1.1c4.1-1,8.1-1.8,12.3-0.7c0.9,0.2,1.8,0.6,2.6,1c0.7,0.3,1.2,0.9,1.8,1.3c-0.1,0.2-0.3,0.3-0.4,0.5
			c-2.2-0.5-4.4-1-7.1-1.6c-2.3-1.7-4.6,1.2-7.5,1.3c1.3,0.9,2.4,1.6,3.8,2.4c-0.9,0.3-1.5,0.5-1.7,0.6c1.2,2.2,3,2.4,5.6,2.1
			c3-0.4,4.1-1.3,3.1-4.6c2.9,2.4,5.3,4.6,8.2,7.1c-0.4-1.8-0.6-3-0.9-4.7c1.1,0.7,1.5,0.9,1.9,1.2c1.6,1,3.1,1.9,4.7,2.9
			c0.3-1.7,0.5-3.3,0.7-4.7c-1.5-0.5-2.6-0.9-3.7-1.3c0.1-0.3,0.2-0.7,0.4-1c0.8,0.3,1.6,0.6,2.5,0.9c0.2-3.8,3.6-4.1,6-5.7
			c-0.4-0.7-0.8-1.5-1.2-2.2c1.4,0.4,3.1,1,3.3,2c0.9,4.5,0.5,9-1.5,13.3c2.6-0.9,5-1.8,7.4-2.6c-0.4-0.8-1-1.8-1.8-3.3
			c1.9,0.7,3.6,0.8,4.1,1.6c0.9,1.8,2,1.5,3.4,1.1c0.1,0,0.3-0.1,0.6-0.2c-1-0.3-1.6-0.6-2.2-0.8c0-0.3,0-0.5-0.1-0.8
			c1.2-0.3,2.5-0.5,4.6-1c-0.6-2.5-1.2-5.1-1.8-7.6c0.2-0.2,1.1-0.6,1.3-1.3c0.3-0.8,0-1.8,0-2.7c0.7,1.3,1.3,2.6,2.1,4
			c3.7,0.3,7.6,0.5,12.1,0.9c-1.8,1.3-2.9,2.7-4.2,2.9c-1.6,0.3-3.3-0.3-5-0.5c0,0.4-0.1,0.7-0.1,1.1c1.4,0.2,2.9,0.4,4.3,0.5
			c0,0.3-0.1,0.5-0.1,0.8c-2.5-0.2-5-0.5-7.6-0.7c0,1.8,0,3.4,0,4.2c1.5,0.1,2.9-0.1,3.9,0.4c5,3.1,10.6,4,16.2,5
			c1.1,0.2,2.2-0.1,3.3-0.2c0-0.3,0.1-0.6,0.1-0.9c-5-1.2-10.1-2.3-15.1-3.5c6.7-1,13.2-1.5,19.7-2c0.9-0.1,1.8-0.7,2.3-0.9
			c1,0.3,1.8,0.7,2.6,0.7c2-0.1,3.9-0.4,5.9-0.5c3.6-0.3,3.6-0.8,3-4.5c-0.3-2,0.9-4.3,1.9-6.3c0.5-1,2-1.6,3.1-2.5
			c-3.9-2.2-7.5-3-10.9-1.7c-1.7-0.4-2.9-0.6-4.1-0.9c-0.1,0.1-0.2,0.1-0.4,0.2c-2-0.5-3.8-0.5-4.6,1.3c-2.8-0.7-5.6-2.2-8-1.8
			c-5,0.9-9-0.1-11.8-3.2c-1,1-2.2,2.7-2.7,2.5c-3.1-1-3.9,1.4-4.9,2.7c-1.7-0.8-3.4-1.6-5-2.4c-0.2,0.3-0.4,0.7-0.6,1
			c1.6,1.4,3.2,2.9,4.8,4.3c-1.2-0.3-2.3-0.6-3.5-0.9c-1.2-1.6-2.2-3-4.8-2.3c-1.3,0.3-3-1.1-4.5-1.5c-2.6-0.6-5.2-1.1-7.8-1.6
			c-0.3-0.1-0.6,0-0.9,0c-2.2,0-4.3,0-6.4,0c0.1,0.3,0.2,0.7,0.4,1.6c-1.5-1.1-2.5-1.8-3-2.2c-1.7,0.5-3.1,1.5-3.9,1.2
			c-2.4-0.9-4.5-1.4-7.2-1c-3.4,0.4-7-0.2-10.5-0.3c-1.6,0-3.2,0.5-4.8,0.3c-2.6-0.3-5.1-1.1-7.6-1.6c-0.5-0.1-1,0.5-1.6,0.8
			c3.1,0.1,2.2,4.7,5.5,4.3c2.4-0.2,4.9,0.3,7.4,0.6c0-0.1,0-0.2,0.1-0.3c-0.5-0.2-1.1-0.4-2-0.8c2.5-1.5,3.8-0.7,4.5,1.1
			c2.5,0,4.8,0,7.1,0c-0.6,0.6-1.2,1.7-1.8,1.6c-6-0.5-11.9-1.1-17.8-1.8c-0.4,0-1-0.5-1.1-0.8c-0.6-3-3.1-2.7-5.1-2.7
			c-3,0.1-6,0.1-8.8-0.9c-0.5-0.2-0.8-0.8-0.7-0.7c-1.7,0.1-3,0.6-4.1,0.2c-1.2-0.4-2.3-1.4-3.4-2.2c0.1-0.2,0.2-0.4,0.3-0.7
			c-0.9,0-1.7-0.1-2-0.1c0.9,1.6,1.8,3.2,2.7,4.9c0,0.5,0,0.9,0,1.4c-0.5,0.7-0.9,1.4-1.5,2.3c1.9,0.2,3.6,0,5,0.7
			c2.2,1,3.9,0.8,5.6-0.7l-0.1,0c1.2,0.4,2.4,0.7,3.4,1c-0.1,1.1-0.2,2-0.2,2.9c-1.9-2.7-4.3-2.2-6.8-0.9c2.3,0.3,4.5,0.6,6.8,0.9
			c0.3,0.6,0.5,1.1,0.9,2c-4.5,0.8-8.7,1.5-12.7,2.2c-0.5-1.9-1-3.6-1.2-4.4c-2.5-1.5-4.4-2.7-6.4-3.9c0.2-0.5,0.3-1.2,0.5-1.9
			c-1.7,0-3.1,0-4.9,0c1.3,0.6,2.2,0.9,3.1,1.3c-0.9,0.8-1.7,1.1-2.6,1.2c-2.7,0.2-5.3,0.2-8,0.5c-0.4,0-0.6,1.2-1.1,1.7
			c-0.4,0.5-1,1.2-1.5,1.3c-0.4,0.1-1-0.6-0.8-0.5c0.6-1.1,1.2-1.6,1.2-2.3c0.1-0.9-0.3-1.9-0.2-2.7c0.4-2.2-1-3.3-2.6-2.7
			c-4.5,1.8-10.2-2.3-13.8,3.2c-0.1,0.1-0.4-0.1-0.6,0c-2.3,0.9-4.6,1.8-7.1,2.8c-0.3-0.3-1.1-0.9-1.9-1.4c-0.4-0.2-1.1,0-1.7,0
			c0.3-0.6,0.6-1.1,1-2c-2-0.2-3.7-0.6-5.5-0.6c-0.6,0-1.8,0.4-1.9,0.8c-0.4,2.4-2.2,2-3.8,2c-3.3,0-6.5,0-9.8,0.2
			c-1.1,0.1-2.1,0.7-0.9,2.1c0,0-0.2,0.3-0.3,0.5c-0.7,0-1.5,0-1.7,0c-0.2-0.9-0.2-1.7-0.5-2c-1.1-1-2.4-1.7-3.6-2.5l0.2,0l-0.1,0.1
			c0.3,0.8,0.5,1.7,0.8,2.5c-0.6-0.1-1.5-0.6-2.1-0.3c-3.7,2-5.3-0.7-7.1-3c-0.4-0.6-1.1-1.1-1.8-1.3c-2.7-0.8-5.5-1.9-8.3-2
			c-4.4-0.2-9.1-0.4-13.2,0.9c-2.8,0.9-5,3.6-8.6,3.1c-1.9-0.3-3.8,0-5,0c-1.3,0.3-2,0.6-2.7,0.5c-0.4,0-0.8-0.5-1.4-1
			c0.7-0.2,1.1-0.3,1.4-0.3c-1.6-2.2-3.3-1.3-5,0c-0.9,0.7-1.7,1.6-2.6,2.1c-0.7,0.4-1.6,0.3-2.5,0.3c-0.1,0-0.2-1-0.3-1.5
			c-1.3,0.1-2.7,0.3-4.1,0.4c0.1,0.6,0.3,1.2,0.4,1.8c-1.4-0.2-2.7-0.3-4.3-0.5c0.6-1.1,1.1-2,1.8-3.3c-1.2-0.1-2.1-0.3-2.8,0
			c-0.4,0.1-0.6,1.1-0.6,1.7c0,0.3,0.5,0.7,0.8,1c-0.5,0.2-0.9,0.6-1.5,0.7c-2.4,0.5-4.9,0.9-7.4,1.3c0.3,0.7,0.4,1.1,0.6,1.5
			c-0.6-0.2-1.2-0.3-1.7-0.6c-1.8-1-3.5-2.9-5.4-3c-5.4-0.2-10.7,0.3-16.1,0.5c-0.4,0-0.8,0.6-1.2,1c0.5,0.3,1,0.8,1.5,0.9
			c1.1,0.2,2.2,0.1,3.3,0.2c0.1,0.4,0.1,0.9,0.2,1.3c-1.4,0.3-2.8,1-4.1,0.8c-0.9-0.1-1.7-1.3-2.9-2.3c-0.3,0.5-0.7,1.3-0.9,1.8
			c-3.9-0.2-7.8-0.2-11.6-0.6c-2-0.2-2.9,0.1-2.8,1.6c-3.2,0-6.2,0-8.8,0c-2.3-3.2-5-0.8-7.3-0.7c1.3,0.1,2.6,0.2,4.2,0.2
			c-1.3,4.1,1.5,1.8,3.2,1.9c-0.9,3-3.8,1.3-5.1,2.5c0,0.6-0.1,1.7-0.1,1.7c-2.6,0-5.2,0-7.7-0.1c0,0-0.1-0.3-0.1-0.7
			c0.8-0.1,1.6-0.2,2.4-0.3c0-0.2,0-0.4,0.1-0.7c-3.8-0.6-7.6-1.2-12-1.9c1.2-0.7,1.7-1,2.4-1.4c-2.6-3.4-3.6,0.3-6,0.9
			c2,1.1,3.5,1.9,5,2.7c0.7,0.4,1.5,0.7,2.3,1c-0.4,0.4-0.8,0.8-1.2,1.2c-0.2,0.2-0.5,0.5-0.7,0.7c-0.4-0.7-0.8-1.4-1.2-2.1
			c-3.1,1.3-3.1,1.3-4.2,0.5l0.1,0.1c-1.6-2.4-4.1-2.9-6.8-2.8c-1.2,0-2.7-0.3-3.6,0.3c-2.3,1.4-2.3,3.6-1,5.7
			c-1.5-0.5-2.9-0.9-4.3-1.4c0.2-1,0.8-2.9,0.7-2.9c-1.7-0.6-3.5-1-5.2-1.5c0,0.2,0,0.5,0,0.7c1.4,1.2,2.8,2.3,4.2,3.5
			c-1.9,0.1-3.9,0.4-5.1-1.7c0-0.1-0.1-0.2-0.1-0.3c-2.7-0.9-5.4-1.9-8.1-2.8c-0.1,0.3-0.2,0.6-0.3,0.9c1.2,1.7,6.1-0.8,4.6,4.2
			c-2.5-0.6-4.9-1.1-7.9-1.7c1.2,2.7,4.8,3.7,3.2,7.3C-167.9-14.4-170.2-14.5-172.3-14.7L-172.3-14.7z"/>
		<path d="M159.7,82.7c-0.8,0.7-1.8,2.2-2.4,2.1c-3.5-1.1-4,2-6,4c2.2,0.7,4,1.3,5.8,1.8c0.1-0.3,0.2-0.5,0.3-0.8
			c-1.3-0.7-2.6-1.4-3.9-2c1.2-0.2,2.3-0.5,3.4-0.7c1.1-0.2,2.1-0.4,3.2-0.4c1.5-0.1,3,0,4.5,0c0.1-0.4,0.1-0.9,0.2-1.3
			c-1.1-0.7-1.6-2.4-3.7-1.3C160.9,84.1,160.2,83.1,159.7,82.7c2.5,0.5,5.1,1,7.9,1.5c0.1-0.4,0.3-1.4,0.6-2.5
			c1.2,0.5,2.2,0.9,3.7,1.5c-0.6-1.1-1-1.6-1.7-2.8c2.7,0,4.9,0,6.9,0c0.4-1.2,0.9-2.3,1.4-3.6c1.4,0.9,2.6,1.7,3.9,2.5
			c0.3-0.2,0.5-0.4,0.8-0.6c-0.9-1.3-1.4-3.1-2.6-3.7c-1.3-0.6-3.2-0.1-4.3-0.1c-0.4,1.6-0.6,2.8-0.9,4c-1.3-0.6-2.8-1.8-4.2-1.8
			c-3.8,0.1-7.5,0.8-11.2,1.4c-0.9,0.2-2.2,1.1-2.3,1.8C157.4,81.3,157.7,83,159.7,82.7z"/>
		<path d="M128.9,22c0.1,2.3,0.2,4.7,0.3,7c10-0.5,8.9,0.5,8.2-7.4C134.8,21.7,132,21.9,128.9,22z"/>
		<path d="M141.3,16.6c1.7-1,1.5-2.6,0.9-4.6c-0.4-1.3-0.7-2.8-0.9-4.2c-0.2-1.4-0.2-2.9-0.3-4.6c-2.3,0.1-4.3,0.2-6.5,0.4
			c0,2.1-0.2,4,0.1,5.8c0.1,0.6,1.7,1.7,2.1,1.5c1.9-0.9,3.5-0.6,4.3,1.1C141.5,13.3,141.2,15,141.3,16.6z"/>
		<path d="M106.7,5.4c-7.7-0.4-7.4,0-6.5,7c2.1-0.1,4.2-0.3,6.5-0.4C106.7,9.8,106.7,7.7,106.7,5.4z"/>
		<path d="M110.7,24.3c0-0.2,0.1-0.3,0.1-0.5c-2.5,0.1-5,0.3-7.2,0.4c0.4,0.4,1.3,0.8,1.4,1.4c0.5,2.6,0.6,5.3,1,7.9
			c0.1,0.6,0.6,1.1,0.8,1.6c0.5-0.4,0.9-0.8,1.2-1c1,0.5,2,0.9,3.2,1.5c0-2.5,0-4.3,0-5.5c-1.5,0.2-3,0.4-4.6,0.6
			c0.2-2.3,0.4-4,0.6-5.8C108.6,24.6,109.6,24.4,110.7,24.3z"/>
		<path d="M59.3,50c-3.2,0-6,0-9,0c-0.2,0.6-0.5,1.3-0.6,1.5c0.8,1,1.5,1.8,2.1,2.5c-0.8,0.2-1.7,0.3-2.5,0.5
			c-0.4,0.1-0.8,0.5-1.2,0.7c0.2,0.3,0.3,0.7,0.5,1c1.8-0.8,3.6-1.6,6-2.7c0.8-0.2,2.3-0.7,4.2-1.3c0.2,0.2,0.9,0.7,1.6,1.3
			c0.2-0.1,0.4-0.3,0.6-0.4C60.3,52,59.7,50.7,59.3,50z"/>
		<path d="M158.2,2.8c0,2-0.1,3.9,0.1,5.7c0,0.5,1,1.4,1.4,1.3c0.7-0.1,1.7-0.8,1.8-1.3c0.2-2,0.1-4,0.1-6.2
			C160,2.6,159.2,2.7,158.2,2.8z"/>
		<path d="M47.4,53.3c-0.4-1.1-0.8-2.1-1.2-3.3c-2.7,0.6-5.3,1.2-7.8,1.8c0.1,0.2,0.2,0.4,0.2,0.6c1.1,0.4,2.2,0.8,3.3,1.2
			c-1,1.3-1.7,2.2-2.8,3.5c1.8-0.3,2.9-0.5,4.1-0.7c-0.4-1.3-0.8-2.4-1.4-4.3C43.9,52.5,45.5,52.8,47.4,53.3z"/>
		<path d="M70.9,18.9c0.4,0.3,0.7,0.6,1.1,0.8c3.1-3.3,6.3-6.6,9.4-10c-0.2-0.2-0.4-0.4-0.6-0.6C77.4,12.4,71.8,13.2,70.9,18.9z"/>
		<path d="M162.2,5.5C162.2,5.5,162.2,5.5,162.2,5.5c0,0.8-0.1,1.6,0.1,2.3c0.2,0.6,0.7,1.2,1.1,1.8c0.4-0.6,1-1.1,1-1.7
			c0.1-1.4,0.1-2.9-0.1-4.3c-0.1-0.5-0.7-0.9-1.1-1.3c-0.3,0.4-0.8,0.8-0.9,1.2C162,4.1,162.2,4.8,162.2,5.5z"/>
		<path d="M38.9,29.3c-0.3,0-0.5,0-0.8,0c0,3.2,0,6.4,0,9.9C40.9,35.7,39,32.4,38.9,29.3z"/>
		<path d="M56.7,21.3c-2.1,0.2-3.8,0.4-5.7,0.6c0.1,1,0.2,1.9,0.2,2.4c1.9-0.1,3.5-0.2,5.4-0.3C56.6,23.4,56.6,22.5,56.7,21.3z"/>
		<path d="M146.5,10.7c-1.2-2.3-2.3-4.5-3.4-6.5C141.7,6.3,142,6.8,146.5,10.7z"/>
		<path d="M50.5,48c0-0.2-0.1-0.5-0.1-0.7c-2.8,0.1-5.6,0.3-8.4,0.4c0,0.4,0.1,0.7,0.1,1.1C44.9,48.6,47.7,48.3,50.5,48z"/>
		<path fill="#FFFFFF" d="M-119.3,68.6c1.9,0.9,3.9,1.9,5.8,2.8c0.1-0.2,0.2-0.4,0.3-0.6c-0.5-0.4-1-0.8-1.5-1.1c2-0.7,4-1.4,6-2
			c-0.1-0.4-0.2-0.9-0.3-1.3c-2.1,0.1-4.2,0.2-5.8,0.3c0.3-0.8,0.8-2.1,1.4-3.6c0.3,0.3,0.9,0.8,1.6,1.5c0.1-0.6,0.2-1.3,0.3-2
			c0.9,3.8,3.5,3.8,7,3.4c-0.8-0.6-1.2-1-1.6-1.3c2,0.2,4,0.3,6,0.8c0.8,0.2,1.4,1.2,2.1,1.8c-0.8,0.5-1.5,1.4-2.4,1.5
			c-0.7,0.1-1.5-0.6-2.3-0.9c-0.5,1.1-0.9,2-1.2,2.5c2.2,1.6,4.3,3.2,6.3,4.6c0.8,0.5,1.6,1,2.5,1.1c1.1,0.1,2.3-0.1,3.6-0.2
			c0.2-1.4-0.8-2-2.6-2.2c-1.7-0.2-3.3-0.8-5-1.3c1.6-1.6,3-2.9,4.8-4.7c-1.5,0-2.1,0-3.4,0c1.3-0.9,2.1-1.4,2.9-2
			c-0.6-0.9-1-1.6-1.6-2.5c5.4,0.2,5.4,0.2,8.9-2.7c-0.8-0.4-1.6-0.9-2.4-1.4c-0.1,3.1-2,2.8-4,2.8c-1.8,0-3.5,0.6-5.8,1
			c-0.8-0.8-5.2-0.9-6.8,0.5c-0.2,0.1-0.1,0.6-0.1,0.8c0-1.6-0.1-3.1-0.1-4.7l-0.2,0.2c1.1-0.1,2.1-0.1,3.2-0.2l-0.1-0.1
			c1.8,2.6,4.2,0.5,6.3,0.8c1.9,0.2,3.8-0.2,5.8-0.3c0-0.4-0.1-1.6,0-1.6c1.1-0.1,2.3-0.3,3.3,0c2.1,0.5,4.2,1.1,6.3,1.7
			c0.1-0.3,0.2-0.6,0.3-0.9c-1-0.7-2-1.3-3.1-2c1.6-1,3-1.8,4.5-2.7c0.1,0.9,0.3,1.7,0.4,2.6c-0.4,0.1-1,0.2-1.6,0.3
			c0,0.2-0.1,0.4-0.1,0.6c0.9,0.4,1.9,0.8,2.8,1.2c-0.1,0.5-0.2,1-0.3,2.1c-1,0.6-2.4,1.5-3.9,2.5c0.4-1,0.7-1.9,1.1-2.9
			c-0.2-0.3-0.4-0.5-0.6-0.8c-1.8,1-3.6,1.9-5.5,2.9c0.1,0.2,0.2,0.4,0.3,0.6c1.6,0,3.2,0,4.8,0c-0.2,0.6-0.4,1.1-0.5,1.7
			c-0.1,0.8-0.2,1.6-0.3,2.3c0.9,0,1.9,0.3,2.6-0.1c0.5-0.3,0.6-1.4,0.9-2.5c0.9,0,2.3,0,3.7,0c0.3,0,0.8-0.1,0.8-0.2
			c1.1-3,3.2-1.5,5.3-1.3c-1.5-1.1-3-2.3-4.5-3.4c-0.1,0.1-0.3,0.2-0.4,0.2c0.2,0.4,0.3,0.8,0.5,1.2c-0.2,0.2-0.3,0.4-0.5,0.5
			c-0.5-0.7-1.2-1.2-1.4-2c-0.2-1-0.1-2.2-0.1-3.3c1.7,1,3.7,2.3,5.9,3.6c-0.6,0.3-1,0.4-1.8,0.9c3.1,1.4,5.8,2.6,8.5,3.8
			c0.1-0.3,0.3-0.6,0.4-0.8c-0.4-0.3-0.8-0.6-1.5-1.1c1.9,0,3.5,0,5.1,0c0-0.1,0-0.3,0-0.4c-0.8-0.1-1.7-0.1-2.8-0.2
			c1.6-2.9,3.4-0.3,5-0.3c2.1,0,4.2,0.9,6.3,1.4c0.1-0.3,0.1-0.6,0.2-0.8c-1.1-0.1-2.3-0.2-3.4-0.3c0-0.1,0-0.3-0.1-0.4
			c1-0.1,2-0.1,3-0.2c0-0.1,0-0.2,0-0.3c-1.5,0-3,0-4.5,0c0-0.2,0-0.3-0.1-0.5c0.7-0.1,1.3-0.2,2.9-0.5c-2.6-1.5-4.5-2.6-6.4-3.7
			c0.1-0.1,0.1-0.1,0.2-0.2c3.7,1.1,7.3,2.3,11,3.4c0,0-0.4,0.2-1,0.6c1.1,0.3,1.9,0.6,2.9,0.9c0.2-1.2,0.4-2.3,0.6-3.6
			c-0.8-0.1-1.7-0.2-2.6-0.3c0-0.1,0-0.3,0.1-0.4c2.6,0.1,5.1,0.3,7.8,0.4c-0.5-1.3-0.7-2.1-1.1-3c3.7,0.8,7.1,1.5,10.7,2.2
			c0.1-1.4,0.2-2.4,0.3-4c2.8,3.5,5.6,2.9,8.6,1.2c0.5-0.3,1.6,0.2,2.4,0.5c0.7,0.3,1.2,0.9,2.1,1.6c0-1.2,0-1.9,0-3.6
			c1.8,4.1,3.5,1.3,4.5,1.8c1.1,0.7,2.2,1.3,3.1,2.2c0.7,0.7,1.2,1.6,2.2,3c1.3-0.6,3.3-1.4,5.3-2.2c0,0,0,0.2,0,0.2
			c1.5,0.2,3,0.8,4.5,0.6c5.3-0.6,10.5-1.4,15.7-2c1.4-0.2,3.4,0.9,4.2,0.2c3.2-2.5,6.5-1.3,9.8-1.1c0.8,0,1.7-0.3,2.6-0.4l-0.1,0.1
			c0.9,0.3,1.8,0.5,2.8,0.8c0,0.1,0,0.3,0,0.4c-0.6,0.1-1.2,0.1-2,0.2c0.4,0.6,0.8,1.1,0.8,1.2c-0.7,2.1-1.2,3.9-1.8,5.7
			c-1.6-0.9-4.3-0.2-4.7-3.2c-0.1-0.3-2-0.6-3-0.5c-3.1,0.3-6.2,0.8-9.3,1.2c-0.8,0.1-1.7-0.2-2.8-0.4c0.3,0.9,0.6,1.7,0.8,2.2
			c2.9,0,5.6,0,8.4,0c0,0.3,0.1,0.7,0.1,1c-3.8,0.9-7.8,1.4-11.5,2.7c-2.4,0.8-4.6,2.1-7.3,1.6c-0.3-0.1-0.9,1.3-1.2,1.7
			c-3.8,0.8-7.5,1.7-11.2,2.5c-0.3-0.9-0.4-2.5-0.9-2.6c-1.3-0.2-3.2-0.2-3.8,0.6c-1.5,2-3,0.8-4.6,0.7c-0.6-0.1-1.3-0.2-1.7,0
			c-1.3,0.7-2.3,1.4-3.3-0.5c-0.5-0.9-1.4-0.6-1.2,0.7c-1.2-0.1-2.6,0.2-3.4-0.3c-2.6-1.7-4.8-0.1-7.2,0.5c0.8,0.2,1.5,0.4,2.4,0.6
			c-3.8,4.1-8.2,2.1-12.8,0.7c0.6,1.3,0.8,1.7,1.2,2.4c-3,1.1-6.4-2.8-8.8,1.1c-0.9-0.8-1.8-1.5-2.6-2.2c-0.1,0.2-0.3,0.3-0.4,0.5
			c0.4,0.3,0.7,0.6,1.3,1.1c-1.5,0.8-2.8,1.6-3.6,2.1c-1.7-0.7-2.9-1.1-4.1-1.6c-0.1,0.2-0.1,0.3-0.2,0.5c0.8,0.9,1.6,1.9,2.9,3.4
			c-2.3,0-4.2,0-6.8,0c-0.2,0.3-0.8,1.2-1.8,2.5c-0.3-0.8-0.6-1.5-1-2.5c-0.1,0-0.9-0.2-1.7-0.4c-0.7,1-1.4,2-2.3,3.2
			c0.7,0.3,1.6,0.7,2.4,1.1c-2.9,1.8-4.7-0.4-6.8-1.6c-0.6-0.3-1.1-0.7-1.7-1c-0.2-3-2.2-3.5-5.8-1.4c1.5,2.5,3.6,2.3,5.9,1.3
			c0.6,0.8,1.3,1.5,1.8,2.4c0.5,0.8,0.7,1.6,1.1,2.5c-0.9,0.1-1.7,0.3-2.6,0.3c-0.7-0.1-1.4-0.5-2-0.7c-0.4,1.3-0.7,2.3-1,3.4
			c-0.3,0-0.6-0.1-0.8-0.1c-0.2-1.1-0.4-2.2-0.6-3.7c-0.7,1.4-1.3,2.4-1.6,3c-1.3-1.3-2.5-2.5-3.8-3.8c0.5-0.1,1-0.2,1.9-0.4
			c-2.2-1.7-4.1-3.3-6.1-4.8c-0.2,0.1-0.3,0.3-0.5,0.4c0.7,0.9,1.3,1.8,2.1,2.8c-0.5,1.7-1.1,3.7-1.9,6.3C-94.2,87-96,86-97.9,85
			c0.9,2.8,0.7,6.2,5.3,6.5c-0.2,0.4-0.3,0.8-0.5,1.2c-2.5,0.3-5,0.6-7.7,0.9c0.4-1.5,0.6-2.5,1.1-4.1c-2.5,1.7-4.4,3-6.7,4.5
			c0.4-1.6,0.7-2.8,0.9-4c-0.1,0-0.2-0.1-0.3-0.1c-0.3,0.4-0.6,0.9-0.9,1.3c-0.9-1.1-1.8-2.1-2.6-3.1c2.4-1.4,2.9-1.2,4.7,1.3
			c1.7-1.7,1.6-2.2-0.7-4.1c2.6-1,5.2-1.7,5.6,2.4c0,0.1,0.3,0.1,0.4,0.2c2.3-3.9-2.9-5.1-2.9-9c-4.4,0.3-8.7,0.5-12.9,0.8
			c0.3-1.3,0.7-2,2.3-1.8c2.4,0.3,4.8,0.1,7.6,0.1c-3.7-3.2-3.7-3.2-1-4.5c-1-3.6-2.1-4.4-5.4-3.7c1.1,0.3,2.1,0.6,3,0.9
			c0,0.1,0,0.3-0.1,0.4c-3,0.4-6,0.8-9.2,1.3c0.2,0.2,0.8,1.2,1.3,1.2c2.6-0.3,5.8,2.6,7.8-1.5c-0.4,1.3-0.7,2.7-1.2,4.6
			c-1.2-0.1-2.9-0.2-4.7-0.5c-0.4-0.1-0.7-0.7-1-1.1c-0.2,0.5-0.6,1.1-0.5,1.5c0.2,1.1,0.7,2.1,1,3.1c0.4,0.6,0.7,1.1,1.3,2
			c0.5,0.3,1.4,0.8,2.4,1.4c-0.6-0.1-1.3-0.3-1.9-0.4c-0.1,0.2-0.3,0.4-0.4,0.6c1,0.9,2.1,1.7,3.4,2.8c-0.5,0.4-1.1,1-1.3,1.2
			c-0.2,1.7-0.3,3.1-0.4,4.5c-0.3,0-0.5,0-0.8,0c-0.4-0.5-0.7-1-0.9-1.3c-1.4,0.7-2.6,1.4-4.3,2.4c0.2-2.5-1.2-4.9,2.4-5.9
			c1.1-0.3,2.7-1.9,0.2-3.3c-1-0.5-1.7-1.5-2.5-2.3c-1.4-0.6-2.8-1.2-5-2.1c2,0,3.3,0,5.3,0c-1.8-1.3-3-2.1-4.6-3.3
			c1.3,0,2.2,0,3.4,0c-1.2-1.4-2.2-2.4-3.3-3.7c-0.1,0.8-0.2,1.2-0.3,1.7c-0.2,1.4-0.2,2.9-0.5,4.3c-0.2,1-0.7,1.9-1.1,2.8
			c-1.6-1.6-3-3.6-4.9-4.7c-1.7-0.9-3.9-0.7-5.9-1c-0.1,0.4-0.2,0.7-0.3,1.1c1.5,0.7,3,1.3,4.5,2c-0.1,0.3-0.1,0.6-0.2,0.9
			c-2.3-0.4-4.6-0.8-7.6-1.4c1.8,1.4,3.1,2.3,4.9,3.7c-1.3,0.1-2,0.1-3,0.2c0.8,0.6,1.3,1,1.9,1.4c-4.5-2.8-9.2-0.1-13.7-0.6
			c0.1-1.3,0.2-2.7,0.4-4.1c0.7,0,1.8,0.1,2.8,0c0.5-0.1,1.3-0.4,1.3-0.8c0.1-0.6-0.2-1.3-0.6-1.7c-0.3-0.3-1.4-0.4-1.5-0.2
			c-1.2,2.3-3.1,0.7-4.6,0.9c-0.3,0-0.5,0.2-0.8,0.3c0.2,0.7,0.3,1.4,0.5,2.4c-2.4-1.9-3.1-2-6.3-1.1c1.5,0.7,2.7,1.7,3.9,1.7
			c2.3,0,3.9,0.8,5.1,2.6c-2,0.3-4,0.7-5.9,1c-0.5-2.9-0.5-2.9-3.3-2.8c1.8,3.5,1.8,3.5,3.4,2.5c0,0.9,0,1.8,0,2.9
			c-2.3-0.1-4.6-3.9-7.1-1.3c-1.1-1-2.2-2-3.3-2.9c0,0,0,0,0,0l0-0.1c-1.1,0.9-2,2.1-3.2,2.5c-1.6,0.5-3.4,0.5-5,0.3
			c-3.4-0.5-4.2-0.1-5.4,3.3c0.5,0.2,1,0.4,1.5,0.6c0.4,0.2,0.9,0.3,1.1,1c-2.5-0.8-5.1-1.7-7.7-2.6c0.5-0.4,1-0.8,1.4-1.2
			c-0.1-0.2-0.1-0.3-0.2-0.5c-1.2,0.5-2.3,0.9-3.8,1.5c-1.1-2.1-2.6-0.8-4.1,0.9c-0.7-1.4-1.2-2.3-1.7-3.3c0-1.3,0-2.6,0-4.6
			c1.3,0.9,1.8,1.4,2.4,1.8c1.3-0.7,2.5-1.3,4.2-2.3c-2.1-0.3-3.7-1-5-0.6c-1.4,0.4-2.5,1.8-3.8,2.8c0.8,1,1.5,1.9,2.3,2.9
			c-0.1,0.5-0.4,1.1-0.4,1.6c0,0.9,0.1,1.8,0.1,2.6c-1.7-0.7-3.1-1.1-4.2-1.9c-0.5-0.4-0.7-1.6-0.5-2.3c0.2-0.6,1.1-0.9,1.7-1.3
			c-0.2-0.2-0.4-0.5-0.6-0.7c-1.3,1.3-2.6,2.5-3.9,3.7c1.1,1.4,1.9,2.4,2.4,3.1c-1.7,0-3.5-0.5-4.8,0.1c-1.6,0.7-2.7,2.3-4.4,3.8
			c1.1,0.5,1.8,0.8,2.7,1.2c-1.7,1.2-3.4,2.4-5.2,3.7c-0.1-0.2-0.2-0.7-0.4-1.4c-0.7,0.3-1.4,0.6-2.1,0.9c-0.1-1.3-0.2-2.4-0.3-3.5
			c-0.2,0-0.3,0-0.5,0c-0.1,0.7-0.3,1.5-0.5,2.8c-1.1-0.9-1.9-1.5-3-2.4c-0.3,2.4-4,2.7-2.9,6.1c0.3,1.1-1.8,2-3.4,1
			c-1-0.6-1.8-1.4-3-2.3c-0.2,2.7-1.3,4.1-4.1,4.4c-1,0.1-1.7,2.1-2.7,3.4c-0.4-0.1-1.1-0.3-1.8-0.5c-0.6,3.9-2.3,5.4-6.5,5.8
			c-0.3-0.8-0.8-1.7-1-2.6c-0.3-0.9-0.4-1.9-1.1-3c-0.4,2.1-0.8,4.1-1.4,6.9c-1.2-2-2-3.3-2.9-4.7c-0.7,1.4-1.3,2.5-1.9,3.7
			c-0.2,0-0.5-0.1-0.7-0.1c-0.1-1.1-0.1-2.2-0.2-3.7c-1.6,0.5-2.5,5-5.3,1.2c0.9-0.1,1.5-0.2,2.7-0.3c-0.7-0.5-1.1-0.9-1.3-0.9
			c-1,0.3-2.7,0.7-2.8,1.2c-0.5,2.7-2.7,2.7-4.1,3.4c-0.8-1.5-1.4-2.6-2.1-3.9c-2,1.9-3.1,4.2-5.9,3.2c-0.1,0-0.6,0.9-0.8,1.4
			c-0.2,0.4-0.4,0.9-0.6,1.3c-0.3-0.3-0.7-0.7-1.1-1c-0.6-0.4-1.4-0.7-2-1.1c0-1.6,0-3.2,0-4.7c0.5,0.4,1,0.8,1.6,1.1
			c0.7,0.4,1.4,1,2,0.8c0.4-0.1,1.1-1.4,0.9-1.7c-0.4-0.7-1.3-1.3-2.1-1.5c-0.8-0.2-1.6,0.1-2.5,0.1c0-10.6,0-21.3,0-31.9
			c0.7,0.3,1.3,0.5,2,0.8c1.2,0.5,2.7,0.4,4.2,0.5c2,0.2,2.5-1,2.6-2c-2.3-0.2-4.4-0.4-6.8-0.6c0.6-0.9,0.8-1.1,1-1.4
			c-0.1-0.1-0.3-0.2-0.4-0.4c-0.8,0.6-1.7,1.2-2.5,1.9c0-4.5,0-9.1,0-13.6c2.4-0.2,4.8-0.5,7.2-0.7c0.5,0.8,1,1.6,1.4,2.2
			c-1.3,0.6-2.3,1.1-3.3,1.6c0.1,0.3,0.2,0.7,0.3,1c3.4-0.8,6.8-1.5,10.1-2.3c0.1,0.4,0.2,0.6,0.1,0.8c-0.4,1.1-0.7,2.2-1.1,3.3
			c1.2-0.1,2.4-0.3,3.6-0.4c2.8-0.3,5.7-0.4,8.5-0.8c2.8-0.5,5.6-1.4,8.4-1.9c1.6-0.3,3.2-0.1,4.8-0.2c5.4-0.1,10.9-0.3,16.3-0.4
			c0.1,0,0.1-0.1,0.4-0.5c-2.8,0-5.4,0-8,0c0-0.1,0-0.2-0.1-0.2c2-0.3,4.1-0.7,6.1-1c0-0.3,0-0.6,0-0.9c-1,0-2-0.2-2.9-0.1
			c-5.5,0.5-11.3,0.2-16.6,1.7c-6.1,1.7-11.5-0.5-17.3-0.8c-1.3-0.1-2.6-1.4-3.9-2.1c1.3-0.6,2.6-1.3,4-1.6c0.9-0.2,1.9,0.4,2.9,0.4
			c2,0,4.1-0.1,6.1-0.1c0-0.5-0.1-0.9-0.1-1.4c-1.5,0.2-2.9,0.4-4.4,0.7c4.4-3.9,9.7-1.8,14.6-2.2c-2.8,0.5-5.6,0.9-8.4,1.4
			c0,0.3,0,0.6,0,0.8c0.5,0.4,1,0.8,1.6,1.2c-1.1,0.3-2.2,0.5-3.7,0.9c4.4,1.8,6.7,1.1,9.6-1.8c0.7-0.8,2.3-1,3.4-1
			c3.5,0.2,7,0.7,10.5,1c0.4,0,0.7,0.2,1.1,0.9c-3.4,0.2-6.8,0.4-10.2,0.5c0,0.2,0,0.3,0,0.5c6.4,0,12.8,0,19.2,0c0-0.2,0-0.4,0-0.6
			c-1.9-0.2-3.8-0.4-5.9-0.6c2.4-3.5,5.7-2.2,8.4-2.3c5.8-0.1,11.5,0.4,17.3,0.6c0.7,0,1.3,0.3,2.6,0.5c-0.8,0.4-1.2,0.5-1.7,0.7
			c7.3,2.7,7.3,2.7,11.1,2.1c-2.4-0.7-4.2-1.3-6.1-1.9c0-0.3,0-0.6,0-0.8c3.3-0.2,6.6-0.5,9.9-0.5c0.4,0,0.8,1.2,1.4,2.1
			c0.5-0.1,1.3-0.3,2.3-0.6c0.1,1,0.2,1.7,0.3,2.4c3,0,5.9,0,9.5,0c-1.5-0.5-2.5-0.8-3.8-1.2c1.9-1.4,3.5-1.3,5.2-0.3
			c-0.9,1.1-0.7,1.6,0.8,1.7c0.6,0.1,1.2,0.9,1.8,1.3c-4.4-1.5-7.3,2.3-11.1,2.8c0.1,0.3,0.1,0.6,0.2,0.8c1.4-0.3,2.8-0.5,4.3-0.8
			c0.1,0.2,0.1,0.4,0.2,0.6c-1.8,0.6-3.5,1.1-5.3,1.7c0.1,0.1,0.1,0.3,0.2,0.4c2.5,0,5,0,7.5,0c0-0.2,0-0.4,0-0.6
			c-0.8-0.1-1.5-0.1-2.7-0.2c2-1.5,2.6-4.3,5.7-3.7c0.2,0,0.6-0.8,1-1.2c3.3,0.5,6.6,3.1,10.5,0.6c-3-0.6-5.6-1.1-8.3-1.6
			c0.1-1.4-0.4-2.3-2.4-1.6c-0.7,0.2-1.6-0.2-2.4-0.3c2.9-1.8,5.5-0.1,8.6,1.7c-0.5-1.4-0.8-2-1.1-2.7c1.2,0.2,2.2,0.4,3.3,0.7
			c-0.2,0.2-0.5,0.5-1.2,1.2c1.7,0.2,3.1,0.3,4.6,0.4c1.8,2.6,2.6,2.9,5.9,1c-2.2-0.3-4.8,0.3-4.5-3c3.3-0.2,6.6-0.5,10-0.6
			c0.8,0,2.2-0.4,1.7,1.3c1.4,0.3,2.9,0.5,4.3,0.8l-0.1-0.1c-1.7,1.5-3.5,3-5.4,4.5c0.6,0.2,1.3,0.5,2.3,0.9
			c-1.6,0.5-2.9,0.9-4.3,1.4c2.2,4,6.2-0.4,8.8,1.9c-0.1-0.6-0.1-1.2-0.2-2.1c3.1,0.7,6.1,1.3,9.1,2c-3,0.9-6,1.7-9,2.6
			c0.1,0.3,0.2,0.6,0.2,1c3.3-0.7,6.6-1.4,10.1-2.1C-118.7,69.4-119,69-119.3,68.6z"/>
		<path fill="#FFFFFF" d="M92-35.7c-0.9-1.7-1.8-3.3-2.7-4.9c0.3,0,1.1,0.1,2,0.1c-0.1,0.2-0.2,0.4-0.3,0.7c1.1,0.8,2.2,1.8,3.4,2.2
			c1.1,0.3,2.5-0.1,4.1-0.2c-0.1-0.1,0.2,0.5,0.7,0.7c2.9,0.9,5.8,1,8.8,0.9c2-0.1,4.5-0.3,5.1,2.7c0.1,0.3,0.7,0.8,1.1,0.8
			c5.9,0.7,11.9,1.3,17.8,1.8c0.5,0,1.2-1.1,1.8-1.6c0.2,0.1,0.3,0.1,0.5,0.2c0.8,0.7,1.5,2,2.3,2c5.5,0.1,11.1,0.1,16.6,0
			c2.2,0,4.4-0.3,6.6-0.5l-0.1,0.1c2.9,0.2,5.7,0.7,8.6,0.7c1.9,0,3.8-0.5,5.7-0.8l-0.1,0.1c1.2,0.3,2.3,0.6,3.5,0.9
			c0,0-0.1-0.1-0.1-0.1c0,0.9,0.3,1.9,0,2.7c-0.2,0.7-1.1,1.1-1.3,1.3c0.6,2.5,1.2,5.1,1.8,7.6c-2.1,0.4-3.3,0.7-4.6,1
			c0,0.3,0,0.5,0.1,0.8c0.6,0.2,1.2,0.4,2.2,0.8c-0.3,0.1-0.4,0.2-0.6,0.2c-1.4,0.3-2.5,0.6-3.4-1.1c-0.4-0.8-2.2-0.9-4.1-1.6
			c0.8,1.5,1.3,2.5,1.8,3.3c-2.3,0.8-4.7,1.7-7.4,2.6c2.1-4.3,2.5-8.8,1.5-13.3c-0.2-0.9-1.9-1.6-3.3-2c0.4,0.7,0.8,1.4,1.2,2.2
			c-2.4,1.6-5.8,1.9-6,5.7c-0.9-0.3-1.7-0.6-2.5-0.9c-0.1,0.3-0.2,0.7-0.4,1c1.1,0.4,2.2,0.8,3.7,1.3c-0.2,1.4-0.5,3-0.7,4.7
			c-1.6-1-3.1-1.9-4.7-2.9c-0.4-0.3-0.8-0.5-1.9-1.2c0.3,1.7,0.6,2.9,0.9,4.7c-2.9-2.5-5.4-4.6-8.2-7.1c0.9,3.3-0.1,4.2-3.1,4.6
			c-2.6,0.3-4.4,0.1-5.6-2.1c0.2-0.1,0.9-0.3,1.7-0.6c-1.3-0.9-2.4-1.6-3.8-2.4c2.9-0.1,5.2-3,7.5-1.3c2.8,0.6,4.9,1.1,7.1,1.6
			c0.1-0.2,0.3-0.3,0.4-0.5c-0.6-0.4-1.2-1-1.8-1.3c-0.8-0.4-1.7-0.8-2.6-1c-4.2-1.1-8.3-0.3-12.3,0.7c-0.3,0.1-0.4,0.6-0.8,1.1
			c-2.4-4.2-5.7-0.4-8.8-1.3c0.2,0.7,0.4,1.2,0.6,1.9c-1.9-1-3.5-1.9-5.4-2.9c1.3-0.8,2.4-1.5,3.5-2.1c-2.2-1.2-4-3.5-7-2.4
			c-0.4,0.1-1-0.5-1.6-0.7c-0.8-0.4-2.3-1.1-2.4-1c-0.7,1-1.1,2.2-1.5,3.1c2.4,0.3,4.3,0.5,6.1,0.7c-0.2,1.5-0.5,3-0.7,4.5
			c0-0.9-0.1-1.7-0.1-2.8c-2.1,0-3.9,0-6,0c1.5,1,2.8,1.9,4,2.7c-1.2,0.7-2.2,1.3-2.9,1.8c-0.3-0.6-0.4-1.3-0.8-1.5
			c-1.2-0.7-3.5-0.2-5.4,0c-1.8,0.2-3.7-0.3-5.5-0.5c-3.4-0.4-6.7-0.5-9.7,1.9c1.7,0,3.3,0,5.4,0c-0.8,0.6-1.2,0.9-1.8,1.3
			c0.7,0.4,1.3,0.6,1.9,1c-0.6,0.3-0.9,0.5-1.3,0.7c0.1,0.3,0.3,0.5,0.4,0.8c1.3-0.6,2.6-1.2,4.2-2c-1.3-0.7-2-1.1-2.8-1.5
			c0.1-0.2,0.1-0.5,0.2-0.7c2.1,0,4.2,0,6.3,0c1.3,0,3.6-0.2,3.9,0.5c1,2.2,2.6,1.3,4,1.4c1.5,0.1,3-0.2,4.4-0.3
			c0.4,1.2,0.7,2.1,1,3l-0.1,0.1c-2.8,1.7-2.8,2-0.2,3.6c0.7,0.4,1.2,1,2.3,1.8c-2-0.1-3.3-0.2-4.5-0.3c-0.2,0.2-0.5,0.4-0.7,0.7
			c-0.7-2.6-1.4-5.2-2.1-7.8c-1.4,3.4-3.3,0.3-4.9,0.1c-1-0.1-1.9-1.1-3.2-1.2c0.8,0.7,1.6,1.4,2.6,2.3c-2.4,1-6.3-0.5-6.6,3.4
			c-0.2,2.9,1.6,4.7,5,4.9c-1.2,0.3-3-1.3-2.5,1.3C95-7.6,94.5-8,94-8.4c-0.3,0.7-0.6,1.3-1.2,2.4c-0.6-0.9-1.1-1.6-1.6-2.2
			c-1,0.1-2.2,0.2-3.8,0.4c0.6,0.5,1,0.9,1.6,1.5c-2.3,0.1-4.6,0.2-6.9,0.4c0-0.2,0-0.5-0.1-0.7c1.3-0.1,2.7-0.2,4.5-0.3
			c-0.8-1.4-1.4-2.7-2.1-3.9c1.7,0.3,3.5,0.6,5.2,0.9c0.1-0.3,0.1-0.7,0.2-1c-1.3-0.4-2.6-0.7-4.4-1.2c1-0.6,1.4-0.8,2.1-1.2
			c-1.8-1.2-3.5-2.3-5.1-3.5c-0.2,0.1-0.5,0.2-0.7,0.4c0.5,0.9,1.1,1.9,1.6,2.9c-0.4,0.1-0.8,0.2-1.1,0.3c-0.8-0.6-1.6-1.3-2.7-2.1
			c-0.2,0.9-0.2,1.5-0.3,1.6c-1.8-0.3-3.4-0.7-5-1c1-1.7,1.1-3.5-0.3-4.8c-0.7-0.7-2.3-0.4-3.4-0.6c0,0.3-0.1,0.5-0.1,0.8
			c0.9,0.2,1.9,0.3,2.4,0.4c0.5,1.6,1,2.8,1.4,4.1c-2.5,0.2-4.6-0.3-6-2.6c-1.3-0.4-2.6-0.8-3.9-1.1c-1.1,0.5-2.3,1.1-3.6,1.7
			c-1.6-3.8-4.9-1.8-7.6-2.1c-0.3,0-1.1,0.7-1.1,1.1c0.1,2.6-1.5,2.5-3.3,2.3c-1.6-0.1-3.1,0-4.7,0.1c-1,0.3-2,0.5-3.1,0.8
			c-0.5,0.2-0.9,0.4-1.4,0.5c-1.5,0.4-3.2,1.4-4.5,1c-0.9-0.3-1.1-2.5-1.7-4c0.4-0.1,1-0.3,1.6-0.5c0-0.2-0.1-0.5-0.1-0.7
			c-3.3,0.3-6.7,0.7-10,1c0,0.3-0.1,0.6-0.1,0.9c1.5,0.3,3.1,0.8,4.6,0.7c1.9-0.1,2.5,0.8,3.2,2.4c1.2,2.5,2.9,4.8,4.5,7.2
			c0.9,1.4,1.8,2.8,2.7,4.3c-9,9.6-19.6,16.6-31.3,23.1c0-5.5-0.1-10.4,0.1-15.3c0-0.8,1.3-1.6,2.1-2.2c6.3-5.3,12.7-10.5,19-15.8
			c0.6-0.5,0.9-1.2,1.8-2.2c-4.8,0-9-0.5-13.2,1.7c-0.7,2.8,2.2,6.8-2,10C16-7.6,15.7-12.3,15.4-17c-1.6,1,1.1,4.8-3.2,4.4
			c0.9,0.6,1.3,0.8,2,1.4c-1.2,0.6-2.2,1.1-3.3,1.7c-0.2-1.4-0.3-2.4-0.5-3.8c-2.6,0.9-4.9,1.6-7.2,2.4c-2.1-2.9-3.4-3-5.8-0.8
			c-0.7,0.6-1.6,1-2.5,1.3C-5.8-10-6.7-9.8-7.9-9.4c0.6-1,1.1-1.9,1.8-3.1c-1.7-0.1-3.3-0.2-5.4-0.2c0.6,1,1,1.6,1.5,2.3
			c-3.2,1.7-4.8,1-6.7-1.9c-1-1.5-2.8-2.6-4.2-3.8c-0.4,0.5-1.1,1.3-1,1.4c1.8,1.9,1.4,4.3,1.3,6.5c-1.4,0.6-2.7,1.2-3.9,1.7
			c-2.8-1.1-5.9-2-8.5-3.5c-2.6-1.4-4.8-1.2-7.3,0.1c-0.6,0.3-2.1-1-3.3-1.7c0,0.1-0.1,0.6-0.2,1.7c-1-0.9-2.2-1.4-2.4-2.1
			c-0.6-3.2-3-2.5-5-2.3c-2.6,0.1-5.3,1-7.9,0.7c-3-0.4-6-1.6-9.5-2.7c0.8,1.3,1.1,1.9,1.8,2.9c-2-0.3-3.8-0.6-5.5-0.9
			c-0.8,0.7-1.7,1.5-2.3,2c-1.1-1-2.1-1.8-3.4-2.8c0.1,1.3,0.2,2.1,0.3,2.6c-1.7-0.2-3.2-0.4-4.7-0.4c-0.1,0-0.2,1.7-0.4,2.9
			c-1.4-0.2-3.2-0.4-5.2-0.6c0.3-1.5,0.6-2.8,0.7-3.6c-2-0.3-4.3-0.7-6.8-1.2c-0.1,0.8-0.2,1.7-0.4,3.3c0.9-1.2,1.4-1.7,1.4-1.7
			c1.6,1.4,3,2.7,4.4,4c0,0.2-0.1,0.3-0.1,0.5c-1.5-0.6-3.1-1-4.5-1.8c-2.5-1.3-4.9-1.3-7.4-0.1c0-0.7,0-1.5,0-2.3
			c1.7,0,3.2,0,4.8,0c0-0.2,0-0.5,0-0.7c-0.8-0.1-1.6-0.3-2.4-0.3c-2.1,0-4.2,0-6.2,0.6c0.4-1.3,0.7-2.7,1-3.6
			c-1.4-0.1-2.6-0.2-4-0.3c-1.1,0.9,0.4,3.8-2.4,3.9c-0.3-1.3-0.3-3.6-0.8-3.7c-1.9-0.5-4-0.2-6-0.2c0.1-0.6,0.2-0.9,0.3-1.4
			c-1.4,0.4-2.6,0.8-4.4,1.3c1.6,1,2.9,1.7,4,2.4c-1.5,0.1-2.7,0.2-4,0.3c-0.8-1.6-1.5-3.1-2.3-4.6c-1.3,1.6-2.3,2.9-3.3,4.2
			c0.2-0.6,0.3-1.3,0.6-2.3c-2.9,0-5.8,0-8.2,0c0,0.9,0,1.4,0,2.1c1.1,0.1,2.6,0.2,4,0.4c0.1,0.7,0.3,1.4,0.4,2.1
			c0.9-0.3,1.8-0.6,2.6-0.9c0.2,0.3,0.4,0.7,0.6,1.1c0.2-0.1,0.5-0.2,0.7-0.3c-0.3-0.8-0.5-1.6-0.8-2.4c1.9,0.2,3.8,0.4,5.7,0.5
			c0,0.4-0.2,1.1,0.1,1.3c1.4,1,5.5,0.2,6.5-1c1.4,0.4,2.8,0.8,4.1,1.2c-0.2,0.3-0.5,0.9-0.4,0.9c1.3,1.1,2.7,2.1,4.8,3.8
			c-0.7-1.7-1.2-2.6-1.4-3.6c-0.1-1.2,0.1-2.4,0.2-3.9c1,1.1,1.7,1.9,2.4,2.7c0.7,1.4,1.5,2.8,2.4,4.4c0.5-0.6,1-1.2,1.4-1.7
			c0.5,0.4,1.3,1.2,1.5,1.1c2.8-1.7,5,0.1,7.4,1.1c0.9,0.4,1.9,0.6,3.1,0.9c-0.2,0.6-0.3,1.4-0.7,2.9c-0.7-2.5-1.6-2.7-2.7-0.4
			c-0.3-0.8-0.5-1.2-0.7-1.6c-1-2.2-1.8-2.3-4-1C-97.4-8.3-98.2-8-99-7.9c-3.2,0.1-6.5,0.1-9.7-0.1c-0.9-0.1-1.7-1.3-3.1-2.5
			c-0.3,1.6-0.3,2.2-0.5,2.7c-0.2,0.4-0.7,1-1.1,1c-0.4,0-1-0.5-1.2-0.9c-0.5-0.8-0.9-1.7-1.3-2.6c-0.4,1.4-0.8,2.6-1.1,3.7
			c-1.9-0.7-3.8-1.4-6.1-2.2c-0.2,0.6-0.5,1.6-1,3.1c-2.1-0.8-4.7-2.4-7.2-2.5c-2.8-0.1-5.7,1.3-8.8,2.1c0-1,0-1.9,0-3.1
			c-1.3,1.3-2.4,2.4-3.5,3.6c-0.9-1.8-1.5-3.1-2.5-5c-0.9,4.4-3.4,2.1-5.2,2.3c3-2.5,6.7-2,10-1.8c2,0.1,1.9-0.6,2-1.8
			c1.4,0.5,2.7,1.2,4.1,1.4c0.4,0.1,1-1.2,1.6-1.9c-2.1,0.3-3.9,0.5-5.7,0.7c-4.1-0.9-8.2,0-12.7-0.3c0.2,1.3,0.5,2.5,0.7,3.7
			c0.3,0.2,0.6,0.7,0.9,0.7c2.3-0.1,2.9,1.4,2.9,3.9c-0.7-0.5-1.4-1.2-2.2-1.6c-1.6-0.9-3.2-1.8-4.9-2.6c-0.7-0.3-1.6-0.3-2.5-0.5
			c-0.1,0.3-0.4,0.8-0.5,1.1c-2-0.3-3.8-0.5-5.7-0.7c0-0.2,0.1-0.5,0.1-0.7c0.6,0,1.2,0,2.5,0c-3-1.5-4.3-0.9-4.3,1.9
			c-1.2-0.4-2.2-0.7-3.2-1.1c-0.2,0.2-0.4,0.4-0.5,0.6c0.6,1,1.1,2,2,3.5c-1.1-0.2-2.2-0.2-2.3-0.6c-0.6-2-2-2.6-3.7-3.4
			c-2.7-1.4-3.1-1.4-3.8,1.8c-3.7,2.1-3.8-2.4-5.8-3.2c0,0.2-0.1,0.5-0.1,0.7c-1.9-0.1-3.9-0.2-5.8-0.4c-2.8-0.3-4.2-2.4-5.4-4.6
			c0,0,0-0.1,0-0.1c-0.4-0.9-0.8-1.9-1.1-2.8c0.2,0,0.3,0,0.5,0.1c-0.1-1.1-0.1-2.2-0.2-3.3c0.8,0.4,1.6,0.7,2.3,1.1
			c0,0-0.1,0-0.1,0c4-1.4,8.1-3.4,12,0.3c0,0,2-1.4,2-2.1c0-0.9-0.8-2.2-1.7-2.8c-1.1-0.9-2.5-1.3-4.7-2.3c2-1.2,3.4-2,5.2-3
			c1.2,3.1,2.3,5.7,3.4,8.3c0,0,0-0.1,0-0.1c0.3,3.2-2.8,1.9-4.5,3.4c1.5,0.2,2.6,0.4,3.9,0.6c0,0.3,0.1,0.9,0.2,1.5
			c-2.7-0.2-5.4-1.6-7.9-0.3c0,0.3,0,0.5,0,0.8c1.8,0,3.6,0,5.2,0c0.3,1,0.6,1.9,1,3.1c0.7-1.6,1.2-2.6,1.7-3.7
			c1.1,2.5,2.5,1.4,3.8,0.2c2.3,0.1,4.5,0.3,6.5,0.4c1.6-3.6-2-4.5-3.2-7.3c2.9,0.7,5.3,1.2,7.9,1.7c1.5-5.1-3.5-2.5-4.6-4.2
			c0.1-0.3,0.2-0.6,0.3-0.9c2.7,0.9,5.4,1.9,8.1,2.8c-3.7-1-3.1,2.8-3.2,3.8c-0.6,3.7,3.4,1.9,5,3.3c-0.4,0.5-0.7,1-1.1,1.4
			c0.2,0.3,0.4,0.5,0.6,0.8c1.1-0.7,2.2-1.3,3.9-2.3c-2.4-1.5-4.3-2.7-6-3.8c0.4-1.2,0.7-2.1,0.9-3c1.2,2.1,3.2,1.7,5.1,1.7
			c0.1,0,0.2,0.1,0.4,0.2c1.4,0.5,2.8,0.9,4.3,1.4c-1.2-2.1-1.2-4.3,1-5.7c0.9-0.6,2.4-0.2,3.6-0.3c2.7-0.1,5.1,0.4,6.8,2.8
			c-1.4-0.5-2.7-1.2-4.2-1.4c-1.8-0.3-3.6-0.4-5.4-0.1c-0.4,0-0.5,1.9-0.7,2.9c3.2,0,6,0.1,8.8-0.1c0.5,0,0.9-0.9,1.3-1.4
			c1.1,0.9,1.1,0.9,4.2-0.5c0.4,0.7,0.8,1.4,1.2,2.1c0.2-0.2,0.5-0.5,0.7-0.7c0.4-0.4,0.8-0.8,1.2-1.2c-0.8-0.3-1.5-0.6-2.3-1
			c-1.5-0.8-3-1.6-5-2.7c2.3-0.6,3.4-4.2,6-0.9c-0.7,0.4-1.2,0.7-2.4,1.4c4.4,0.7,8.2,1.3,12,1.9c0,0.2,0,0.4-0.1,0.7
			c-0.8,0.1-1.6,0.2-2.4,0.3c0.1,0.3,0.1,0.7,0.1,0.7c2.6,0.1,5.2,0.1,7.7,0.1c0.1,0,0.1-1.1,0.1-1.7c1.3-1.2,4.2,0.5,5.1-2.5
			c-1.7-0.1-4.5,2.2-3.2-1.9c-1.5-0.1-2.8-0.2-4.2-0.2c2.4-0.1,5-2.5,7.3,0.7c2.6,0,5.6,0,8.8,0c-0.2-1.5,0.8-1.8,2.8-1.6
			c3.8,0.4,7.7,0.4,11.6,0.6c0.2-0.4,0.6-1.2,0.9-1.8c1.1,1,1.9,2.2,2.9,2.3c1.3,0.2,2.7-0.5,4.1-0.8c-0.1-0.4-0.1-0.9-0.2-1.3
			c-1.1,0-2.2,0-3.3-0.2c-0.5-0.1-1-0.6-1.5-0.9c0.4-0.3,0.8-0.9,1.2-1c5.4-0.3,10.7-0.8,16.1-0.5c1.8,0.1,3.6,2,5.4,3
			c0.5,0.3,1.1,0.4,1.7,0.6c-0.2-0.4-0.3-0.8-0.6-1.5c2.5-0.4,4.9-0.8,7.4-1.3c0.5-0.1,1-0.5,1.5-0.7c-0.3-0.3-0.8-0.7-0.8-1
			c0-0.6,0.2-1.6,0.6-1.7c0.7-0.2,1.6,0,2.8,0c-0.7,1.3-1.2,2.2-1.8,3.3c1.5,0.2,2.8,0.3,4.3,0.5c-0.1-0.5-0.2-1.2-0.4-1.8
			c1.4-0.2,2.8-0.3,4.1-0.4c0.1,0.5,0.1,1.5,0.3,1.5c0.8,0,1.8,0.1,2.5-0.3c1-0.5,1.7-1.4,2.6-2.1c1.7-1.3,3.4-2.2,5,0
			c-0.3,0.1-0.6,0.2-1.4,0.3c0.6,0.5,1,1,1.4,1c0.7,0,1.4-0.2,2.7-0.5c1.2,0,3.1-0.2,5,0c3.5,0.5,5.8-2.2,8.6-3.1
			c4.1-1.3,8.8-1.1,13.2-0.9c2.8,0.1,5.5,1.2,8.3,2c0.7,0.2,1.3,0.7,1.8,1.3c1.8,2.3,3.4,5,7.1,3c0.5-0.3,1.5,0.2,2.1,0.3
			c-0.2-0.8-0.5-1.6-0.8-2.5c0,0-0.1,0-0.1,0c1.2,0.8,2.5,1.6,3.6,2.5c0.4,0.3,0.3,1.2,0.5,2c0.2,0,1,0,1.7,0
			c0.1-0.2,0.4-0.5,0.3-0.5c-1.2-1.4-0.2-2,0.9-2.1c3.3-0.2,6.5-0.2,9.8-0.2c1.6,0,3.4,0.4,3.8-2c0.1-0.4,1.2-0.8,1.9-0.8
			c1.8,0.1,3.5,0.4,5.5,0.6c-0.4,0.9-0.7,1.4-1,2c0.6,0,1.2-0.2,1.7,0c0.8,0.4,1.6,1.1,1.9,1.4c2.6-1,4.8-1.9,7.1-2.8
			c0.2-0.1,0.5,0.1,0.6,0c3.6-5.4,9.3-1.4,13.8-3.2c1.6-0.6,3,0.5,2.6,2.7c-0.1,0.9,0.3,1.8,0.2,2.7c-0.1,0.6-0.6,1.2-1.2,2.3
			c-0.2-0.1,0.4,0.6,0.8,0.5c0.6-0.1,1.1-0.8,1.5-1.3c0.4-0.5,0.7-1.7,1.1-1.7c2.6-0.3,5.3-0.3,8-0.5c0.8-0.1,1.6-0.4,2.6-1.2
			c-0.9-0.4-1.8-0.7-3.1-1.3c1.8,0,3.2,0,4.9,0c-0.2,0.7-0.4,1.3-0.5,1.9c2,1.2,3.9,2.4,6.4,3.9c0.2,0.9,0.7,2.5,1.2,4.4
			c4-0.7,8.2-1.4,12.7-2.2c-0.4-0.9-0.6-1.4-0.9-2l0,0c0.1-0.9,0.1-1.8,0.2-2.9c-0.9-0.3-2.2-0.6-3.4-1c0.3-0.8,1-1.9,0.7-2.3
			c-0.7-0.9-1.8-1.5-2.3-1.8c-0.4,1.3-0.7,2.3-0.9,3.1c0.6,0.2,1.6,0.6,2.5,1c-1.7,1.5-3.4,1.7-5.6,0.7c-1.3-0.6-3.1-0.4-5-0.7
			c0.6-1,1.1-1.7,1.5-2.3c1.2,2.1,2.6,2.2,4.5,0.3c-0.9-0.6-1.8-1.3-2.8-1.7C93.2-35.9,92.6-35.7,92-35.7z"/>
		<path fill="#FFFFFF" d="M14.6,15.4c0-3.4,0-6.2,0-9c-0.3,0-0.7,0-1,0C13.4,9.3,12.7,12.2,14.6,15.4z"/>
		<path fill="#FFFFFF" d="M-2.8,57.3c0,0,0-0.2,0-0.2C-3.4,57-4,56.7-4.6,56.7c-0.6,0-1.2,0.2-2.5,0.5c-1.1-1.1-2.7-2.8-4.2-4.5
			c0.2-0.2,0.4-0.4,0.6-0.7c0.8,0.6,1.7,1.3,2.7,2c0.9-1.4,1.7-2.9,2.7-4.3c0.3-0.4,1-0.5,1.6-0.6c3.9-0.6,7.8-1.1,11.8-1.6
			c0.5-0.1,1.3,0,1.6,0.3c2.6,2.5,5.5,2.9,8.8,1.8c1-0.3,2.2-0.8,3.2-0.5c2.9,0.7,3.8-0.6,3.5-3.3c1.9,0.3,3.7,0.5,5.4,1
			c1.7,0.5,3.4,1.2,5.2,1.8c0.3-0.8,0.6-1.5,0.9-2.1c1.4,0.7,2.6,1.3,4.4,2.2c-1.8,0.4-3.2,0.9-4.7,1.1c-4.2,0.8-4.2,0.8-2.4,4.8
			c0,0,0.1-0.1,0.1-0.1c-0.8-0.9-1.6-1.8-2.5-2.6c-0.5-0.5-1.7-1.1-1.8-1c-2.4,2.4-5.4,1.2-8.1,1.4c-1.9,0.2-4,0.2-5.9-0.2
			c-2.1-0.4-1.7,1.9-2.6,2.1c-2.7,0.7-5.5,1-8.3,1.5c-1.1,0.2-2.3,0.3-4,0.5C-0.2,54.8-1.5,56.1-2.8,57.3z"/>
		<path fill="#FFFFFF" d="M159.7,82.7c-2,0.3-2.3-1.3-2.2-2.5c0.1-0.7,1.4-1.6,2.3-1.8c3.7-0.7,7.5-1.3,11.2-1.4
			c1.4-0.1,2.9,1.2,4.2,1.8c0.3-1.3,0.5-2.4,0.9-4c1.1,0,3-0.5,4.3,0.1c1.2,0.6,1.8,2.4,2.6,3.7c-0.3,0.2-0.5,0.4-0.8,0.6
			c-1.3-0.8-2.5-1.6-3.9-2.5c-0.5,1.3-0.9,2.5-1.4,3.6c-2,0-4.2,0-6.9,0c0.7,1.2,1,1.7,1.7,2.8c-1.5-0.6-2.5-1-3.7-1.5
			c-0.3,1.1-0.5,2.2-0.6,2.5C164.8,83.6,162.2,83.2,159.7,82.7L159.7,82.7z"/>
		<path fill="#FFFFFF" d="M128.9,22c3.1-0.1,5.8-0.3,8.6-0.4c0.7,7.9,1.8,6.9-8.2,7.4C129.2,26.7,129.1,24.3,128.9,22z"/>
		<path fill="#FFFFFF" d="M141.3,16.6c-0.1-1.6,0.2-3.3-0.4-4.6c-0.8-1.7-2.4-2-4.3-1.1c-0.4,0.2-2-0.9-2.1-1.5
			c-0.3-1.8-0.1-3.7-0.1-5.8c2.2-0.1,4.2-0.2,6.5-0.4c0.1,1.7,0.1,3.2,0.3,4.6c0.2,1.4,0.5,2.8,0.9,4.2
			C142.8,14,143.1,15.6,141.3,16.6z"/>
		<path fill="#FFFFFF" d="M106.7,5.4c0,2.3,0,4.4,0,6.6c-2.3,0.2-4.4,0.3-6.5,0.4C99.3,5.5,99,5,106.7,5.4z"/>
		<path fill="#FFFFFF" d="M110.7,24.3c-1,0.2-2.1,0.3-3.4,0.6c-0.2,1.7-0.4,3.4-0.6,5.8c1.6-0.2,3.1-0.4,4.6-0.6c0,1.2,0,3,0,5.5
			c-1.3-0.6-2.2-1-3.2-1.5c-0.3,0.3-0.8,0.6-1.2,1c-0.3-0.5-0.8-1-0.8-1.6c-0.4-2.6-0.6-5.3-1-7.9c-0.1-0.6-1-1.1-1.4-1.4
			c2.1-0.1,4.7-0.2,7.2-0.4C110.7,23.9,110.7,24.1,110.7,24.3z"/>
		<path fill="#FFFFFF" d="M59.3,50c0.4,0.8,1.1,2,1.7,3.3c-0.2,0.1-0.4,0.3-0.6,0.4c-0.7-0.6-1.4-1.1-1.6-1.3
			c-1.9,0.6-3.4,1-4.2,1.3c-2.4,1.1-4.2,1.9-6,2.7c-0.2-0.3-0.3-0.7-0.5-1c0.4-0.3,0.8-0.6,1.2-0.7c0.8-0.2,1.7-0.4,2.5-0.5
			c-0.7-0.8-1.3-1.6-2.1-2.5c0.1-0.2,0.4-0.9,0.6-1.5C53.3,50,56.1,50,59.3,50z"/>
		<path fill="#FFFFFF" d="M158.2,2.8c1-0.1,1.8-0.3,3.3-0.5c0,2.2,0.1,4.2-0.1,6.2c-0.1,0.5-1.1,1.2-1.8,1.3
			c-0.4,0.1-1.3-0.8-1.4-1.3C158.1,6.7,158.2,4.9,158.2,2.8z"/>
		<path fill="#FFFFFF" d="M47.4,53.3c-1.9-0.4-3.5-0.8-5.5-1.2c0.6,1.8,0.9,2.9,1.4,4.3c-1.2,0.2-2.3,0.4-4.1,0.7
			c1-1.3,1.7-2.2,2.8-3.5c-1.1-0.4-2.2-0.8-3.3-1.2c-0.1-0.2-0.2-0.4-0.2-0.6c2.6-0.6,5.2-1.2,7.8-1.8C46.6,51.1,47,52.1,47.4,53.3z
			"/>
		<path fill="#FFFFFF" d="M70.9,18.9c0.9-5.7,6.5-6.6,9.9-9.7c0.2,0.2,0.4,0.4,0.6,0.6c-3.1,3.3-6.3,6.6-9.4,10
			C71.6,19.5,71.3,19.2,70.9,18.9z"/>
		<path fill="#FFFFFF" d="M162.2,5.5c0-0.7-0.1-1.4,0-2c0.1-0.5,0.6-0.8,0.9-1.2c0.4,0.4,1.1,0.8,1.1,1.3c0.2,1.4,0.2,2.9,0.1,4.3
			c-0.1,0.6-0.7,1.1-1,1.7c-0.4-0.6-0.9-1.1-1.1-1.8C162,7.1,162.2,6.3,162.2,5.5C162.2,5.5,162.2,5.5,162.2,5.5z"/>
		<path fill="#FFFFFF" d="M38.9,29.3c0.2,3.2,2,6.5-0.8,9.8c0-3.5,0-6.7,0-9.9C38.3,29.2,38.6,29.2,38.9,29.3z"/>
		<path fill="#FFFFFF" d="M56.7,21.3c-0.1,1.2-0.1,2.1-0.1,2.7c-1.8,0.1-3.4,0.2-5.4,0.3c-0.1-0.5-0.1-1.4-0.2-2.4
			C52.9,21.7,54.6,21.5,56.7,21.3z"/>
		<path fill="#FFFFFF" d="M146.5,10.7c-4.6-3.9-4.8-4.5-3.4-6.5C144.2,6.3,145.3,8.4,146.5,10.7z"/>
		<path fill="#FFFFFF" d="M50.5,48c-2.8,0.3-5.6,0.6-8.4,0.8c0-0.4-0.1-0.7-0.1-1.1c2.8-0.1,5.6-0.3,8.4-0.4
			C50.4,47.6,50.4,47.8,50.5,48z"/>
		<path d="M-2.8,57.3c1.3-1.2,2.6-2.5,3.6-0.9c1.7-0.2,2.9-0.3,4-0.5c2.8-0.4,5.6-0.8,8.3-1.5c0.9-0.2,0.5-2.5,2.6-2.1
			c1.9,0.4,3.9,0.4,5.9,0.2c2.7-0.3,5.7,1,8.1-1.4c0.1-0.1,1.3,0.5,1.8,1c0.9,0.8,1.7,1.7,2.5,2.6c-0.9,0.1-1.7,0.5-2.6,0.4
			c-3.3-0.2-6.6-1.4-9.8,1.1c-0.8,0.6-2.8-0.4-4.2-0.2c-5.2,0.6-10.5,1.5-15.7,2C0.3,58.1-1.3,57.5-2.8,57.3z"/>
		<path d="M14.6,15.4c-1.9-3.3-1.2-6.2-1-9c0.3,0,0.7,0,1,0C14.6,9.2,14.6,12,14.6,15.4z"/>
	</g>
</g>
</svg>
