<?xml version="1.0" encoding="utf-8"?>
<!-- Generator: Adobe Illustrator 24.0.3, SVG Export Plug-In . SVG Version: 6.00 Build 0)  -->
<svg version="1.1" id="Layer_1" xmlns="http://www.w3.org/2000/svg" xmlns:xlink="http://www.w3.org/1999/xlink" x="0px" y="0px"
	 viewBox="0 0 188.2 91.7" style="enable-background:new 0 0 188.2 91.7;" xml:space="preserve">
<style type="text/css">
	.st0{fill:#232323;}
	.st1{display:none;}
	.st2{display:inline;}
	.st3{fill:#FFFFFF;}
	.st4{fill:none;}
	.st5{fill:#141414;}
	.st6{font-family:'Montserrat-Bold';}
	.st7{font-size:7px;}
</style>
<g>
	<path class="st0" d="M73.2,58.2V36.9H44.7v21.4h-1.3V15.8h1.3v19.9h28.6V15.8h1.3v42.5L73.2,58.2L73.2,58.2z"/>
</g>
<g>
	<path class="st0" d="M118.5,58.3h-2l-12.3-41.2h-0.1L92,58.3h-2L77.2,15.9h1.4l12.2,41.2H91l12.1-41.3h2l12.3,41.3h0.2l12.2-41.3
		h1.4L118.5,58.3z"/>
</g>
<g>
	<path class="st0" d="M168.5,36.9c0,3.7-0.6,6.9-1.8,9.5c-1.2,2.7-2.9,4.9-5,6.6c-2.1,1.7-4.6,3-7.5,3.9c-2.9,0.8-5.9,1.3-9.2,1.3
		h-12V15.7h12c3.3,0,6.3,0.4,9.2,1.2s5.3,2.1,7.5,3.8c2.1,1.7,3.8,4,5,6.6C167.9,30,168.5,33.2,168.5,36.9z M134.3,16.9v40h10.4
		c3.1,0,6.1-0.4,8.8-1.2s5.1-2,7.1-3.6s3.6-3.7,4.7-6.2c1.2-2.5,1.7-5.5,1.7-9.1c0-3.5-0.6-6.5-1.7-9.1c-1.2-2.5-2.7-4.6-4.7-6.2
		c-2-1.6-4.4-2.8-7.1-3.6s-5.7-1.1-8.8-1.1L134.3,16.9L134.3,16.9z"/>
</g>
<polygon class="st0" points="8.1,78.9 8.1,71.9 9.7,69.1 10.5,18.9 13.1,18.9 13.1,20.2 19.1,20.3 19.1,9.9 28,9.9 30.7,78 "/>
<g id="JZVuz0.tif" class="st1">
	<g class="st2">
		<g>
			<path d="M442.2-189.6c0-92.2,0-184.5,0-276.5c-0.2,0-0.4,0-0.6,0c0,0-0.1,1.5-0.1,2.4c0,131,0,261.9,0,393c0,19.2,0,38.3,0,57.7
				c-1.2,0.1-2.7,0.6-3.4,0.1c-3.3-2.4-7.8,0.7-10.8-2.6c-3.2,0.8-5.9-0.9-8.7-2c-2-0.8-4.2-1.4-6.2-2.4c-3-1.5-5.9-3.5-8.9-5
				c-3.2-1.5-6.5-3.3-9.9-3.6c-4.2-0.4-7.3-2.9-9.8-5c-4-3.5-8.5-5.6-13.2-7.6c-2.2-0.9-4.4-1.8-6.6-2.8c-2.1-1-3.9-2.9-6.5-1.3
				c-0.2,0.1-1-0.2-1.2-0.5c-1.8-2.1-4.1-3.2-6.6-4.3c-2.7-1.2-4.9-3.3-7.5-4.7c-1.7-0.9-3.7-1.3-5.6-2c-0.1,0.3-0.2,0.6-0.4,0.9
				c1.5,1.4,2.8,3,4.5,4.1c3.8,2.5,7.8,4.8,11.7,7.2c2.2,1.4,4.2,3,6.4,4.6c-0.2,0.3-0.4,0.5-0.6,0.8c-0.6-0.3-1.2-0.7-1.8-0.8
				c-1.3-0.2-3.4-0.9-3.7-0.4c-1.6,2.6-3.8,0.6-5.6,0.9c-0.9,0.2-1.9-0.6-2.8-0.9c-0.9-0.3-2.1-0.3-2.7-0.9c-1.2-1.2-2.2-2.8-3-4
				c-0.7,0.4-1.5,1.2-2.2,1.1c-2.2-0.4-4.4-1.1-6.7-1.7c0.3-0.4,0.8-1.2,1.7-2.5c-1.7-0.8-3.2-1.4-4.7-2.1c-2.2-2.3-5.4-2.5-8.4-3.3
				c-2-0.6-4-1.1-6-1.6c0.6,0.9,1.2,1.9,2.3,3.6c-1.5-0.6-2.2-0.9-2.9-1.1c-0.5-0.1-1.1,0.1-1.7,0.1s-1.3-0.1-1.7-0.4
				c-1.9-1.3-3.8-2.8-5.7-4.2c0.2,0.7,0.4,1.4,0.9,2.9c-2.8-1.6-4.8-2.8-6.4-3.7c0.5-0.8,1.2-1.7,1.8-2.5c-0.9-0.2-1.8-0.4-2.7-0.6
				c-1,2-2.6,2.4-4.5,1.2c-0.6-0.4-1.6-0.8-1.9-0.6c-4.2,3.2-8.1-1-12.1-0.5c-0.2,0-0.5-0.1-0.5-0.2c0-3.5-3.9-2.6-5.6-4.3
				c0.6,0.8,1.2,1.7,1.8,2.5c-4.3,0.6-5.2-3.4-7.8-5.7c-0.1,1.1-0.1,1.7-0.2,3.2c-1.9-2.5-3.3-4.4-5-6.7c-0.6,1.7-1,3.1-1.6,4.7
				c-1.3-0.7-2.6-1.6-4.5-2.7c2.2-1.5,4.1-2.8,5.4-3.6c-2.1-2.6-4-5.1-5.9-7.5c-0.6,0.6-1.1,1.2-1.7,1.8c-0.4-0.8-1-1.5-1.3-2.3
				c-0.2-0.4,0-1.1-0.2-1.5c-1-1.3-2.1-2.5-3.2-3.8c-1.1,1.3-4.2,1.5-3.3,4.6c-1.6-0.7-4.4,0.4-4.2-2.9l0.1,0.1
				c-1.7-1.6-3.2-3.6-5.1-4.8c-3.3-2.1-7.4-3.1-10.3-5.6c-2.9-2.5-5.5-0.8-8.3-0.9c-0.7,0-1.6,0.1-2-0.2c-2.2-2-4-4.3-6.3-6.2
				c-1.5-1.2-3.3-2.2-5.1-2.9c-1.1-0.4-2.5-0.1-3.7-0.1c-1-2.7-2.5-3.1-5.1-1.5c-0.5-0.9-0.9-1.9-1.3-2.7c-2.7,0.9-5.3,1.7-8.1,2.6
				c1.1,0.5,2.4,1.2,3.6,1.8c-1.9,1-3.7,2-5.5,2.8c-1.9,0.8-3.9,1.5-5.8,2.2c0-0.1,0.2-0.6,0-0.9c-1.1-2.2-2.3-4.4-3.6-6.6
				c-0.2-0.4-1-0.9-1.4-0.8c-1.7,0.3-3.3,0.8-4.9,1.3c-0.9-2.6-2.4-4-3.3-3c-1.4,1.4-2.3,0.4-3.5-0.1c-0.7-0.3-1.7-0.7-2.2-0.5
				c-2.8,1.4-4.6-0.6-7.2-1.3c1.2-1,2-1.6,2.9-2.4c-1.4-1-4.7-0.1-1.8-3.4c-0.3-0.1-0.5-0.2-0.8-0.3c-1.6,0.6-3.1,1.2-5.3,2
				c0,0-0.8,0-1.5-0.3c-2.6-1-5.5-1.7-7.8-3.2c-3.1-2.1-6.3-2.8-9-0.2c-4.7,4.7-10.4,3.7-16,3.4c-4.9-0.2-9.7-0.6-14.6-0.8
				c0,0.1,0,0.2,0,0.3c0.8,0.2,1.6,0.4,2.4,0.6c-2.3,1.5-3.5,3.4-3.5,6.1c-0.3-1.7,0.1-3.3-0.1-4.9c-0.1-0.8-0.9-2.2-1.6-2.3
				c-3.3-0.3-6.6-0.4-10-0.3c-5.3,0.2-10.5,0.7-15.8,0.9c-1.7,0.1-2.9,0.3-2.7,2.4c0,0.1-0.4,0.3-0.9,0.6c-0.1-0.9-0.2-1.6-0.3-1.8
				c-1.8-0.4-3.5-0.8-5.4-1.2c1.4,3.2,2.7,6.1,3.9,9.1c-0.5,0.2-0.9,0.3-1.6,0.5c0.6,0.4,1.1,0.8,1.6,1.1c-0.1,0.3-0.2,0.6-0.4,0.9
				c-4.1-1.8-8.3-3.5-13.1-5.6c0.7,1.7,1.1,2.5,1.4,3.3c-0.1,0.1-0.3,0.2-0.4,0.4c-1.4-1.4-2.9-2.7-4.3-4.1c0,0,0.1,0,0.1-0.1
				c-2-0.7-4.5-1.4-6.8-2.4c-0.8-0.3-1.1-1.9-1.9-2.2c-4.6-1.6-9-4.1-14.1-2.6c0.1,0.2,0.4,0.5,0.9,1.1c-1.6-0.5-2.7-1.2-3.9-1.2
				c-2.7,0-5.4,0.3-8.1,0.4c-6.2,0.3-12.5-1-17.6,1.1c-1-1-1.6-1.9-2.2-2c-1.2-0.1-2.5,0.3-3.7,0.4c-3.7,0.3-7.2,6.4-10.7,6.7
				c0-0.4-0.2-6.7-0.3-6.3c-2.1,8-1,8.3-1,8.1c0-0.1,1-9.1,1-10.3c-0.1-12.7-0.7-24.5-1.1-37c-0.1-3.5-0.5-7-0.6-10.6
				c0-4.1,0.3-8.2,0.2-12.2c-0.1-5.7-0.4-11.3-0.6-17c-0.2-7.4-0.5-14.9-0.5-22.3c0-8.8-2.1-17.7,0.7-26.5c0.1-0.4-0.2-0.9-0.3-1.4
				c-0.4-8.4-0.8-16.9-1.1-25.3c0-0.4,0.8-0.9,1.1-1.1c-2.3-4-0.1-8.8-1.5-13.3c-1.7,0.2-3.9-1-4.7,1.8c-0.1,0.3-0.6,0.5-1,0.5
				c-2.4-0.2-3.4,1.1-3.3,2.6c-4.2-0.1-8.2-0.4-12.2,1.2c0.1-0.8,0.1-1.6,0.2-2.6c-1.4,0-2.5,0-3.9,0c0-8,0-16,0-23.9
				c0-3.6-1-4-4.5-3.1c-1.8,0.5-4.2,0-5.8-0.9c-1.9-1.1-2.8-1.5-3.6-0.1c-2.1-0.1-3.8-0.7-5.2-0.2c-0.9,0.3-1.8,2.2-1.8,3.5
				c-0.1,17.4-0.1,34.9,0,52.3c0,6,0.3,11.9,0.6,17.9c0.2,2.9,0.9,5.8,0.9,8.7c-0.1,8-0.4,15.9-0.7,23.9c-0.6,16.7-1.3,33.4-2,50
				c-0.2,5.4-0.6,10.7-0.9,16.6c-2.7,0-5.2-0.2-7.7,0.1c-0.8,0.1-2.2,1.2-2.2,1.9c-0.2,7.1-0.1,14.1-0.1,21.3
				c2.3,0.3,6.6,0.5,9.4,0.9c-0.9,0.4,7.9,0,11.8,0c2.1-0.1,4.1-0.3,6.2-0.2c0.2,0,0.4,1.5,0.6,2.2c-0.3,0.1-0.7,0.1-1,0.2
				c-0.1-0.5-6.8-0.7-9.1-1.1c0,0.1,0.8,2.5,1.4,3c2.7-1.5,3.8-1.1,4.6,1.4c-1.2,0.8-2.3,1.5-3.3,2.2l0.1,0.1c1.8,1.1,2.1,2.4,0.6,4
				c-1,1.1-0.7,3.4-2.9,3.4c-1.3,5-0.7,6.5,3.3,8.4c-0.1,0.6-0.3,1.3-0.3,1.4c-0.8,0.1-1.4,0.1-2,0.2c-0.4,0.1-1,0.6-1.2,0.4
				c-4.4-2.6-3.3,1.3-3.9,3.2c-0.1,0.4-0.4,0.8-0.7,1.2c-3.8-1.5-0.5-3.6-0.5-5.3c-1.6-0.1-3.1-0.2-4.6-0.3c0.1,0.3,0.2,0.8,0.4,1.4
				c-1-0.3-1.8-0.6-2.6-0.7c-3.5-0.6-7.1-0.8-10.5-1.7c-2.3-0.6-4.3-2.1-6.4-3.3c1.8-1.8,2.9-0.7,3.8,1.5c0.9-1.3,1.6-2.2,2.3-3.2
				c1.4,1.6,2.7,3,4.1,4.6c3.8-0.4,8-0.8,12.2-1.3c-0.7-0.4-1.4-0.9-2.1-1.3c0.2-0.3,0.3-0.6,0.5-0.9c2.1,1.1,4.3,2.2,6.4,3.4
				c-1-1.7-2-3.3-3-5.1c-1-0.1-2.5-0.3-4-0.4c0-0.1-0.1-0.3-0.1-0.4c0.5-0.1,0.9-0.2,1.5-0.4c-0.5-1.1-0.9-2.2-1.4-3.2
				c0-0.3,0-0.5,0.1-0.8c-1.8-1.1-4-1.9-5.3-3.5c-0.8-0.9-0.5-2.9-0.6-4.4c-0.5,0.7-1,1.4-1.3,1.7c-1.8-2.2-3.8-4.7-5.4-6.8
				c-2.7,0-5.4-0.2-8.1,0c-8.3,0.7-16.5,1.7-24.8,2.3c-14.4,0.9-28.8,1.8-42.8,5.7c-4.2,1.2-8.6,1.9-12.9,3
				c-1.2,0.3-3.4-1.1-3.5,1.7c-0.5,0-1.4,0-1.4-0.1c-0.3-2.4-2.1-0.8-3-0.9c-2.5-0.2-5.1-0.2-7.5,0.4c-2.7,0.6-5.2,2-7.8,3
				c-7.3,2.9-14.6,5.7-21.8,8.6c-0.6,0.2-1.2,0.6-1.9,0.6c-3.7,0.1-7.4,0-11,0.3c-5.1,0.4-10,1.6-15,1.4c-8.2-0.2-16.1,0.8-24.1,2.2
				c0,40.4,0,80.8,0,121.1l0.1,0.1c0.8-0.4,1.4-0.7,2.6-1.3c0.5,0.2,1.5,0.6,2.6,1c0.1-0.2,0.2-0.5,0.3-0.7
				c-0.7-0.7-1.5-1.3-2.9-2.6c1.6,0.3,2.4,0.1,3.4,0.3c-0.3-0.7-0.5-1.2-0.8-2.2c2.2,0,4.3,0,6.5,0c0.4,1,1,1.9,1.8,3.4
				c-1.7,0.3-3.5,0.8-5.4,1.1c3.3,0.4,6.5,1,9.7,1.2c0.8,0.1,1.6-0.7,2.4-1.2c-0.9-1.3-1.8-2.5-2.7-3.8c0.1-0.2,0.3-0.4,0.4-0.6
				c1.4,0.5,2.9,1,3.9,1.3c-0.5,1.2-0.9,2-1.2,2.8c0.1,0.1,0.2,0.2,0.2,0.2c0.8-0.1,1.5-0.3,2.3-0.4c0-0.1,0-0.1,0.1-0.2
				c1.6-0.4,3.1-0.9,4.7-1.3c-0.8-0.2-1.7-0.4-2.5-0.6c-0.7-0.2-1.4-0.5-2-0.9c-0.1-0.1,0.1-1.2,0.3-1.2c1-0.2,2.1-0.3,3.1-0.3
				c0.6,0,1.2,0.3,1.7,0.4c0.1-0.3,0.2-0.6,0.4-0.9c0.4,0.5,0.9,1.1,1.5,1.8c-0.7,0.5-1.4,1-2,1.5c0.8,0.3,2.3,0.5,2.3,0.8
				c0.3,3.4,0.4,6.8,0.6,10.6c-10.2,0.8-20.1,1.7-29.8,2.5c-0.7-1.5-1.6-2.6-1.6-3.7c0,4.5,0,9.1,0,13.6c0-0.7,0.6-1.5,1.1-2.3
				c1.2,1.6,2.2,2.8,3.9,0.5c0.7-1,2.4-1.7,3.7,0.2c0.5,0.7,1.3,1.1,1.8,0.8c0.9-0.5,2.1-1.7,2.8-1.5c2.5,0.8,4.5-0.9,6.8-0.7
				c1.5,0.1,3.3-0.2,4.5,0.4c2.1,1.1,3.8,0.5,5.8-0.2c2.1-0.6,4.4-0.6,6.6-0.5c2.1,0.1,4.1,1.1,5.8-1.1c0.2-0.2,1.7,0.4,2.5,0.8
				c0.8,0.4,1.7,0.9,2.7,1.5c0-1.2,0-2,0-2.9c0,0,0.2-0.2,0.4-0.2c2.1,0.9,3.1,2.6,3.9,4.6c-1.6-0.3-3.3-0.6-5.3-1
				c0.4,2,0.8,3.4,1.1,5c-6.5,2-8.6,1.5-10.6-3.5l0,0v0.2v0.2c-1.2-0.1-2.6,0.1-3.7-0.4c-1.8-0.8-3-0.4-4.1,1.3
				c-1.4-2-2.6-2.3-3.2,0.5c-1.5-0.6-2.9-1.2-3.8-1.6c-1.4,1-2.5,1.7-3.4,2.5c-0.5,0.4-1.1,1.1-1,1.5c0.3,2-1,2.4-2.4,2.5
				c-2.9,0.1-5.7,0-9.2,0c1.3-0.4,2.2-0.7,3-1c0.1-0.3,0.3-0.6,0.4-0.8c-3.4-0.8-7-1.6-10-2.3c0,3.3,0,6.5,0,10.5c3,0,5.3,0,8.1,0
				c0-1,0-0.9,0-1.2c-0.8-0.2-1.7-0.5-2.5-0.6c0-0.4,0-0.8,0.1-0.8c2.7-0.8,5.4-1.8,8.1-2.3c1.3-0.3,2.7,0.2,4,0.3
				c0,0.3,0,0.5,0,0.8c-3.7,1.5-7.3,2.9-11,4.4c0.5,0.8,1,1.6,1.4,2.2c-1.3,0.6-2.3,1.1-3.3,1.6c0.1,0.3,0.2,0.7,0.3,1
				c3.4-0.8,6.8-1.5,10.1-2.3c0.1,0.4,0.2,0.6,0.1,0.8c-0.4,1.1-0.7,2.2-1.1,3.3c1.2-0.1,2.4-0.3,3.6-0.4c2.8-0.3,5.7-0.4,8.5-0.8
				c2.8-0.5,5.6-1.4,8.4-1.9c1.6-0.3,3.2-0.1,4.8-0.2c5.4-0.1,10.9-0.3,16.3-0.4c0.1,0,0.1-0.5,0.4-0.5c-2.8,0-5.4,0-8,0
				c0,0,0-0.2-0.1-0.2c2-0.3,4.1-0.7,6.1-1c0-0.3,0-0.6,0-0.9c-1,0-2-0.2-2.9-0.1c-5.5,0.5-11.3,0.2-16.6,1.7
				c-6.1,1.7-11.5-0.5-17.3-0.8c-1.3-0.1-2.6-1.4-3.9-2.1c1.3-0.6,2.6-1.3,4-1.6c0.9-0.2,1.9,0.4,2.9,0.4c2,0,4.1-0.1,6.1-0.1
				c0-0.5-0.1-0.9-0.1-1.4c-1.5,0.2-2.9,0.4-4.4,0.7c4.4-3.9,9.7-1.8,14.6-2.2c-2.8,0.5-5.6,0.9-8.4,1.4c0,0.3,0,0.6,0,0.8
				c0.5,0.4,1,0.8,1.6,1.2c-1.1,0.3-2.2,0.5-3.7,0.9c4.4,1.8,6.7,1.1,9.6-1.8c0.7-0.8,2.3-1,3.4-1c3.5,0.2,7,0.7,10.5,1
				c0.4,0,0.7,0.2,1.1,0.9c-3.4,0.2-6.8,0.5-10.2,0.7c0,0.2,0,0.7,0,0.7c6.4,0,12.8,0,19.2,0c0-1,0-0.6,0-0.7
				c-1.9-0.2-3.8-0.5-5.9-0.7c2.4-3.5,5.7-2.3,8.4-2.3c5.8-0.1,11.5,0.3,17.3,0.6c0.7,0,1.3,0.2,2.6,0.5c-0.8,0.4-1.2,0.5-1.7,0.7
				c7.3,2.7,7.3,2.7,11.1,2.1c-2.4-0.7-4.2-1.3-6.1-1.9c0-0.3,0-0.6,0-0.8c3.3-0.2,6.6-0.5,9.9-0.5c0.4,0,0.8,1.2,1.4,2.1
				c0.5-0.1,1.3-0.3,2.3-0.5c0.1,1,0.2,1.4,0.3,2.4c3,0,5.9,0,9.5,0c-1.5-1-2.5-0.8-3.8-1.2c1.9-1.4,3.5-1.3,5.1-0.4l0,0l0,0l0,0
				c2.9-1.8,5.5-0.1,8.5,1.7c-0.5-1.4-0.8-2-1.1-2.7c1.2,0.2,2.2,0.4,3.3,0.7c-0.2,0.2-0.5,0.5-1.2,1.2c1.7,0.2,3.1,0.3,4.6,0.4
				c1.8,2.6,2.6,2.9,5.9,1c-2.2-0.3-4.8,0.3-4.5-3c3.3-0.2,6.6-0.5,10-0.6c0.8,0,2.2-0.4,1.7,1.3c1.4,0.3,2.8,0.5,4.2,0.8
				c-1.7,1.5-3.4,2.9-5.3,4.5c0.6,0.2,1.3,0.5,2.3,0.9c-1.6,0.5-2.9,0.9-4.3,1.4c2.2,4,6.2-0.4,8.8,1.9c-0.1-0.6-0.1-1.2-0.2-2.1
				c3.1,0.7,6.1,1.3,9.1,2c0.1,0,0.2,0,0.3,0c1.9,0.9,3.9,1.9,5.8,2.8c0.1-0.2,0.2-0.4,0.3-0.6c-0.5-0.4-1-0.8-1.5-1.1
				c2-0.7,4-1.4,6-2c-0.1-0.4-0.2-0.9-0.3-1.3c-2.1,0.1-4.2,0.2-5.8,0.3c0.3-0.8,0.8-2.1,1.4-3.6c0.3,0.3,0.9,0.8,1.6,1.5
				c0.1-0.6,0.2-1.3,0.3-2c0.9,3.8,3.5,3.8,7,3.4c-0.8-0.6-1.2-1-1.6-1.3c-0.2-0.1-0.3-0.3-0.5-0.4c0-1.5-0.1-3-0.1-4.5
				c1-0.1,2-0.1,3-0.2c1.8,2.5,4.2,0.5,6.2,0.7c1.9,0.2,3.8-0.2,5.8-0.3c0-0.4-0.1-1.6,0-1.6c1.1-0.1,2.3-0.3,3.3,0
				c2.1,0.5,4.2,1.1,6.3,1.7c0.1-0.3,0.2-0.6,0.3-0.9c-1-0.7-2-1.3-3.1-2c1.6-1,3-1.8,4.5-2.7c0.1,0.9,0.3,1.7,0.4,2.6
				c-0.4,0.1-1,0.2-1.6,0.3c0,0.2-0.1,0.4-0.1,0.6c0.9,0.4,1.9,0.8,2.8,1.2c-0.1,0.5-0.2,1-0.3,2.1c-0.9,0.6-2.4,1.5-3.8,2.4
				c-0.2,0.5-0.4,1-0.5,1.5c-0.1,0.8-0.2,1.6-0.3,2.3c0.9,0,1.9,0.3,2.6-0.1c0.5-0.3,0.6-1.4,0.9-2.5c0.9,0,2.3,0,3.7,0
				c0.3,0,0.8-0.1,0.8-0.2c1.1-3,3.2-1.5,5.3-1.3c-1.5-1.1-3-2.3-4.5-3.4c-0.1,0.1-0.3,0.2-0.4,0.2c0.2,0.4,0.3,0.8,0.5,1.2
				c-0.2,0.2-0.3,0.4-0.5,0.5c-0.5-0.7-1.2-1.2-1.4-2c-0.2-1-0.1-2.2-0.1-3.3c1.7,1,3.7,2.3,5.9,3.6c-0.6,0.3-1,0.4-1.8,0.9
				c3.1,1.4,5.8,2.6,8.5,3.8c0.1-0.3,0.3-0.6,0.4-0.9c-0.4-0.3-0.8-0.1-1.5-1.1c1.9,0,3.5,0,5.1,0c0,0,0-0.3,0-0.4
				c-0.8-0.1-1.7-0.1-2.8-0.2c1.6-2.9,3.4-0.3,5-0.3c2.1,0,4.2,0.9,6.3,1.4c0.1-0.3,0.1-0.6,0.2-0.8c-1.1-0.1-2.3-0.2-3.4-0.3
				c0-0.1,0-0.3-0.1-0.4c1-0.1,2-0.3,3-0.4c0-0.1,0-0.5,0-0.5c-1.5,0-3,0-4.5,0c0,0,0-0.2-0.1-0.3c0.7-0.1,1.3-0.1,2.9-0.4
				c-2.6-1.5-4.5-2.6-6.4-3.6c0.1-0.1,0.1-0.1,0.2-0.1c3.7,1.1,7.3,2.3,11,3.4c0,0-0.4,0.2-1,0.6c1.1,0.3,1.9,0.6,2.9,0.9
				c0.2-1.2,0.4-2.3,0.6-3.6c-0.8-0.1-1.7-0.2-2.6-0.3c0-0.1,0-0.3,0.1-0.4c2.6,0.1,5.1,0.3,7.8,0.4c-0.5-1.3-0.7-2.1-1.1-3
				c3.7,0.8,7.1,1.5,10.7,2.2c0.1-1.4,0.2-2.4,0.3-4c2.8,3.5,5.6,2.9,8.6,1.2c0.5-0.3,1.6,0.2,2.4,0.5c0.7,0.3,1.2,0.9,2.2,1.6
				c0-1.2,0-1.9,0-3.6c2,4.1,3.5,1.3,4.5,1.8c1.1,0.7,2.2,1.3,3.1,2.2c0.7,0.7,1.2,1.6,2.2,3c1.3-0.6,3.3-1.4,5.3-2.2
				c0.1-0.7-0.5-1-1.1-1s-1.2,0.2-2.5,0.5c-1.1-1.1-2.7-2.8-4.2-4.5c0.2-0.2,0.4-0.4,0.6-0.7c0.8,0.6,1.7,1.3,2.7,2
				c0.9-1.4,1.7-2.9,2.7-4.3c0.3-0.4,1-0.5,1.6-0.6c3.9-0.6,7.8-1.1,11.8-1.6c0.5-0.1,1.3,0,1.6,0.3c2.6,2.5,5.5,2.9,8.8,1.8
				c1-0.3,2.2-0.8,3.2-0.5c2.9,0.7,3.8-0.6,3.5-3.3c1.9,0.3,3.7,0.5,5.4,1s3.4,1.2,5.2,1.8c0.3-0.8,0.6-1.5,0.9-2.1
				c1.4,0.7,2.6,1.3,4.4,2.2c-1.8,0.4-3.2,0.9-4.7,1.1c-4.2,0.8-4.2,0.8-2.4,4.8c0.9,0.3,1.8,0.5,2.8,0.8c0,0.1,0,0.3,0,0.4
				c-0.6,0.1-1.2,0.1-2,0.2c0.4,0.6,0.8,1.1,0.8,1.2c-0.7,2.1-1.2,3.9-1.8,5.7c-1.6-0.9-4.3-0.2-4.7-3.2c-0.1-0.3-2-0.6-3-0.5
				c-3.1,0.3-6.2,0.8-9.3,1.2c-0.8,0.1-1.7,0-2.8-0.1c0.3,0.9,0.6,1.5,0.8,2.5c2.9,0,5.6,0,8.4,0c0,0,0.1,0.4,0.1,0.8
				c-3.8,0.9-7.8,1.3-11.5,2.6c-2.4,0.8-4.6,2-7.3,1.5c-0.5,0-1.1,1.3-1.4,1.7c-3.8,0.8-7.5,1.7-11.2,2.5C-8.4,78-8.5,76.3-9,76.3
				c-1.3-0.2-3.2-0.2-3.8,0.6c-1.5,2-3,0.8-4.6,0.7c-0.6-0.1-1.3-0.2-1.7,0c-1.3,0.7-2.3,1.4-3.3-0.5c-0.5-0.9-1.4-0.6-1.2,0.7
				c-1.2-0.1-2.6,0.2-3.4-0.3c-2.6-1.7-4.8-0.1-7.2,0.5c0.8,0.2,1.5,0.4,2.4,0.6c-3.8,4.1-8.2,2.1-12.8,0.7c0.6,1.3,0.8,1.7,1.2,2.4
				c-3,1.1-6.4-2.8-8.8,1.1c-0.9-0.8-1.8-1.5-2.6-2.2c-0.1,0.2-0.3,0.3-0.4,0.5c0.4,0.3,0.7,0.6,1.3,1.1c-1.5,0.8-2.8,1.6-3.6,2.1
				c-1.7-0.7-2.9-1.1-4.1-1.6c-0.1,0.2-0.1,0.5-0.2,0.7c0.8,0.9,1.6,1.6,2.9,3.6c-2.3,0-4.2,0-6.8,0c-0.2,0-0.8,1-1.8,2.3
				c-0.3-0.8-0.6-1.6-1-2.6c-0.1,0-0.9-0.3-1.7-0.5c-0.7,1-1.4,1.9-2.3,3.1c0.7,0.3,1.6,0.7,2.4,1.1c-2.9,1.8-4.7-0.4-6.8-1.6
				c-0.5-0.3-0.9-0.5-1.4-0.8c0.6,0.7,1.2,1.4,1.6,2.1c0.5,0.8,0.7,1.6,1.1,2.5c-0.9,0.1-1.7,0.3-2.6,0.3c-0.7-0.1-1.4-0.5-2-0.7
				c-0.4,1.3-0.7,2.3-1,3.4c-0.3,0-0.6-0.1-0.8-0.1c-0.2-1.1-0.4-2.2-0.6-3.7c-0.7,1.4-1.3,2.4-1.6,3c-1.3-1.3-2.5-2.5-3.8-3.8
				c0.5-0.1,1-0.2,1.9-0.4c-2.2-1.7-4.1-3.3-6.1-4.8c-0.2,0.1-0.3,0.3-0.5,0.4c0.7,0.9,1.3,1.8,2.1,2.8c-0.5,1.7-1.1,3.7-1.9,6.3
				C-94.2,94-96,93-97.9,92c0.9,2.8,0.7,6.2,5.3,6.5c-0.2,0.4-0.3,0.8-0.5,1.2c-2.5,0.3-5,0.6-7.7,0.9c0.4-1.5,0.6-2.5,1.1-4.1
				c-2.5,1.7-4.4,3-6.7,4.5c0.4-1.6,0.7-2.8,0.9-4c-0.1,0-0.2-0.1-0.3-0.1c-0.3,0.4-0.6,0.9-0.9,1.3c-0.9-1.1-1.8-2.1-2.6-3.1
				c2.4-1.4,2.9-1.2,4.7,1.3c1.7-1.7,1.6-2.2-0.7-4.1c-0.3-0.2-0.7-0.3-1-0.5c-1.7-0.6-3.4-1.2-5.1-1.8l0.1,0.1
				c-0.6-0.1-1.3-0.3-1.9-0.4c-0.1,0.2-0.3,0.4-0.4,0.6c1,0.9,2.1,1.7,3.4,2.8c-0.5,0.4-1.1,1-1.3,1.2c-0.2,1.7-0.3,3.1-0.4,4.5
				c-0.3,0-0.5,0-0.8,0c-0.4-0.5-0.7-1-0.9-1.3c-1.4,0.7-2.6,1.4-4.3,2.4c0.2-2.5-1.2-4.9,2.4-5.9c1.1-0.3,2.7-1.9,0.2-3.3
				c-1-0.5-1.7-1.5-2.5-2.3c-2.1-0.1-4.1-0.2-6.2-0.3c-1.6-1.6-3-3.6-4.9-4.7c-1.7-0.9-3.9-0.7-5.9-1c-0.1,0.4-0.2,0.7-0.3,1.1
				c1.5,0.7,3,1.3,4.5,2c-0.1,0.3-0.1,0.6-0.2,0.9c-2.3-0.4-4.6-0.8-7.6-1.4c1.8,1.4,3.1,2.3,4.9,3.7c-1.3,0.1-2,0.1-3,0.2
				c0.8,0.6,1.3,1,1.9,1.4c-4.5-2.8-9.2-0.1-13.7-0.6l0.2-0.1c-2,0.3-3.9,0.7-5.9,1c0,0.8,0,1.7,0,2.6c-2-0.1-4.6-3.9-7.2-1.3
				c-1-0.9-1.9-1.7-2.8-2.5c0-0.2,0-0.3,0-0.5c-0.1,0.1-0.2,0.1-0.4,0.2l-0.1-0.1c0,0,0,0.1,0.1,0.1c-1.6,0.8-1.9,1.9-3,2.3
				c-1.6,0.5-3.5,0.5-5.1,0.3c-3.4-0.5-4.3-0.1-5.4,3.3c0.5,0.2,1,0.4,1.5,0.6c0.4,0.2,0.8,0.3,1.1,1c-2.5-0.8-5.1-1.7-7.8-2.6
				c0.5-0.4,0.9-0.8,1.4-1.2c-0.1-0.2-0.1-0.3-0.2-0.5c-1.2,0.5-2.3,0.9-3.8,1.5c-1.1-2.1-2.6-0.8-4.1,0.9c-0.7-1.3-1.2-2.3-1.7-3.2
				c-0.1,0.5-0.3,1-0.4,1.5c0,0.9,0.1,1.8,0.1,2.6c-1.7-0.7-3.1-1.1-4.2-1.9c-0.5-0.4-0.7-1.6-0.5-2.3c0.2-0.6,1.1-0.9,1.7-1.3
				c-0.2-0.2-0.4-0.5-0.6-0.7c-1.3,1.3-2.6,2.5-3.9,3.7c1.1,1.4,1.9,2.4,2.4,3.1c-1.7,0-3.5-0.5-4.8,0.1c-1.6,0.7-2.7,2.3-4.4,3.8
				c1.1,0.5,1.8,0.8,2.7,1.2c-1.7,1.2-3.4,2.4-5.2,3.7c-0.1-0.2-0.2-0.7-0.4-1.4c-0.7,0.3-1.4,0.6-2.1,0.9c-0.1-1.3-0.2-2.4-0.3-3.5
				c-0.2,0-0.3,0-0.5,0c-0.1,0.7-0.3,1.5-0.5,2.8c-1.1-0.9-1.9-1.5-3-2.4c-0.3,2.4-4,2.7-2.9,6.1c0.3,1.1-1.8,2-3.4,1
				c-1-0.6-1.8-1.4-3-2.3c-0.2,2.7-1.3,4.1-4.1,4.4c-1,0.1-1.7,2.1-2.7,3.4c-0.4-0.1-1.1-0.3-1.8-0.5c-0.6,3.9-2.3,5.4-6.5,5.8
				c-0.3-0.8-0.8-1.7-1-2.6c-0.3-0.9-0.4-1.9-1.1-3c-0.4,2.1-0.8,4.1-1.4,6.9c-1.2-2-2-3.3-2.9-4.7c-0.7,1.4-1.3,2.5-1.9,3.7
				c-0.2,0-0.5-0.1-0.7-0.1c-0.1-1.1-0.1-2.2-0.2-3.7c-1.6,0.5-2.5,5-5.3,1.2c0.9-0.1,1.5-0.2,2.7-0.3c-0.7-0.5-1.1-0.9-1.3-0.9
				c-1,0.3-2.7,0.7-2.8,1.2c-0.5,2.7-2.7,2.7-4.1,3.4c-0.8-1.5-1.4-2.6-2.1-3.9c-2,1.9-3.1,4.2-5.9,3.2c-0.1,0-0.6,0.9-0.8,1.4
				c-0.2,0.4-0.4,0.9-0.6,1.3c-0.3-0.3-0.5-0.7-0.9-1c-0.6-0.4-1.9-0.7-1.9-1.1c0,60.3,0,120.1,0,181.1c238,0,476,0,714.1,0
				c0-16,0.1-31.7,0.1-47.6C442.3,106.3,442.3-41.7,442.2-189.6z M-202.1,54.2c-1.3,1-2.8,1.7-4.6,2.9c-1.3-1.6-2.7-3.3-3.6-4.5
				c-2.4,0.4-4,0.7-5.6,1c0.3,1.3,0.5,2.7,0.8,4c-0.3,0.1-0.5,0.2-0.8,0.3c-0.6-0.8-1.1-1.7-1.8-2.7c-0.6,0.4-1.2,0.8-2,1.3
				c0.1-1.2,0.1-2.2,0.2-3.1c0.8,0,1.6-0.1,2.3-0.1c-0.5-0.4-1-0.7-1.9-1.3c1.8-0.7,4.3-0.2,3.4-3.2c-0.9-0.1-1.9-0.1-2.8-0.2
				c0-0.1,0-0.2,0-0.3c1.5-0.1,3.1-0.2,4.7-0.3c-0.4,0.8-0.8,1.5-1.4,2.6c4,0,7.5-0.1,10.9,0.1c1,0.1,2,0.9,2.9,1.5
				C-201.6,52.9-201.6,53.8-202.1,54.2z M-197.2,48.2c2.3,3.1,6.9,1.2,8.9,4.7c-4.1,0.4-7.7,0.7-11.5,1c-0.2-0.3-0.7-1-1.3-1.7h0.2
				c0-0.8,0-1.5,0-2.6c1,0.1,1,0.3,2,0.4c0-1.1,0-2.2,0-3.2c5,0,9,0,13.3,0c0,0,0,0.2,0.1,0.3C-189.3,47.5-193.1,47.9-197.2,48.2z
				 M-114.6-99.6c-0.7,0.3-1.1,0.5-1.7,0.8c0.5,0.4,1,0.8,1.4,1.2c-2.7,0.3-3,0-5.2-4.7C-118.2-101.4-116.6-100.6-114.6-99.6z
				 M-122.4,68c-0.2,0.5-1.8,0.6-2.7,0.4c-1.6-0.3-3.1-0.9-4.6-1.4c1.7-0.5,3.3-0.9,5-1.4c0.7-0.2,1.3-0.6,2.7-1.3
				C-122.1,65.4-121.9,66.8-122.4,68z M-106.9,66.7c-1,0.7-1.6,1.5-2.6,2.3c-2.8-0.9-6.1-1.9-9.4-3c0-0.3,0.1-0.6,0.1-0.9
				c1.7-0.3,3.4-0.5,5.5-0.8c-0.4,0.8-0.7,1.4-1.2,2.4c2.7-0.5,5.6-0.9,7.6-1.4C-106.9,65.5-106.9,66.1-106.9,66.7z M-103.6,66.4
				c-0.5-3-2.6-4-5.5-3.7c0.1-0.3,0.2-0.5,0.3-0.8c1.9,0.6,3.9,0.9,5.5,1.8C-102.3,64.3-101.1,65.9-103.6,66.4z M-84.3-88.9
				c1.6,1.8,3.3,3.6,4.9,5.4c-1.5-1.8-5.6,1.9-6-3.1c-0.7,0.4-1.4,0.9-2.4,1.5c0.2,0.6,0.7,1.9,1.2,3.1c-0.2,0.2-0.5,0.4-0.7,0.6
				c-1.4-1.2-2.7-2.4-4.4-3.8c0,0.8-0.1,1.4-0.1,2c-0.2,0.2-0.4,0.3-0.5,0.5c-0.9-1.3-1.8-2.6-2.4-3.5c0.5-1.4,1.1-2.5,1.2-3.6
				c0-0.6-0.8-1.3-1.3-1.9c-0.2,0.7-0.4,1.4-0.6,2c-3.3-0.9-3.5-1.3-1.8-3.6c-1.4,0-2.8,0-4.4,0c0.2,3.1-2.2,1.8-3.7,2.2
				c1.4,2,2.8,4,4.3,6.3c-0.1,0.1-0.3,0.8-0.7,1.5c-0.8-0.2-1.8-0.3-2.8-0.5c-0.2-0.8-0.5-1.7-0.6-2.1c-2.1-0.2-3.8-0.4-5.8-0.6
				c0,0.9,0,1.7,0,2.6c0,0-0.6,0.1-0.9,0.1c-0.4-1.1-0.8-2.2-1.2-3.2c-1.5-0.4-3.1-0.8-4.6-1.2l0,0c-2-0.9-3.9-1.9-6-2.9
				c-0.2,0.2-0.8,0.9-1.4,1.6c-0.2-0.1-0.5-0.3-0.7-0.4c0.1-0.9,0.1-1.8,0.2-3c2.2,0.2,4.3,0.5,7.3,0.8c0.8-1.2,2.2-3.1,3.6-5.1
				c1.5,1.3,3,2.6,4.5,3.8c0.7-0.5,1.7-1.4,2.7-2.2c0.5,0.7,1,1.4,1.8,2.7c1.2,0.5,2.3-0.2,3.5-1.7c1.1-1.3,2.7-2.2,4.2-3.3
				c0.4,0.8,0.8,1.5,1.4,2.7c0.9-1,1.7-1.8,2.5-2.7c0.1,1,0.3,2,0.4,2.9l0,0c0.3,1,0.4,2,0.8,2.9c0.6,1.3,1.5,2.4,2.3,3.6
				c1.3,0.2,2.7,0.5,4.7,0.8c-1.1-1-1.9-1.7-2.9-2.6C-86.7-91.5-85.1-91.4-84.3-88.9c2.2-2.3,4.7-1.2,6.2,2.9
				C-80.3-87-82.3-88-84.3-88.9z M-166.5,97.2c-0.2-0.2-0.9-0.9-1.4-1.6c-0.3,0,0,0.1-1,0.1c0,1.2,0,2.5,0,3.7
				c0-0.1-0.9-0.1-1.4-0.2c0.4-1.9,0.6-4,1.6-5.5c0.8-1.2,1.9-2.7,4.9-1.3c0-0.9,0-1.7,0-2.6c0.2,0.4,0.4,0.8,0.5,1.2
				c1.1,3.1,1.1,3.1,4.7,2.7c-4.5,2.6,0.3,4.1,0.2,6.4C-160.8,98.3-163,96.5-166.5,97.2z M245.1-80.6c-0.2-0.7-0.5-1.3-0.7-2
				c0.8-0.7,1.6-1.4,2.8-2.3c0.5,0.7,1.1,1.6,1.9,2.8C247.7-81.5,245.4-84.3,245.1-80.6z"/>
		</g>
		<path d="M-172.3-7.7c0.7-0.3,1.4-0.6,2-0.8c0.1-1.2,0.2-2.3,0.4-4.1c-0.9,1.3-1.3,2-2.2,3.4c-1-2.2-1.8-3.9-2.4-5.4
			c-0.2,0.2-0.8,0.9-1.4,1.5c-1.1-2.6-2.1-5.2-3.4-8.3c-1.8,1-3.2,1.8-5.2,3c2.1,1,3.6,1.4,4.7,2.3c0.8,0.6,1.7,1.9,1.7,2.8
			c0,0.8-2,2.2-2,2.1c-3.9-3.7-8-1.7-12-0.3l0.1-0.2v0.2c-0.8-0.4-1.6-0.7-2.3-1.1c-1.1-0.2-2.2-0.3-3.3-0.5c-4-2.4-4-2.4-5.2-1.3
			c1.1,0.5,2.2,1,3.9,1.7c-2.3,0.7-4,1.5-5.7,1.5s-3.3-1-5-1.5c-0.1,0.2-0.1,0.3-0.2,0.5c1.8,0.8,3.7,1.6,5.5,2.5l0.1-0.1
			c-1.2,0.3-2.4,0.5-3.6,0.8c-1.5,0.4-1.4,1.1-0.1,1.8c-1.7,0-3.4,0-5.1-0.1c0.1-0.8,0.2-1.6,0.2-2.5c-2.1-0.3-3.9-0.5-5.7-0.8
			c-0.1,0.5-0.2,1-0.3,1.5c2,0.5,4,1.1,6,1.6c0.3,3.3,2,4.2,5,2.9c0.4-0.2,1.1,0.2,1.7,0.4c-0.3,0.7-0.5,1.3-0.8,2
			c2.7,0.4,2-1.8,2.7-3.3c-1.3-0.7-2.4-1.2-3.5-1.8c1.3-0.1,3.4-0.6,3.8-0.1c1.5,2.4,3,5,3.6,7.7c0.5,2.3,1.2,4,3.5,4.5
			c1.7,0.4,3.6,0.1,5.7,0.1c-0.3-1.1-0.6-1.9-0.9-3.1c1.6,0,3,0,4.7,0c-4.2-1.4-5.7-4.5-6.1-8.3c1.2,2.2,2.6,4.3,5.4,4.6
			c1.9,0.2,3.9,0.3,5.8,0.4c0-0.2,0.1-0.5,0.1-0.7c2.1,0.8,2.2,5.3,5.8,3.2c0.7-3.1,1.2-3.1,3.8-1.8c1.7,0.8,3.1,1.4,3.7,3.4
			c0.1,0.3,1.3,0.3,2.3,0.6c-0.9-1.5-1.4-2.5-2-3.5c0.2-0.2,0.4-0.4,0.5-0.6c1,0.3,2,0.7,3.2,1.1c0.1-2.8,1.3-3.4,4.3-1.9
			c-1.3,0-1.9,0-2.5,0c0,0.2-0.1,0.5-0.1,0.7c1.8,0.2,3.7,0.5,5.7,0.7c0.1-0.3,0.4-0.8,0.5-1.1c0.9,0.2,1.8,0.2,2.5,0.5
			c1.7,0.8,3.3,1.7,4.9,2.6c0.8,0.5,1.5,1.1,2.2,1.6c0-2.5-0.6-4-2.9-3.9c-0.3,0-0.6-0.5-0.9-0.7h-0.1c1.8-0.2,4.3,2.1,5.2-2.3
			c1,2,1.6,3.2,2.5,5c1.1-1.2,2.2-2.3,3.5-3.6c0,1.1,0,2,0,3.1c3.1-0.8,6-2.2,8.8-2.1c2.6,0.1,5.1,1.7,7.2,2.5
			c0.5-1.5,0.8-2.5,1-3.1c2.3,0.8,4.2,1.5,6.1,2.2c0.3-1.1,0.7-2.3,1.1-3.7c0.4,0.8,0.8,1.7,1.3,2.6c0.3,0.4,0.8,0.9,1.2,0.9
			c0.4,0,0.9-0.5,1.1-1c0.3-0.5,0.2-1.1,0.5-2.7c1.4,1.2,2.2,2.4,3.1,2.5c3.2,0.3,6.4,0.2,9.7,0.1c0.7,0,1.5-0.3,2.2-0.7
			c2.1-1.4,3-1.2,4,1c0.2,0.4,0.3,0.8,0.7,1.6c1.1-2.3,2-2,2.7,0.4c0.4-1.5,0.6-2.3,0.7-2.9c-1.2-0.4-2.2-0.6-3.1-0.9
			c-2.4-1-4.5-2.9-7.4-1.1c-0.2,0.1-1-0.7-1.5-1.1l-0.1,0.1c2.5-1.2,4.9-1.1,7.4,0.2c1.4,0.7,3,1.2,4.5,1.8c0-0.2,0.1-0.3,0.1-0.5
			c-1.4-1.3-2.8-2.6-4.4-4c-0.1,0.1-0.5,0.6-1.4,1.7c0.2-1.7,0.3-2.5,0.4-3.3c2.5,0.4,4.8,0.8,6.8,1.2c-0.2,0.8-0.4,2.1-0.7,3.6
			c2.1,0.2,3.8,0.4,5.2,0.6c0.1-1.2,0.2-2.9,0.4-2.9c1.5,0,3.1,0.2,4.7,0.4c0-0.5-0.1-1.3-0.3-2.6c1.3,1.1,2.2,1.9,3.4,2.8
			c0.5-0.5,1.5-1.3,2.3-2c1.7,0.3,3.5,0.6,5.5,0.9c-0.6-1-1-1.7-1.8-2.9c3.6,1.1,6.5,2.3,9.5,2.7c2.6,0.3,5.2-0.5,7.9-0.7
			c2-0.1,4.4-0.9,5,2.3c0.1,0.7,1.3,1.2,2.4,2.1c0.1-1.1,0.2-1.6,0.2-1.7c1.1,0.6,2.6,2,3.3,1.7c2.5-1.3,4.7-1.5,7.3-0.1
			c2.7,1.5,5.7,2.3,8.5,3.5c1.2-0.5,2.6-1.1,3.9-1.7c0.1-2.1,0.5-4.5-1.3-6.5c-0.1-0.1,0.7-0.9,1-1.4c1.4,1.3,3.2,2.3,4.2,3.8
			c1.9,3,3.4,3.6,6.7,1.9c-0.4-0.6-0.8-1.3-1.5-2.3c2.1,0.1,3.7,0.2,5.4,0.2c-0.7,1.2-1.2,2.1-1.8,3.1C-6.6-3-5.8-3.2-5-3.5
			c0.9-0.4,1.8-0.7,2.5-1.3C-0.1-7,1.2-6.9,3.3-4c2.3-0.8,4.6-1.6,7.2-2.4C10.7-5,10.8-4,11-2.6c1.2-0.6,2.1-1.1,3.3-1.7
			c-0.8-0.5-1.2-0.8-2-1.4c4.4,0.4,1.7-3.5,3.2-4.4c0.3,4.7,0.6,9.4,0.9,14.5c4.2-3.2,1.3-7.2,2-10c4.2-2.2,8.4-1.7,13.2-1.7
			c-0.8,1-1.2,1.7-1.8,2.2c-6.3,5.3-12.7,10.5-19,15.8c-0.8,0.7-2,1.5-2.1,2.2c-0.2,4.9-0.1,9.8-0.1,15.3
			c11.7-6.4,22.3-13.4,31.3-23c-0.9-1.5-1.8-2.9-2.7-4.3c-1.5-2.4-3.3-4.6-4.5-7.2c-0.7-1.6-1.3-2.5-3.2-2.4
			c-1.5,0.1-3.1-0.5-4.6-0.7c0-0.3,0.1-0.6,0.1-0.9c3.3-0.3,6.7-0.7,10-1c0,0.2,0.1,0.5,0.1,0.7c-0.6,0.2-1.2,0.3-1.6,0.5
			c0.6,1.5,0.8,3.7,1.7,4c1.3,0.4,3-0.6,4.5-1c0.5-0.1,0.9-0.3,1.4-0.5c-0.8,0.5-1.6,0.9-2.4,1.4c0.1,0.3,0.2,0.6,0.2,0.9
			C40.2-5.2,41.4-5,43-4.9c-0.2,1.1-0.4,2.4-0.6,3.8c1.1-0.6,1.6-1.4,1.9-2.4C44.7-4.6,44.9-5.8,45-7c0-0.5-0.6-1-0.9-1.5
			c1.6,0,3.2-0.2,4.7-0.1c1.8,0.2,3.4,0.3,3.3-2.3c0-0.4,0.7-1.1,1.1-1.1c2.7,0.3,6-1.7,7.6,2.1c1.3-0.6,2.5-1.2,3.6-1.7
			c-0.5,0.6-1.1,1.2-1.6,1.8c0.6,0.4,1.1,1,1.7,1.1c1.3,0.3,2.7,0.4,4.5,0.6c-0.3-1-0.5-1.7-0.8-2.4c1.4,2.3,3.5,2.9,6,2.6v0.1
			c1.6,0.3,3.2,0.6,5,1c0-0.1,0.1-0.7,0.3-1.6c1.1,0.9,1.9,1.5,2.7,2.1l0.1-0.1c-1,0.3-2,0.6-2.8,0.8c1,1.5,1.9,2.9,2.9,4.4
			c0.3-0.2,0.6-0.4,0.9-0.5c-0.4-0.6-0.8-1.1-1-1.7c-0.1-0.2,0.4-0.5,0.6-0.8C83.4-4.1,84-4,84.5-3.9c0.7,1.2,1.3,2.5,2.1,3.9
			c-1.9,0.1-3.2,0.2-4.5,0.3c0,0.2,0,0.5,0.1,0.7c2.3-0.1,4.5-0.2,6.9-0.4c-0.6-0.5-1-0.9-1.6-1.5c1.5-0.2,2.7-0.3,3.8-0.4
			c0.5,0.7,0.9,1.3,1.6,2.2c0.6-1.1,0.9-1.8,1.2-2.4C94.5-1,95-0.6,95.6,0c-0.5-2.7,1.3-1,2.5-1.3c-3.4-0.2-5.2-2.1-5-4.9
			c0.3-4,4.2-2.4,6.6-3.4c-1-0.8-1.8-1.6-2.6-2.3c1.3,0.1,2.2,1.1,3.2,1.2c1.7,0.2,3.5,3.3,4.9-0.1c0.7,2.6,1.4,5.2,2.1,7.8
			c0.2-0.2,0.5-0.4,0.7-0.7c1.3,0.1,2.6,0.2,4.5,0.3c-1.1-0.8-1.6-1.4-2.3-1.8c-2.6-1.6-2.6-1.9,0.2-3.6c-1.4,1-1.1,1.9,0.1,2.8
			s2.5,1.7,3.9,2.6c-0.1-0.6-0.2-1.2-0.4-1.7c2,0,3.9,0,5.7,0c0.5,0,1-0.3,1.4-0.5c0.6-0.4,1.1-1.2,1.7-1.2c1.9-0.1,3.9,0.1,5.8,0.2
			c0.2-0.7,0.4-1.5,0.7-2.5c-4.1-1.9-8-3.7-12.7-3.1c-1.3,0.2-3.3,0.7-3.8-1.7c-0.7-0.3-1.3-0.5-2-0.8c0.2-1.5,0.5-3,0.7-4.5
			c-1.9-0.2-3.8-0.5-6.1-0.7c0.4-0.9,0.8-2.1,1.5-3.1c0.1-0.1,1.6,0.6,2.4,1c0.5,0.2,1.2,0.8,1.6,0.7c3-1.1,4.8,1.2,7,2.4
			c-1.1,0.7-2.2,1.4-3.5,2.1c1.9,1,3.5,1.9,5.4,2.9c-0.2-0.6-0.4-1.1-0.6-1.9c3.1,0.9,6.4-2.9,8.8,1.3c0.4-0.5,0.5-1.1,0.8-1.1
			c4.1-1,8.1-1.8,12.3-0.7c0.9,0.2,1.8,0.6,2.6,1c0.7,0.3,1.2,0.9,1.8,1.3c-0.1,0.2-0.3,0.3-0.4,0.5c-2.2-0.5-4.4-1-7.1-1.6
			c-2.3-1.7-4.6,1.2-7.5,1.3c1.3,0.9,2.4,1.6,3.8,2.4c-0.9,0.3-1.5,0.5-1.7,0.6c1.2,2.2,3,2.4,5.6,2.1c3-0.4,4.1-1.3,3.1-4.6
			c2.9,2.4,5.3,4.6,8.2,7.1c-0.4-1.8-0.6-3-0.9-4.7c1.1,0.7,1.5,0.9,1.9,1.2c1.6,1,3.1,1.9,4.7,2.9c0.3-1.7,0.5-3.3,0.7-4.7
			c-1.5-0.5-2.6-0.9-3.7-1.3c0.1-0.3,0.2-0.7,0.4-1c0.8,0.3,1.6,0.6,2.5,0.9c0.2-3.8,3.6-4.1,6-5.7c-0.4-0.7-0.8-1.5-1.2-2.2
			c1.4,0.4,3.1,1,3.3,2c0.9,4.5,0.5,9-1.5,13.3c2.6-0.9,5-1.8,7.4-2.6c-0.4-0.8-1-1.8-1.8-3.3c1.9,0.7,3.6,0.8,4.1,1.6
			c0.9,1.8,2,1.5,3.4,1.1c0.1,0,0.3-0.1,0.6-0.2c-1-0.3-1.6-0.6-2.2-0.8c0-0.3,0-0.5-0.1-0.8c1.2-0.3,2.5-0.5,4.6-1
			c-0.6-2.5-1.2-5.1-1.8-7.6c0.2-0.2,1.1-0.6,1.3-1.3c0.3-0.8,0-1.8,0-2.7c0.7,1.3,1.3,2.6,2.1,4c3.7,0.3,7.6,0.5,12.1,0.9
			c-1.8,1.3-2.9,2.7-4.2,2.9c-1.6,0.3-3.3-0.3-5-0.5c0,0.4-0.1,0.7-0.1,1.1c1.4,0.2,2.9,0.4,4.3,0.5c0,0.3-0.1,0.5-0.1,0.8
			c-2.5-0.2-5-0.5-7.6-0.7c0,1.8,0,3.4,0,4.2c1.5,0.1,2.9-0.1,3.9,0.4c5,3.1,10.6,4,16.2,5c1.1,0.2,2.2-0.1,3.3-0.2
			c0-0.3,0.1-0.6,0.1-0.9c-5-1.2-10.1-2.3-15.1-3.5c6.7-1,13.2-1.5,19.7-2c0.9-0.1,1.8-0.7,2.3-0.9c1,0.3,1.8,0.7,2.6,0.7
			c2-0.1,3.9-0.4,5.9-0.5c3.6-0.3,3.6-0.8,3-4.5c-0.3-2,0.9-4.3,1.9-6.3c0.5-1,2-1.6,3.1-2.5c-3.9-2.2-7.5-3-10.9-1.7
			c-1.7-0.4-2.9-0.6-4.1-0.9c-0.1,0.1-0.2,0.1-0.4,0.2c-2-0.5-3.8-0.5-4.6,1.3c-2.8-0.7-5.6-2.2-8-1.8c-5,0.9-9-0.1-11.8-3.2
			c-1,1-2.2,2.7-2.7,2.5c-3.1-1-3.9,1.4-4.9,2.7c-1.7-0.8-3.4-1.6-5-2.4c-0.2,0.3-0.4,0.7-0.6,1c1.6,1.4,3.2,2.9,4.8,4.3
			c-1.2-0.3-2.3-0.6-3.5-0.9c-1.2-1.6-2.2-3-4.8-2.3c-1.3,0.3-3-1.1-4.5-1.5c-2.6-0.6-5.2-1.1-7.8-1.6c-0.3-0.1-0.6,0-0.9,0
			c-2.2,0-4.3,0-6.4,0c0.1,0.3,0.2,0.7,0.4,1.6c-1.5-1.1-2.5-1.8-3-2.2c-1.7,0.5-3.1,1.5-3.9,1.2c-2.4-0.9-4.5-1.4-7.2-1
			c-3.4,0.4-7-0.2-10.5-0.3c-1.6,0-3.2,0.5-4.8,0.3c-2.6-0.3-5.1-1.1-7.6-1.6c-0.5-0.1-1,0.5-1.6,0.8c3.1,0.1,2.2,4.7,5.5,4.3
			c2.4-0.2,4.9,0.3,7.4,0.6c0-0.1,0-0.2,0.1-0.3c-0.5-0.2-1.1-0.4-2-0.8c2.5-1.5,3.8-0.7,4.5,1.1c2.5,0,4.8,0,7.1,0
			c-0.6,0.6-1.2,1.7-1.8,1.6c-6-0.5-11.9-1.1-17.8-1.8c-0.4,0-1-0.5-1.1-0.8c-0.6-3-3.1-2.7-5.1-2.7c-3,0.1-6,0.1-8.8-0.9
			c-0.5-0.2-0.8-0.8-0.7-0.7c-1.7,0.1-3,0.6-4.1,0.2c-1.2-0.4-2.3-1.4-3.4-2.2c0.1-0.2,0.2-0.4,0.3-0.7c-0.9,0-1.7-0.1-2-0.1
			c0.9,1.6,1.8,3.2,2.7,4.9c0,0.5,0,0.9,0,1.4c-0.5,0.7-0.9,1.4-1.5,2.3c1.9,0.2,3.6,0,5,0.7c2.2,1,3.9,0.8,5.6-0.7h-0.1
			c1.2,0.4,2.4,0.7,3.4,1c-0.1,1.1-0.2,2-0.2,2.9c-1.9-2.7-4.3-2.2-6.8-0.9c2.3,0.3,4.5,0.6,6.8,0.9c0.3,0.6,0.5,1.1,0.9,2
			c-4.5,0.8-8.7,1.5-12.7,2.2c-0.5-1.9-1-3.6-1.2-4.4c-2.5-1.5-4.4-2.7-6.4-3.9c0.2-0.5,0.3-1.2,0.5-1.9c-1.7,0-3.1,0-4.9,0
			c1.3,0.6,2.2,0.9,3.1,1.3c-0.9,0.8-1.7,1.1-2.6,1.2c-2.7,0.2-5.3,0.2-8,0.5c-0.4,0-0.6,1.2-1.1,1.7c-0.4,0.5-1,1.2-1.5,1.3
			c-0.4,0.1-1-0.6-0.8-0.5c0.6-1.1,1.2-1.6,1.2-2.3c0.1-0.9-0.3-1.9-0.2-2.7c0.4-2.2-1-3.3-2.6-2.7c-4.5,1.8-10.2-2.3-13.8,3.2
			c-0.1,0.1-0.4-0.1-0.6,0c-2.3,0.9-4.6,1.8-7.1,2.8c-0.3-0.3-1.1-0.9-1.9-1.4c-0.4-0.2-1.1,0-1.7,0c0.3-0.6,0.6-1.1,1-2
			c-2-0.2-3.7-0.6-5.5-0.6c-0.6,0-1.8,0.4-1.9,0.8c-0.4,2.4-2.2,2-3.8,2c-3.3,0-6.5,0-9.8,0.2c-1.1,0.1-2.1,0.7-0.9,2.1
			c0,0-0.2,0.3-0.3,0.5c-0.7,0-1.5,0-1.7,0c-0.2-0.9-0.2-1.7-0.5-2c-1.1-1-2.4-1.7-3.6-2.5h0.2L16-26.3c0.3,0.8,0.5,1.7,0.8,2.5
			c-0.6-0.1-1.5-0.6-2.1-0.3c-3.7,2-5.3-0.7-7.1-3c-0.4-0.6-1.1-1.1-1.8-1.3c-2.7-0.8-5.5-1.9-8.3-2c-4.4-0.2-9.1-0.4-13.2,0.9
			c-2.8,0.9-5,3.6-8.6,3.1c-1.9-0.3-3.8,0-5,0c-1.3,0.3-2,0.6-2.7,0.5c-0.4,0-0.8-0.5-1.4-1c0.7-0.2,1.1-0.3,1.4-0.3
			c-1.6-2.2-3.3-1.3-5,0c-0.9,0.7-1.7,1.6-2.6,2.1c-0.7,0.4-1.6,0.3-2.5,0.3c-0.1,0-0.2-1-0.3-1.5c-1.3,0.1-2.7,0.3-4.1,0.4
			c0.1,0.6,0.3,1.2,0.4,1.8c-1.4-0.2-2.7-0.3-4.3-0.5c0.6-1.1,1.1-2,1.8-3.3c-1.2-0.1-2.1-0.3-2.8,0c-0.4,0.1-0.6,1.1-0.6,1.7
			c0,0.3,0.5,0.7,0.8,1c-0.5,0.2-0.9,0.6-1.5,0.7c-2.4,0.5-4.9,0.9-7.4,1.3c0.3,0.7,0.4,1.1,0.6,1.5c-0.6-0.2-1.2-0.3-1.7-0.6
			c-1.8-1-3.5-2.9-5.4-3c-5.4-0.2-10.7,0.3-16.1,0.5c-0.4,0-0.8,0.6-1.2,1c0.5,0.3,1,0.8,1.5,0.9c1.1,0.2,2.2,0.1,3.3,0.2
			c0.1,0.4,0.1,0.9,0.2,1.3c-1.4,0.3-2.8,1-4.1,0.8c-0.9-0.1-1.7-1.3-2.9-2.3c-0.3,0.5-0.7,1.3-0.9,1.8c-3.9-0.2-7.8-0.2-11.6-0.6
			c-2-0.2-2.9,0.1-2.8,1.6c-3.2,0-6.2,0-8.8,0c-2.3-3.2-5-0.8-7.3-0.7c1.3,0.1,2.6,0.2,4.2,0.2c-1.3,4.1,1.5,1.8,3.2,1.9
			c-0.9,3-3.8,1.3-5.1,2.5c0,0.6-0.1,1.7-0.1,1.7c-2.6,0-5.2,0-7.7-0.1c0,0-0.1-0.3-0.1-0.7c0.8-0.1,1.6-0.2,2.4-0.3
			c0-0.2,0-0.4,0.1-0.7c-3.8-0.6-7.6-1.2-12-1.9c1.2-0.7,1.7-1,2.4-1.4c-2.6-3.4-3.6,0.3-6,0.9c2,1.1,3.5,1.9,5,2.7
			c0.7,0.4,1.5,0.7,2.3,1c-0.4,0.4-0.8,0.8-1.2,1.2c-0.2,0.2-0.5,0.5-0.7,0.7c-0.4-0.7-0.8-1.4-1.2-2.1c-3.1,1.3-3.1,1.3-4.2,0.5
			l0.1,0.1c-1.6-2.4-4.1-2.9-6.8-2.8c-1.2,0-2.7-0.3-3.6,0.3c-2.3,1.4-2.3,3.6-1,5.7c-1.5-0.5-2.9-0.9-4.3-1.4
			c0.2-1,0.8-2.9,0.7-2.9c-1.7-0.6-3.5-1-5.2-1.5c0,0.2,0,0.5,0,0.7c1.4,1.2,2.8,2.3,4.2,3.5c-1.9,0.1-3.9,0.4-5.1-1.7
			c0-0.1-0.1-0.2-0.1-0.3c-2.7-0.9-5.4-1.9-8.1-2.8c-0.1,0.3-0.2,0.6-0.3,0.9c1.2,1.7,6.1-0.8,4.6,4.2c-2.5-0.6-4.9-1.1-7.9-1.7
			c1.2,2.7,4.8,3.7,3.2,7.3C-167.9-7.4-170.2-7.5-172.3-7.7L-172.3-7.7z"/>
		<path d="M159.7,89.7c-0.8,0.7-1.8,2.2-2.4,2.1c-3.5-1.1-4,2-6,4c2.2,0.7,4,1.3,5.8,1.8c0.1-0.3,0.2-0.5,0.3-0.8
			c-1.3-0.7-2.6-1.4-3.9-2c1.2-0.2,2.3-0.5,3.4-0.7c1.1-0.2,2.1-0.4,3.2-0.4c1.5-0.1,3,0,4.5,0c0.1-0.4,0.1-0.9,0.2-1.3
			c-1.1-0.7-1.6-2.4-3.7-1.3C160.9,91.1,160.2,90.1,159.7,89.7c2.5,0.5,5.1,1,7.9,1.5c0.1-0.4,0.3-1.4,0.6-2.5
			c1.2,0.5,2.2,0.9,3.7,1.5c-0.6-1.1-1-1.6-1.7-2.8c2.7,0,4.9,0,6.9,0c0.4-1.2,0.9-2.3,1.4-3.6c1.4,0.9,2.6,1.7,3.9,2.5
			c0.3-0.2,0.5-0.4,0.8-0.6c-0.9-1.3-1.4-3.1-2.6-3.7c-1.3-0.6-3.2-0.1-4.3-0.1c-0.4,1.6-0.6,2.8-0.9,4c-1.3-0.6-2.8-1.8-4.2-1.8
			c-3.8,0.1-7.5,0.8-11.2,1.4c-0.9,0.2-2.2,1.1-2.3,1.8C157.4,88.3,157.7,90,159.7,89.7z"/>
		<path d="M128.9,29c0.1,2.3,0.2,4.7,0.3,7c10-0.5,8.9,0.5,8.2-7.4C134.8,28.7,132,28.9,128.9,29z"/>
		<path d="M141.3,23.6c1.7-1,1.5-2.6,0.9-4.6c-0.4-1.3-0.7-2.8-0.9-4.2s-0.2-2.9-0.3-4.6c-2.3,0.1-4.3,0.2-6.5,0.4
			c0,2.1-0.2,4,0.1,5.8c0.1,0.6,1.7,1.7,2.1,1.5c1.9-0.9,3.5-0.6,4.3,1.1C141.5,20.3,141.2,22,141.3,23.6z"/>
		<path d="M106.7,12.4c-7.7-0.4-7.4,0-6.5,7c2.1-0.1,4.2-0.3,6.5-0.4C106.7,16.8,106.7,14.7,106.7,12.4z"/>
		<path d="M110.7,31.3c0-0.2,0.1-0.3,0.1-0.5c-2.5,0.1-5,0.3-7.2,0.4c0.4,0.4,1.3,0.8,1.4,1.4c0.5,2.6,0.6,5.3,1,7.9
			c0.1,0.6,0.6,1.1,0.8,1.6c0.5-0.4,0.9-0.8,1.2-1c1,0.5,2,0.9,3.2,1.5c0-2.5,0-4.3,0-5.5c-1.5,0.2-3,0.4-4.6,0.6
			c0.2-2.3,0.4-4,0.6-5.8C108.6,31.6,109.6,31.4,110.7,31.3z"/>
		<path d="M59.3,57c-3.2,0-6,0-9,0c-0.2,0.6-0.5,1.3-0.6,1.5c0.8,1,1.5,1.8,2.1,2.5c-0.8,0.2-1.7,0.3-2.5,0.5
			c-0.4,0.1-0.8,0.5-1.2,0.7c0.2,0.3,0.3,0.7,0.5,1c1.8-0.8,3.6-1.6,6-2.7c0.8-0.2,2.3-0.7,4.2-1.3c0.2,0.2,0.9,0.7,1.6,1.3
			c0.2-0.1,0.4-0.3,0.6-0.4C60.3,59,59.7,57.7,59.3,57z"/>
		<path d="M158.2,9.8c0,2-0.1,3.9,0.1,5.7c0,0.5,1,1.4,1.4,1.3c0.7-0.1,1.7-0.8,1.8-1.3c0.2-2,0.1-4,0.1-6.2
			C160,9.6,159.2,9.7,158.2,9.8z"/>
		<path d="M47.4,60.3c-0.4-1.1-0.8-2.1-1.2-3.3c-2.7,0.6-5.3,1.2-7.8,1.8c0.1,0.2,0.2,0.4,0.2,0.6c1.1,0.4,2.2,0.8,3.3,1.2
			c-1,1.3-1.7,2.2-2.8,3.5c1.8-0.3,2.9-0.5,4.1-0.7c-0.4-1.3-0.8-2.4-1.4-4.3C43.9,59.5,45.5,59.8,47.4,60.3z"/>
		<path d="M70.9,25.9c0.4,0.3,0.7,0.6,1.1,0.8c3.1-3.3,6.3-6.6,9.4-10c-0.2-0.2-0.4-0.4-0.6-0.6C77.4,19.4,71.8,20.2,70.9,25.9z"/>
		<path d="M162.2,12.5L162.2,12.5c0,0.8-0.1,1.6,0.1,2.3c0.2,0.6,0.7,1.2,1.1,1.8c0.4-0.6,1-1.1,1-1.7c0.1-1.4,0.1-2.9-0.1-4.3
			c-0.1-0.5-0.7-0.9-1.1-1.3c-0.3,0.4-0.8,0.8-0.9,1.2C162,11.1,162.2,11.8,162.2,12.5z"/>
		<path d="M38.9,36.3c-0.3,0-0.5,0-0.8,0c0,3.2,0,6.4,0,9.9C40.9,42.7,39,39.4,38.9,36.3z"/>
		<path d="M56.7,28.3c-2.1,0.2-3.8,0.4-5.7,0.6c0.1,1,0.2,1.9,0.2,2.4c1.9-0.1,3.5-0.2,5.4-0.3C56.6,30.4,56.6,29.5,56.7,28.3z"/>
		<path d="M146.5,17.7c-1.2-2.3-2.3-4.5-3.4-6.5C141.7,13.3,142,13.8,146.5,17.7z"/>
		<path d="M50.5,55c0-0.2-0.1-0.5-0.1-0.7c-2.8,0.1-5.6,0.3-8.4,0.4c0,0.4,0.1,0.7,0.1,1.1C44.9,55.6,47.7,55.3,50.5,55z"/>
		<path class="st3" d="M-119.3,75.6c1.9,0.9,3.9,1.9,5.8,2.8c0.1-0.2,0.2-0.4,0.3-0.6c-0.5-0.4-1-0.8-1.5-1.1c2-0.7,4-1.4,6-2
			c-0.1-0.4-0.2-0.9-0.3-1.3c-2.1,0.1-4.2,0.2-5.8,0.3c0.3-0.8,0.8-2.1,1.4-3.6c0.3,0.3,0.9,0.8,1.6,1.5c0.1-0.6,0.2-1.3,0.3-2
			c0.9,3.8,3.5,3.8,7,3.4c-0.8-0.6-1.2-1-1.6-1.3c2,0.2,4,0.3,6,0.8c0.8,0.2,1.4,1.2,2.1,1.8c-0.8,0.5-1.5,1.4-2.4,1.5
			c-0.7,0.1-1.5-0.6-2.3-0.9c-0.5,1.1-0.9,2-1.2,2.5c2.2,1.6,4.3,3.2,6.3,4.6c0.8,0.5,1.6,1,2.5,1.1c1.1,0.1,2.3-0.1,3.6-0.2
			c0.2-1.4-0.8-2-2.6-2.2c-1.7-0.2-3.3-0.8-5-1.3c1.6-1.6,3-2.9,4.8-4.7c-1.5,0-2.1,0-3.4,0c1.3-0.9,2.1-1.4,2.9-2
			c-0.6-0.9-1-1.6-1.6-2.5c5.4,0.2,5.4,0.2,8.9-2.7c-0.8-0.4-1.6-0.9-2.4-1.4c-0.1,3.1-2,2.8-4,2.8c-1.8,0-3.5,0.6-5.8,1
			c-0.8-0.8-5.2-0.9-6.8,0.5c-0.2,0.1-0.1,0.6-0.1,0.8c0-1.6-0.1-3.1-0.1-4.7l-0.2,0.2c1.1-0.1,2.1-0.1,3.2-0.2l-0.1-0.1
			c1.8,2.6,4.2,0.5,6.3,0.8c1.9,0.2,3.8-0.2,5.8-0.3c0-0.4-0.1-1.6,0-1.6c1.1-0.1,2.3-0.3,3.3,0c2.1,0.5,4.2,1.1,6.3,1.7
			c0.1-0.3,0.2-0.6,0.3-0.9c-1-0.7-2-1.3-3.1-2c1.6-1,3-1.8,4.5-2.7c0.1,0.9,0.3,1.7,0.4,2.6c-0.4,0.1-1,0.2-1.6,0.3
			c0,0.2-0.1,0.4-0.1,0.6c0.9,0.4,1.9,0.8,2.8,1.2c-0.1,0.5-0.2,1-0.3,2.1c-1,0.6-2.4,1.5-3.9,2.5c0.4-1,0.7-1.9,1.1-2.9
			c-0.2-0.3-0.4-0.5-0.6-0.8c-1.8,1-3.6,1.9-5.5,2.9c0.1,0.2,0.2,0.4,0.3,0.6c1.6,0,3.2,0,4.8,0c-0.2,0.6-0.4,1.1-0.5,1.7
			c-0.1,0.8-0.2,1.6-0.3,2.3c0.9,0,1.9,0.3,2.6-0.1c0.5-0.3,0.6-1.4,0.9-2.5c0.9,0,2.3,0,3.7,0c0.3,0,0.8-0.1,0.8-0.2
			c1.1-3,3.2-1.5,5.3-1.3c-1.5-1.1-3-2.3-4.5-3.4c-0.1,0.1-0.3,0.2-0.4,0.2c0.2,0.4,0.3,0.8,0.5,1.2c-0.2,0.2-0.3,0.4-0.5,0.5
			c-0.5-0.7-1.2-1.2-1.4-2c-0.2-1-0.1-2.2-0.1-3.3c1.7,1,3.7,2.3,5.9,3.6c-0.6,0.3-1,0.4-1.8,0.9c3.1,1.4,5.8,2.6,8.5,3.8
			c0.1-0.3,0.3-0.6,0.4-0.8c-0.4-0.3-0.8-0.6-1.5-1.1c1.9,0,3.5,0,5.1,0c0-0.1,0-0.3,0-0.4c-0.8-0.1-1.7-0.1-2.8-0.2
			c1.6-2.9,3.4-0.3,5-0.3c2.1,0,4.2,0.9,6.3,1.4c0.1-0.3,0.1-0.6,0.2-0.8c-1.1-0.1-2.3-0.2-3.4-0.3c0-0.1,0-0.3-0.1-0.4
			c1-0.1,2-0.1,3-0.2c0-0.1,0-0.2,0-0.3c-1.5,0-3,0-4.5,0c0-0.2,0-0.3-0.1-0.5c0.7-0.1,1.3-0.2,2.9-0.5c-2.6-1.5-4.5-2.6-6.4-3.7
			c0.1-0.1,0.1-0.1,0.2-0.2c3.7,1.1,7.3,2.3,11,3.4c0,0-0.4,0.2-1,0.6c1.1,0.3,1.9,0.6,2.9,0.9c0.2-1.2,0.4-2.3,0.6-3.6
			c-0.8-0.1-1.7-0.2-2.6-0.3c0-0.1,0-0.3,0.1-0.4c2.6,0.1,5.1,0.3,7.8,0.4c-0.5-1.3-0.7-2.1-1.1-3c3.7,0.8,7.1,1.5,10.7,2.2
			c0.1-1.4,0.2-2.4,0.3-4c2.8,3.5,5.6,2.9,8.6,1.2c0.5-0.3,1.6,0.2,2.4,0.5c0.7,0.3,1.2,0.9,2.1,1.6c0-1.2,0-1.9,0-3.6
			c1.8,4.1,3.5,1.3,4.5,1.8c1.1,0.7,2.2,1.3,3.1,2.2c0.7,0.7,1.2,1.6,2.2,3c1.3-0.6,3.3-1.4,5.3-2.2v0.2c1.5,0.2,3,0.8,4.5,0.6
			c5.3-0.6,10.5-1.4,15.7-2c1.4-0.2,3.4,0.9,4.2,0.2c3.2-2.5,6.5-1.3,9.8-1.1c0.8,0,1.7-0.3,2.6-0.4l-0.1,0.1
			c0.9,0.3,1.8,0.5,2.8,0.8c0,0.1,0,0.3,0,0.4c-0.6,0.1-1.2,0.1-2,0.2c0.4,0.6,0.8,1.1,0.8,1.2c-0.7,2.1-1.2,3.9-1.8,5.7
			c-1.6-0.9-4.3-0.2-4.7-3.2c-0.1-0.3-2-0.6-3-0.5c-3.1,0.3-6.2,0.8-9.3,1.2c-0.8,0.1-1.7-0.2-2.8-0.4c0.3,0.9,0.6,1.7,0.8,2.2
			c2.9,0,5.6,0,8.4,0c0,0.3,0.1,0.7,0.1,1c-3.8,0.9-7.8,1.4-11.5,2.7C9,74,6.8,75.3,4.1,74.8c-0.3-0.1-0.9,1.3-1.2,1.7
			c-3.8,0.8-7.5,1.7-11.2,2.5c-0.3-0.9-0.4-2.5-0.9-2.6c-1.3-0.2-3.2-0.2-3.8,0.6c-1.5,2-3,0.8-4.6,0.7c-0.6-0.1-1.3-0.2-1.7,0
			c-1.3,0.7-2.3,1.4-3.3-0.5c-0.5-0.9-1.4-0.6-1.2,0.7c-1.2-0.1-2.6,0.2-3.4-0.3c-2.6-1.7-4.8-0.1-7.2,0.5c0.8,0.2,1.5,0.4,2.4,0.6
			c-3.8,4.1-8.2,2.1-12.8,0.7c0.6,1.3,0.8,1.7,1.2,2.4c-3,1.1-6.4-2.8-8.8,1.1c-0.9-0.8-1.8-1.5-2.6-2.2c-0.1,0.2-0.3,0.3-0.4,0.5
			c0.4,0.3,0.7,0.6,1.3,1.1c-1.5,0.8-2.8,1.6-3.6,2.1c-1.7-0.7-2.9-1.1-4.1-1.6c-0.1,0.2-0.1,0.3-0.2,0.5c0.8,0.9,1.6,1.9,2.9,3.4
			c-2.3,0-4.2,0-6.8,0c-0.2,0.3-0.8,1.2-1.8,2.5c-0.3-0.8-0.6-1.5-1-2.5c-0.1,0-0.9-0.2-1.7-0.4c-0.7,1-1.4,2-2.3,3.2
			c0.7,0.3,1.6,0.7,2.4,1.1c-2.9,1.8-4.7-0.4-6.8-1.6c-0.6-0.3-1.1-0.7-1.7-1c-0.2-3-2.2-3.5-5.8-1.4c1.5,2.5,3.6,2.3,5.9,1.3
			c0.6,0.8,1.3,1.5,1.8,2.4c0.5,0.8,0.7,1.6,1.1,2.5c-0.9,0.1-1.7,0.3-2.6,0.3c-0.7-0.1-1.4-0.5-2-0.7c-0.4,1.3-0.7,2.3-1,3.4
			c-0.3,0-0.6-0.1-0.8-0.1c-0.2-1.1-0.4-2.2-0.6-3.7c-0.7,1.4-1.3,2.4-1.6,3c-1.3-1.3-2.5-2.5-3.8-3.8c0.5-0.1,1-0.2,1.9-0.4
			c-2.2-1.7-4.1-3.3-6.1-4.8c-0.2,0.1-0.3,0.3-0.5,0.4c0.7,0.9,1.3,1.8,2.1,2.8c-0.5,1.7-1.1,3.7-1.9,6.3C-94.2,94-96,93-97.9,92
			c0.9,2.8,0.7,6.2,5.3,6.5c-0.2,0.4-0.3,0.8-0.5,1.2c-2.5,0.3-5,0.6-7.7,0.9c0.4-1.5,0.6-2.5,1.1-4.1c-2.5,1.7-4.4,3-6.7,4.5
			c0.4-1.6,0.7-2.8,0.9-4c-0.1,0-0.2-0.1-0.3-0.1c-0.3,0.4-0.6,0.9-0.9,1.3c-0.9-1.1-1.8-2.1-2.6-3.1c2.4-1.4,2.9-1.2,4.7,1.3
			c1.7-1.7,1.6-2.2-0.7-4.1c2.6-1,5.2-1.7,5.6,2.4c0,0.1,0.3,0.1,0.4,0.2c2.3-3.9-2.9-5.1-2.9-9c-4.4,0.3-8.7,0.5-12.9,0.8
			c0.3-1.3,0.7-2,2.3-1.8c2.4,0.3,4.8,0.1,7.6,0.1c-3.7-3.2-3.7-3.2-1-4.5c-1-3.6-2.1-4.4-5.4-3.7c1.1,0.3,2.1,0.6,3,0.9
			c0,0.1,0,0.3-0.1,0.4c-3,0.4-6,0.8-9.2,1.3c0.2,0.2,0.8,1.2,1.3,1.2c2.6-0.3,5.8,2.6,7.8-1.5c-0.4,1.3-0.7,2.7-1.2,4.6
			c-1.2-0.1-2.9-0.2-4.7-0.5c-0.4-0.1-0.7-0.7-1-1.1c-0.2,0.5-0.6,1.1-0.5,1.5c0.2,1.1,0.7,2.1,1,3.1c0.4,0.6,0.7,1.1,1.3,2
			c0.5,0.3,1.4,0.8,2.4,1.4c-0.6-0.1-1.3-0.3-1.9-0.4c-0.1,0.2-0.3,0.4-0.4,0.6c1,0.9,2.1,1.7,3.4,2.8c-0.5,0.4-1.1,1-1.3,1.2
			c-0.2,1.7-0.3,3.1-0.4,4.5c-0.3,0-0.5,0-0.8,0c-0.4-0.5-0.7-1-0.9-1.3c-1.4,0.7-2.6,1.4-4.3,2.4c0.2-2.5-1.2-4.9,2.4-5.9
			c1.1-0.3,2.7-1.9,0.2-3.3c-1-0.5-1.7-1.5-2.5-2.3c-1.4-0.6-2.8-1.2-5-2.1c2,0,3.3,0,5.3,0c-1.8-1.3-3-2.1-4.6-3.3
			c1.3,0,2.2,0,3.4,0c-1.2-1.4-2.2-2.4-3.3-3.7c-0.1,0.8-0.2,1.2-0.3,1.7c-0.2,1.4-0.2,2.9-0.5,4.3c-0.2,1-0.7,1.9-1.1,2.8
			c-1.6-1.6-3-3.6-4.9-4.7c-1.7-0.9-3.9-0.7-5.9-1c-0.1,0.4-0.2,0.7-0.3,1.1c1.5,0.7,3,1.3,4.5,2c-0.1,0.3-0.1,0.6-0.2,0.9
			c-2.3-0.4-4.6-0.8-7.6-1.4c1.8,1.4,3.1,2.3,4.9,3.7c-1.3,0.1-2,0.1-3,0.2c0.8,0.6,1.3,1,1.9,1.4c-4.5-2.8-9.2-0.1-13.7-0.6
			c0.1-1.3,0.2-2.7,0.4-4.1c0.7,0,1.8,0.1,2.8,0c0.5-0.1,1.3-0.4,1.3-0.8c0.1-0.6-0.2-1.3-0.6-1.7c-0.3-0.3-1.4-0.4-1.5-0.2
			c-1.2,2.3-3.1,0.7-4.6,0.9c-0.3,0-0.5,0.2-0.8,0.3c0.2,0.7,0.3,1.4,0.5,2.4c-2.4-1.9-3.1-2-6.3-1.1c1.5,0.7,2.7,1.7,3.9,1.7
			c2.3,0,3.9,0.8,5.1,2.6c-2,0.3-4,0.7-5.9,1c-0.5-2.9-0.5-2.9-3.3-2.8c1.8,3.5,1.8,3.5,3.4,2.5c0,0.9,0,1.8,0,2.9
			c-2.3-0.1-4.6-3.9-7.1-1.3c-1.1-1-2.2-2-3.3-2.9l0,0V89c-1.1,0.9-2,2.1-3.2,2.5c-1.6,0.5-3.4,0.5-5,0.3c-3.4-0.5-4.2-0.1-5.4,3.3
			c0.5,0.2,1,0.4,1.5,0.6c0.4,0.2,0.9,0.3,1.1,1c-2.5-0.8-5.1-1.7-7.7-2.6c0.5-0.4,1-0.8,1.4-1.2c-0.1-0.2-0.1-0.3-0.2-0.5
			c-1.2,0.5-2.3,0.9-3.8,1.5c-1.1-2.1-2.6-0.8-4.1,0.9c-0.7-1.4-1.2-2.3-1.7-3.3c0-1.3,0-2.6,0-4.6c1.3,0.9,1.8,1.4,2.4,1.8
			c1.3-0.7,2.5-1.3,4.2-2.3c-2.1-0.3-3.7-1-5-0.6c-1.4,0.4-2.5,1.8-3.8,2.8c0.8,1,1.5,1.9,2.3,2.9c-0.1,0.5-0.4,1.1-0.4,1.6
			c0,0.9,0.1,1.8,0.1,2.6c-1.7-0.7-3.1-1.1-4.2-1.9c-0.5-0.4-0.7-1.6-0.5-2.3c0.2-0.6,1.1-0.9,1.7-1.3c-0.2-0.2-0.4-0.5-0.6-0.7
			c-1.3,1.3-2.6,2.5-3.9,3.7c1.1,1.4,1.9,2.4,2.4,3.1c-1.7,0-3.5-0.5-4.8,0.1c-1.6,0.7-2.7,2.3-4.4,3.8c1.1,0.5,1.8,0.8,2.7,1.2
			c-1.7,1.2-3.4,2.4-5.2,3.7c-0.1-0.2-0.2-0.7-0.4-1.4c-0.7,0.3-1.4,0.6-2.1,0.9c-0.1-1.3-0.2-2.4-0.3-3.5c-0.2,0-0.3,0-0.5,0
			c-0.1,0.7-0.3,1.5-0.5,2.8c-1.1-0.9-1.9-1.5-3-2.4c-0.3,2.4-4,2.7-2.9,6.1c0.3,1.1-1.8,2-3.4,1c-1-0.6-1.8-1.4-3-2.3
			c-0.2,2.7-1.3,4.1-4.1,4.4c-1,0.1-1.7,2.1-2.7,3.4c-0.4-0.1-1.1-0.3-1.8-0.5c-0.6,3.9-2.3,5.4-6.5,5.8c-0.3-0.8-0.8-1.7-1-2.6
			c-0.3-0.9-0.4-1.9-1.1-3c-0.4,2.1-0.8,4.1-1.4,6.9c-1.2-2-2-3.3-2.9-4.7c-0.7,1.4-1.3,2.5-1.9,3.7c-0.2,0-0.5-0.1-0.7-0.1
			c-0.1-1.1-0.1-2.2-0.2-3.7c-1.6,0.5-2.5,5-5.3,1.2c0.9-0.1,1.5-0.2,2.7-0.3c-0.7-0.5-1.1-0.9-1.3-0.9c-1,0.3-2.7,0.7-2.8,1.2
			c-0.5,2.7-2.7,2.7-4.1,3.4c-0.8-1.5-1.4-2.6-2.1-3.9c-2,1.9-3.1,4.2-5.9,3.2c-0.1,0-0.6,0.9-0.8,1.4c-0.2,0.4-0.4,0.9-0.6,1.3
			c-0.3-0.3-0.7-0.7-1.1-1c-0.6-0.4-1.4-0.7-2-1.1c0-1.6,0-3.2,0-4.7c0.5,0.4,1,0.8,1.6,1.1c0.7,0.4,1.4,1,2,0.8
			c0.4-0.1,1.1-1.4,0.9-1.7c-0.4-0.7-1.3-1.3-2.1-1.5c-0.8-0.2-1.6,0.1-2.5,0.1c0-10.6,0-21.3,0-31.9c0.7,0.3,1.3,0.5,2,0.8
			c1.2,0.5,2.7,0.4,4.2,0.5c2,0.2,2.5-1,2.6-2c-2.3-0.2-4.4-0.4-6.8-0.6c0.6-0.9,0.8-1.1,1-1.4c-0.1-0.1-0.3-0.2-0.4-0.4
			c-0.8,0.6-1.7,1.2-2.5,1.9c0-4.5,0-9.1,0-13.6c2.4-0.2,4.8-0.5,7.2-0.7c0.5,0.8,1,1.6,1.4,2.2c-1.3,0.6-2.3,1.1-3.3,1.6
			c0.1,0.3,0.2,0.7,0.3,1c3.4-0.8,6.8-1.5,10.1-2.3c0.1,0.4,0.2,0.6,0.1,0.8c-0.4,1.1-0.7,2.2-1.1,3.3c1.2-0.1,2.4-0.3,3.6-0.4
			c2.8-0.3,5.7-0.4,8.5-0.8c2.8-0.5,5.6-1.4,8.4-1.9c1.6-0.3,3.2-0.1,4.8-0.2c5.4-0.1,10.9-0.3,16.3-0.4c0.1,0,0.1-0.1,0.4-0.5
			c-2.8,0-5.4,0-8,0c0-0.1,0-0.2-0.1-0.2c2-0.3,4.1-0.7,6.1-1c0-0.3,0-0.6,0-0.9c-1,0-2-0.2-2.9-0.1c-5.5,0.5-11.3,0.2-16.6,1.7
			c-6.1,1.7-11.5-0.5-17.3-0.8c-1.3-0.1-2.6-1.4-3.9-2.1c1.3-0.6,2.6-1.3,4-1.6c0.9-0.2,1.9,0.4,2.9,0.4c2,0,4.1-0.1,6.1-0.1
			c0-0.5-0.1-0.9-0.1-1.4c-1.5,0.2-2.9,0.4-4.4,0.7c4.4-3.9,9.7-1.8,14.6-2.2c-2.8,0.5-5.6,0.9-8.4,1.4c0,0.3,0,0.6,0,0.8
			c0.5,0.4,1,0.8,1.6,1.2c-1.1,0.3-2.2,0.5-3.7,0.9c4.4,1.8,6.7,1.1,9.6-1.8c0.7-0.8,2.3-1,3.4-1c3.5,0.2,7,0.7,10.5,1
			c0.4,0,0.7,0.2,1.1,0.9c-3.4,0.2-6.8,0.4-10.2,0.5c0,0.2,0,0.3,0,0.5c6.4,0,12.8,0,19.2,0c0-0.2,0-0.4,0-0.6
			c-1.9-0.2-3.8-0.4-5.9-0.6c2.4-3.5,5.7-2.2,8.4-2.3c5.8-0.1,11.5,0.4,17.3,0.6c0.7,0,1.3,0.3,2.6,0.5c-0.8,0.4-1.2,0.5-1.7,0.7
			c7.3,2.7,7.3,2.7,11.1,2.1c-2.4-0.7-4.2-1.3-6.1-1.9c0-0.3,0-0.6,0-0.8c3.3-0.2,6.6-0.5,9.9-0.5c0.4,0,0.8,1.2,1.4,2.1
			c0.5-0.1,1.3-0.3,2.3-0.6c0.1,1,0.2,1.7,0.3,2.4c3,0,5.9,0,9.5,0c-1.5-0.5-2.5-0.8-3.8-1.2c1.9-1.4,3.5-1.3,5.2-0.3
			c-0.9,1.1-0.7,1.6,0.8,1.7c0.6,0.1,1.2,0.9,1.8,1.3c-4.4-1.5-7.3,2.3-11.1,2.8c0.1,0.3,0.1,0.6,0.2,0.8c1.4-0.3,2.8-0.5,4.3-0.8
			c0.1,0.2,0.1,0.4,0.2,0.6c-1.8,0.6-3.5,1.1-5.3,1.7c0.1,0.1,0.1,0.3,0.2,0.4c2.5,0,5,0,7.5,0c0-0.2,0-0.4,0-0.6
			c-0.8-0.1-1.5-0.1-2.7-0.2c2-1.5,2.6-4.3,5.7-3.7c0.2,0,0.6-0.8,1-1.2c3.3,0.5,6.6,3.1,10.5,0.6c-3-0.6-5.6-1.1-8.3-1.6
			c0.1-1.4-0.4-2.3-2.4-1.6c-0.7,0.2-1.6-0.2-2.4-0.3c2.9-1.8,5.5-0.1,8.6,1.7c-0.5-1.4-0.8-2-1.1-2.7c1.2,0.2,2.2,0.4,3.3,0.7
			c-0.2,0.2-0.5,0.5-1.2,1.2c1.7,0.2,3.1,0.3,4.6,0.4c1.8,2.6,2.6,2.9,5.9,1c-2.2-0.3-4.8,0.3-4.5-3c3.3-0.2,6.6-0.5,10-0.6
			c0.8,0,2.2-0.4,1.7,1.3c1.4,0.3,2.9,0.5,4.3,0.8l-0.1-0.1c-1.7,1.5-3.5,3-5.4,4.5c0.6,0.2,1.3,0.5,2.3,0.9
			c-1.6,0.5-2.9,0.9-4.3,1.4c2.2,4,6.2-0.4,8.8,1.9c-0.1-0.6-0.1-1.2-0.2-2.1c3.1,0.7,6.1,1.3,9.1,2c-3,0.9-6,1.7-9,2.6
			c0.1,0.3,0.2,0.6,0.2,1c3.3-0.7,6.6-1.4,10.1-2.1C-118.7,76.4-119,76-119.3,75.6z"/>
		<path class="st3" d="M92-28.7c-0.9-1.7-1.8-3.3-2.7-4.9c0.3,0,1.1,0.1,2,0.1c-0.1,0.2-0.2,0.4-0.3,0.7c1.1,0.8,2.2,1.8,3.4,2.2
			c1.1,0.3,2.5-0.1,4.1-0.2c-0.1-0.1,0.2,0.5,0.7,0.7c2.9,0.9,5.8,1,8.8,0.9c2-0.1,4.5-0.3,5.1,2.7c0.1,0.3,0.7,0.8,1.1,0.8
			c5.9,0.7,11.9,1.3,17.8,1.8c0.5,0,1.2-1.1,1.8-1.6c0.2,0.1,0.3,0.1,0.5,0.2c0.8,0.7,1.5,2,2.3,2c5.5,0.1,11.1,0.1,16.6,0
			c2.2,0,4.4-0.3,6.6-0.5l-0.1,0.1c2.9,0.2,5.7,0.7,8.6,0.7c1.9,0,3.8-0.5,5.7-0.8l-0.1,0.1c1.2,0.3,2.3,0.6,3.5,0.9l-0.1-0.1
			c0,0.9,0.3,1.9,0,2.7c-0.2,0.7-1.1,1.1-1.3,1.3c0.6,2.5,1.2,5.1,1.8,7.6c-2.1,0.4-3.3,0.7-4.6,1c0,0.3,0,0.5,0.1,0.8
			c0.6,0.2,1.2,0.4,2.2,0.8c-0.3,0.1-0.4,0.2-0.6,0.2c-1.4,0.3-2.5,0.6-3.4-1.1c-0.4-0.8-2.2-0.9-4.1-1.6c0.8,1.5,1.3,2.5,1.8,3.3
			c-2.3,0.8-4.7,1.7-7.4,2.6c2.1-4.3,2.5-8.8,1.5-13.3c-0.2-0.9-1.9-1.6-3.3-2c0.4,0.7,0.8,1.4,1.2,2.2c-2.4,1.6-5.8,1.9-6,5.7
			c-0.9-0.3-1.7-0.6-2.5-0.9c-0.1,0.3-0.2,0.7-0.4,1c1.1,0.4,2.2,0.8,3.7,1.3c-0.2,1.4-0.5,3-0.7,4.7c-1.6-1-3.1-1.9-4.7-2.9
			c-0.4-0.3-0.8-0.5-1.9-1.2c0.3,1.7,0.6,2.9,0.9,4.7c-2.9-2.5-5.4-4.6-8.2-7.1c0.9,3.3-0.1,4.2-3.1,4.6c-2.6,0.3-4.4,0.1-5.6-2.1
			c0.2-0.1,0.9-0.3,1.7-0.6c-1.3-0.9-2.4-1.6-3.8-2.4c2.9-0.1,5.2-3,7.5-1.3c2.8,0.6,4.9,1.1,7.1,1.6c0.1-0.2,0.3-0.3,0.4-0.5
			c-0.6-0.4-1.2-1-1.8-1.3c-0.8-0.4-1.7-0.8-2.6-1c-4.2-1.1-8.3-0.3-12.3,0.7c-0.3,0.1-0.4,0.6-0.8,1.1c-2.4-4.2-5.7-0.4-8.8-1.3
			c0.2,0.7,0.4,1.2,0.6,1.9c-1.9-1-3.5-1.9-5.4-2.9c1.3-0.8,2.4-1.5,3.5-2.1c-2.2-1.2-4-3.5-7-2.4c-0.4,0.1-1-0.5-1.6-0.7
			c-0.8-0.4-2.3-1.1-2.4-1c-0.7,1-1.1,2.2-1.5,3.1c2.4,0.3,4.3,0.5,6.1,0.7c-0.2,1.5-0.5,3-0.7,4.5c0-0.9-0.1-1.7-0.1-2.8
			c-2.1,0-3.9,0-6,0c1.5,1,2.8,1.9,4,2.7c-1.2,0.7-2.2,1.3-2.9,1.8c-0.3-0.6-0.4-1.3-0.8-1.5c-1.2-0.7-3.5-0.2-5.4,0
			c-1.8,0.2-3.7-0.3-5.5-0.5c-3.4-0.4-6.7-0.5-9.7,1.9c1.7,0,3.3,0,5.4,0c-0.8,0.6-1.2,0.9-1.8,1.3c0.7,0.4,1.3,0.6,1.9,1
			c-0.6,0.3-0.9,0.5-1.3,0.7c0.1,0.3,0.3,0.5,0.4,0.8c1.3-0.6,2.6-1.2,4.2-2c-1.3-0.7-2-1.1-2.8-1.5c0.1-0.2,0.1-0.5,0.2-0.7
			c2.1,0,4.2,0,6.3,0c1.3,0,3.6-0.2,3.9,0.5c1,2.2,2.6,1.3,4,1.4c1.5,0.1,3-0.2,4.4-0.3c0.4,1.2,0.7,2.1,1,3l-0.1,0.1
			c-2.8,1.7-2.8,2-0.2,3.6c0.7,0.4,1.2,1,2.3,1.8c-2-0.1-3.3-0.2-4.5-0.3c-0.2,0.2-0.5,0.4-0.7,0.7c-0.7-2.6-1.4-5.2-2.1-7.8
			c-1.4,3.4-3.3,0.3-4.9,0.1c-1-0.1-1.9-1.1-3.2-1.2c0.8,0.7,1.6,1.4,2.6,2.3c-2.4,1-6.3-0.5-6.6,3.4c-0.2,2.9,1.6,4.7,5,4.9
			c-1.2,0.3-3-1.3-2.5,1.3C95-0.6,94.5-1,94-1.4c-0.3,0.7-0.6,1.3-1.2,2.4c-0.6-0.9-1.1-1.6-1.6-2.2c-1,0.1-2.2,0.2-3.8,0.4
			c0.6,0.5,1,0.9,1.6,1.5c-2.3,0.1-4.6,0.2-6.9,0.4c0-0.2,0-0.5-0.1-0.7c1.3-0.1,2.7-0.2,4.5-0.3c-0.8-1.4-1.4-2.7-2.1-3.9
			c1.7,0.3,3.5,0.6,5.2,0.9c0.1-0.3,0.1-0.7,0.2-1c-1.3-0.4-2.6-0.7-4.4-1.2c1-0.6,1.4-0.8,2.1-1.2c-1.8-1.2-3.5-2.3-5.1-3.5
			c-0.2,0.1-0.5,0.2-0.7,0.4c0.5,0.9,1.1,1.9,1.6,2.9c-0.4,0.1-0.8,0.2-1.1,0.3c-0.8-0.6-1.6-1.3-2.7-2.1c-0.2,0.9-0.2,1.5-0.3,1.6
			c-1.8-0.3-3.4-0.7-5-1c1-1.7,1.1-3.5-0.3-4.8c-0.7-0.7-2.3-0.4-3.4-0.6c0,0.3-0.1,0.5-0.1,0.8c0.9,0.2,1.9,0.3,2.4,0.4
			c0.5,1.6,1,2.8,1.4,4.1c-2.5,0.2-4.6-0.3-6-2.6c-1.3-0.4-2.6-0.8-3.9-1.1c-1.1,0.5-2.3,1.1-3.6,1.7c-1.6-3.8-4.9-1.8-7.6-2.1
			c-0.3,0-1.1,0.7-1.1,1.1c0.1,2.6-1.5,2.5-3.3,2.3c-1.6-0.1-3.1,0-4.7,0.1c-1,0.3-2,0.5-3.1,0.8c-0.5,0.2-0.9,0.4-1.4,0.5
			c-1.5,0.4-3.2,1.4-4.5,1c-0.9-0.3-1.1-2.5-1.7-4c0.4-0.1,1-0.3,1.6-0.5c0-0.2-0.1-0.5-0.1-0.7c-3.3,0.3-6.7,0.7-10,1
			c0,0.3-0.1,0.6-0.1,0.9c1.5,0.3,3.1,0.8,4.6,0.7c1.9-0.1,2.5,0.8,3.2,2.4c1.2,2.5,2.9,4.8,4.5,7.2c0.9,1.4,1.8,2.8,2.7,4.3
			c-9,9.6-19.6,16.6-31.3,23.1c0-5.5-0.1-10.4,0.1-15.3c0-0.8,1.3-1.6,2.1-2.2C16.9,5.5,23.3,0.3,29.6-5c0.6-0.5,0.9-1.2,1.8-2.2
			c-4.8,0-9-0.5-13.2,1.7c-0.7,2.8,2.2,6.8-2,10C16-0.6,15.7-5.3,15.4-10c-1.6,1,1.1,4.8-3.2,4.4c0.9,0.6,1.3,0.8,2,1.4
			C13-3.6,12-3.1,10.9-2.5c-0.2-1.4-0.3-2.4-0.5-3.8C7.8-5.4,5.5-4.7,3.2-3.9c-2.1-2.9-3.4-3-5.8-0.8c-0.7,0.6-1.6,1-2.5,1.3
			c-0.7,0.4-1.6,0.6-2.8,1c0.6-1,1.1-1.9,1.8-3.1c-1.7-0.1-3.3-0.2-5.4-0.2c0.6,1,1,1.6,1.5,2.3c-3.2,1.7-4.8,1-6.7-1.9
			c-1-1.5-2.8-2.6-4.2-3.8c-0.4,0.5-1.1,1.3-1,1.4c1.8,1.9,1.4,4.3,1.3,6.5C-22-0.6-23.3,0-24.5,0.5c-2.8-1.1-5.9-2-8.5-3.5
			c-2.6-1.4-4.8-1.2-7.3,0.1c-0.6,0.3-2.1-1-3.3-1.7c0,0.1-0.1,0.6-0.2,1.7c-1-0.9-2.2-1.4-2.4-2.1c-0.6-3.2-3-2.5-5-2.3
			c-2.6,0.1-5.3,1-7.9,0.7c-3-0.4-6-1.6-9.5-2.7c0.8,1.3,1.1,1.9,1.8,2.9c-2-0.3-3.8-0.6-5.5-0.9c-0.8,0.7-1.7,1.5-2.3,2
			c-1.1-1-2.1-1.8-3.4-2.8c0.1,1.3,0.2,2.1,0.3,2.6c-1.7-0.2-3.2-0.4-4.7-0.4c-0.1,0-0.2,1.7-0.4,2.9C-84.2-3.2-86-3.4-88-3.6
			c0.3-1.5,0.6-2.8,0.7-3.6c-2-0.3-4.3-0.7-6.8-1.2c-0.1,0.8-0.2,1.7-0.4,3.3c0.9-1.2,1.4-1.7,1.4-1.7c1.6,1.4,3,2.7,4.4,4
			c0,0.2-0.1,0.3-0.1,0.5c-1.5-0.6-3.1-1-4.5-1.8c-2.5-1.3-4.9-1.3-7.4-0.1c0-0.7,0-1.5,0-2.3c1.7,0,3.2,0,4.8,0c0-0.2,0-0.5,0-0.7
			c-0.8-0.1-1.6-0.3-2.4-0.3c-2.1,0-4.2,0-6.2,0.6c0.4-1.3,0.7-2.7,1-3.6c-1.4-0.1-2.6-0.2-4-0.3c-1.1,0.9,0.4,3.8-2.4,3.9
			c-0.3-1.3-0.3-3.6-0.8-3.7c-1.9-0.5-4-0.2-6-0.2c0.1-0.6,0.2-0.9,0.3-1.4c-1.4,0.4-2.6,0.8-4.4,1.3c1.6,1,2.9,1.7,4,2.4
			c-1.5,0.1-2.7,0.2-4,0.3c-0.8-1.6-1.5-3.1-2.3-4.6c-1.3,1.6-2.3,2.9-3.3,4.2c0.2-0.6,0.3-1.3,0.6-2.3c-2.9,0-5.8,0-8.2,0
			c0,0.9,0,1.4,0,2.1c1.1,0.1,2.6,0.2,4,0.4c0.1,0.7,0.3,1.4,0.4,2.1c0.9-0.3,1.8-0.6,2.6-0.9c0.2,0.3,0.4,0.7,0.6,1.1
			c0.2-0.1,0.5-0.2,0.7-0.3c-0.3-0.8-0.5-1.6-0.8-2.4c1.9,0.2,3.8,0.4,5.7,0.5c0,0.4-0.2,1.1,0.1,1.3c1.4,1,5.5,0.2,6.5-1
			c1.4,0.4,2.8,0.8,4.1,1.2c-0.2,0.3-0.5,0.9-0.4,0.9c1.3,1.1,2.7,2.1,4.8,3.8c-0.7-1.7-1.2-2.6-1.4-3.6c-0.1-1.2,0.1-2.4,0.2-3.9
			c1,1.1,1.7,1.9,2.4,2.7c0.7,1.4,1.5,2.8,2.4,4.4c0.5-0.6,1-1.2,1.4-1.7c0.5,0.4,1.3,1.2,1.5,1.1c2.8-1.7,5,0.1,7.4,1.1
			c0.9,0.4,1.9,0.6,3.1,0.9c-0.2,0.6-0.3,1.4-0.7,2.9c-0.7-2.5-1.6-2.7-2.7-0.4c-0.3-0.8-0.5-1.2-0.7-1.6c-1-2.2-1.8-2.3-4-1
			C-97.4-1.3-98.2-1-99-0.9c-3.2,0.1-6.5,0.1-9.7-0.1c-0.9-0.1-1.7-1.3-3.1-2.5c-0.3,1.6-0.3,2.2-0.5,2.7c-0.2,0.4-0.7,1-1.1,1
			s-1-0.5-1.2-0.9c-0.5-0.8-0.9-1.7-1.3-2.6c-0.4,1.4-0.8,2.6-1.1,3.7c-1.9-0.7-3.8-1.4-6.1-2.2c-0.2,0.6-0.5,1.6-1,3.1
			c-2.1-0.8-4.7-2.4-7.2-2.5c-2.8-0.1-5.7,1.3-8.8,2.1c0-1,0-1.9,0-3.1c-1.3,1.3-2.4,2.4-3.5,3.6c-0.9-1.8-1.5-3.1-2.5-5
			c-0.9,4.4-3.4,2.1-5.2,2.3c3-2.5,6.7-2,10-1.8c2,0.1,1.9-0.6,2-1.8c1.4,0.5,2.7,1.2,4.1,1.4c0.4,0.1,1-1.2,1.6-1.9
			c-2.1,0.3-3.9,0.5-5.7,0.7c-4.1-0.9-8.2,0-12.7-0.3c0.2,1.3,0.5,2.5,0.7,3.7c0.3,0.2,0.6,0.7,0.9,0.7c2.3-0.1,2.9,1.4,2.9,3.9
			c-0.7-0.5-1.4-1.2-2.2-1.6c-1.6-0.9-3.2-1.8-4.9-2.6c-0.7-0.3-1.6-0.3-2.5-0.5c-0.1,0.3-0.4,0.8-0.5,1.1c-2-0.3-3.8-0.5-5.7-0.7
			c0-0.2,0.1-0.5,0.1-0.7c0.6,0,1.2,0,2.5,0c-3-1.5-4.3-0.9-4.3,1.9c-1.2-0.4-2.2-0.7-3.2-1.1c-0.2,0.2-0.4,0.4-0.5,0.6
			c0.6,1,1.1,2,2,3.5c-1.1-0.2-2.2-0.2-2.3-0.6c-0.6-2-2-2.6-3.7-3.4c-2.7-1.4-3.1-1.4-3.8,1.8c-3.7,2.1-3.8-2.4-5.8-3.2
			c0,0.2-0.1,0.5-0.1,0.7c-1.9-0.1-3.9-0.2-5.8-0.4c-2.8-0.3-4.2-2.4-5.4-4.6v-0.1c-0.4-0.9-0.8-1.9-1.1-2.8c0.2,0,0.3,0,0.5,0.1
			c-0.1-1.1-0.1-2.2-0.2-3.3c0.8,0.4,1.6,0.7,2.3,1.1h-0.1c4-1.4,8.1-3.4,12,0.3c0,0,2-1.4,2-2.1c0-0.9-0.8-2.2-1.7-2.8
			c-1.1-0.9-2.5-1.3-4.7-2.3c2-1.2,3.4-2,5.2-3c1.2,3.1,2.3,5.7,3.4,8.3v-0.1c0.3,3.2-2.8,1.9-4.5,3.4c1.5,0.2,2.6,0.4,3.9,0.6
			c0,0.3,0.1,0.9,0.2,1.5c-2.7-0.2-5.4-1.6-7.9-0.3c0,0.3,0,0.5,0,0.8c1.8,0,3.6,0,5.2,0c0.3,1,0.6,1.9,1,3.1
			c0.7-1.6,1.2-2.6,1.7-3.7c1.1,2.5,2.5,1.4,3.8,0.2c2.3,0.1,4.5,0.3,6.5,0.4c1.6-3.6-2-4.5-3.2-7.3c2.9,0.7,5.3,1.2,7.9,1.7
			c1.5-5.1-3.5-2.5-4.6-4.2c0.1-0.3,0.2-0.6,0.3-0.9c2.7,0.9,5.4,1.9,8.1,2.8c-3.7-1-3.1,2.8-3.2,3.8c-0.6,3.7,3.4,1.9,5,3.3
			c-0.4,0.5-0.7,1-1.1,1.4c0.2,0.3,0.4,0.5,0.6,0.8c1.1-0.7,2.2-1.3,3.9-2.3c-2.4-1.5-4.3-2.7-6-3.8c0.4-1.2,0.7-2.1,0.9-3
			c1.2,2.1,3.2,1.7,5.1,1.7c0.1,0,0.2,0.1,0.4,0.2c1.4,0.5,2.8,0.9,4.3,1.4c-1.2-2.1-1.2-4.3,1-5.7c0.9-0.6,2.4-0.2,3.6-0.3
			c2.7-0.1,5.1,0.4,6.8,2.8c-1.4-0.5-2.7-1.2-4.2-1.4c-1.8-0.3-3.6-0.4-5.4-0.1c-0.4,0-0.5,1.9-0.7,2.9c3.2,0,6,0.1,8.8-0.1
			c0.5,0,0.9-0.9,1.3-1.4c1.1,0.9,1.1,0.9,4.2-0.5c0.4,0.7,0.8,1.4,1.2,2.1c0.2-0.2,0.5-0.5,0.7-0.7c0.4-0.4,0.8-0.8,1.2-1.2
			c-0.8-0.3-1.5-0.6-2.3-1c-1.5-0.8-3-1.6-5-2.7c2.3-0.6,3.4-4.2,6-0.9c-0.7,0.4-1.2,0.7-2.4,1.4c4.4,0.7,8.2,1.3,12,1.9
			c0,0.2,0,0.4-0.1,0.7c-0.8,0.1-1.6,0.2-2.4,0.3c0.1,0.3,0.1,0.7,0.1,0.7c2.6,0.1,5.2,0.1,7.7,0.1c0.1,0,0.1-1.1,0.1-1.7
			c1.3-1.2,4.2,0.5,5.1-2.5c-1.7-0.1-4.5,2.2-3.2-1.9c-1.5-0.1-2.8-0.2-4.2-0.2c2.4-0.1,5-2.5,7.3,0.7c2.6,0,5.6,0,8.8,0
			c-0.2-1.5,0.8-1.8,2.8-1.6c3.8,0.4,7.7,0.4,11.6,0.6c0.2-0.4,0.6-1.2,0.9-1.8c1.1,1,1.9,2.2,2.9,2.3c1.3,0.2,2.7-0.5,4.1-0.8
			c-0.1-0.4-0.1-0.9-0.2-1.3c-1.1,0-2.2,0-3.3-0.2c-0.5-0.1-1-0.6-1.5-0.9c0.4-0.3,0.8-0.9,1.2-1c5.4-0.3,10.7-0.8,16.1-0.5
			c1.8,0.1,3.6,2,5.4,3c0.5,0.3,1.1,0.4,1.7,0.6c-0.2-0.4-0.3-0.8-0.6-1.5c2.5-0.4,4.9-0.8,7.4-1.3c0.5-0.1,1-0.5,1.5-0.7
			c-0.3-0.3-0.8-0.7-0.8-1c0-0.6,0.2-1.6,0.6-1.7c0.7-0.2,1.6,0,2.8,0c-0.7,1.3-1.2,2.2-1.8,3.3c1.5,0.2,2.8,0.3,4.3,0.5
			c-0.1-0.5-0.2-1.2-0.4-1.8c1.4-0.2,2.8-0.3,4.1-0.4c0.1,0.5,0.1,1.5,0.3,1.5c0.8,0,1.8,0.1,2.5-0.3c1-0.5,1.7-1.4,2.6-2.1
			c1.7-1.3,3.4-2.2,5,0c-0.3,0.1-0.6,0.2-1.4,0.3c0.6,0.5,1,1,1.4,1c0.7,0,1.4-0.2,2.7-0.5c1.2,0,3.1-0.2,5,0
			c3.5,0.5,5.8-2.2,8.6-3.1c4.1-1.3,8.8-1.1,13.2-0.9c2.8,0.1,5.5,1.2,8.3,2c0.7,0.2,1.3,0.7,1.8,1.3c1.8,2.3,3.4,5,7.1,3
			c0.5-0.3,1.5,0.2,2.1,0.3c-0.2-0.8-0.5-1.6-0.8-2.5h-0.1c1.2,0.8,2.5,1.6,3.6,2.5c0.4,0.3,0.3,1.2,0.5,2c0.2,0,1,0,1.7,0
			c0.1-0.2,0.4-0.5,0.3-0.5c-1.2-1.4-0.2-2,0.9-2.1c3.3-0.2,6.5-0.2,9.8-0.2c1.6,0,3.4,0.4,3.8-2c0.1-0.4,1.2-0.8,1.9-0.8
			c1.8,0.1,3.5,0.4,5.5,0.6c-0.4,0.9-0.7,1.4-1,2c0.6,0,1.2-0.2,1.7,0c0.8,0.4,1.6,1.1,1.9,1.4c2.6-1,4.8-1.9,7.1-2.8
			c0.2-0.1,0.5,0.1,0.6,0c3.6-5.4,9.3-1.4,13.8-3.2c1.6-0.6,3,0.5,2.6,2.7c-0.1,0.9,0.3,1.8,0.2,2.7c-0.1,0.6-0.6,1.2-1.2,2.3
			c-0.2-0.1,0.4,0.6,0.8,0.5c0.6-0.1,1.1-0.8,1.5-1.3s0.7-1.7,1.1-1.7c2.6-0.3,5.3-0.3,8-0.5c0.8-0.1,1.6-0.4,2.6-1.2
			c-0.9-0.4-1.8-0.7-3.1-1.3c1.8,0,3.2,0,4.9,0c-0.2,0.7-0.4,1.3-0.5,1.9c2,1.2,3.9,2.4,6.4,3.9c0.2,0.9,0.7,2.5,1.2,4.4
			c4-0.7,8.2-1.4,12.7-2.2c-0.4-0.9-0.6-1.4-0.9-2l0,0c0.1-0.9,0.1-1.8,0.2-2.9c-0.9-0.3-2.2-0.6-3.4-1c0.3-0.8,1-1.9,0.7-2.3
			c-0.7-0.9-1.8-1.5-2.3-1.8c-0.4,1.3-0.7,2.3-0.9,3.1c0.6,0.2,1.6,0.6,2.5,1c-1.7,1.5-3.4,1.7-5.6,0.7c-1.3-0.6-3.1-0.4-5-0.7
			c0.6-1,1.1-1.7,1.5-2.3c1.2,2.1,2.6,2.2,4.5,0.3c-0.9-0.6-1.8-1.3-2.8-1.7C93.2-28.9,92.6-28.7,92-28.7z"/>
		<path class="st3" d="M14.6,22.4c0-3.4,0-6.2,0-9c-0.3,0-0.7,0-1,0C13.4,16.3,12.7,19.2,14.6,22.4z"/>
		<path class="st3" d="M-2.8,64.3v-0.2C-3.4,64-4,63.7-4.6,63.7s-1.2,0.2-2.5,0.5c-1.1-1.1-2.7-2.8-4.2-4.5c0.2-0.2,0.4-0.4,0.6-0.7
			c0.8,0.6,1.7,1.3,2.7,2c0.9-1.4,1.7-2.9,2.7-4.3c0.3-0.4,1-0.5,1.6-0.6c3.9-0.6,7.8-1.1,11.8-1.6c0.5-0.1,1.3,0,1.6,0.3
			c2.6,2.5,5.5,2.9,8.8,1.8c1-0.3,2.2-0.8,3.2-0.5c2.9,0.7,3.8-0.6,3.5-3.3c1.9,0.3,3.7,0.5,5.4,1s3.4,1.2,5.2,1.8
			c0.3-0.8,0.6-1.5,0.9-2.1c1.4,0.7,2.6,1.3,4.4,2.2c-1.8,0.4-3.2,0.9-4.7,1.1c-4.2,0.8-4.2,0.8-2.4,4.8l0.1-0.1
			c-0.8-0.9-1.6-1.8-2.5-2.6c-0.5-0.5-1.7-1.1-1.8-1c-2.4,2.4-5.4,1.2-8.1,1.4c-1.9,0.2-4,0.2-5.9-0.2c-2.1-0.4-1.7,1.9-2.6,2.1
			c-2.7,0.7-5.5,1-8.3,1.5c-1.1,0.2-2.3,0.3-4,0.5C-0.2,61.8-1.5,63.1-2.8,64.3z"/>
		<path class="st3" d="M159.7,89.7c-2,0.3-2.3-1.3-2.2-2.5c0.1-0.7,1.4-1.6,2.3-1.8c3.7-0.7,7.5-1.3,11.2-1.4
			c1.4-0.1,2.9,1.2,4.2,1.8c0.3-1.3,0.5-2.4,0.9-4c1.1,0,3-0.5,4.3,0.1c1.2,0.6,1.8,2.4,2.6,3.7c-0.3,0.2-0.5,0.4-0.8,0.6
			c-1.3-0.8-2.5-1.6-3.9-2.5c-0.5,1.3-0.9,2.5-1.4,3.6c-2,0-4.2,0-6.9,0c0.7,1.2,1,1.7,1.7,2.8c-1.5-0.6-2.5-1-3.7-1.5
			c-0.3,1.1-0.5,2.2-0.6,2.5C164.8,90.6,162.2,90.2,159.7,89.7L159.7,89.7z"/>
		<path class="st3" d="M128.9,29c3.1-0.1,5.8-0.3,8.6-0.4c0.7,7.9,1.8,6.9-8.2,7.4C129.2,33.7,129.1,31.3,128.9,29z"/>
		<path class="st3" d="M141.3,23.6c-0.1-1.6,0.2-3.3-0.4-4.6c-0.8-1.7-2.4-2-4.3-1.1c-0.4,0.2-2-0.9-2.1-1.5
			c-0.3-1.8-0.1-3.7-0.1-5.8c2.2-0.1,4.2-0.2,6.5-0.4c0.1,1.7,0.1,3.2,0.3,4.6s0.5,2.8,0.9,4.2C142.8,21,143.1,22.6,141.3,23.6z"/>
		<path class="st3" d="M106.7,12.4c0,2.3,0,4.4,0,6.6c-2.3,0.2-4.4,0.3-6.5,0.4C99.3,12.5,99,12,106.7,12.4z"/>
		<path class="st3" d="M110.7,31.3c-1,0.2-2.1,0.3-3.4,0.6c-0.2,1.7-0.4,3.4-0.6,5.8c1.6-0.2,3.1-0.4,4.6-0.6c0,1.2,0,3,0,5.5
			c-1.3-0.6-2.2-1-3.2-1.5c-0.3,0.3-0.8,0.6-1.2,1c-0.3-0.5-0.8-1-0.8-1.6c-0.4-2.6-0.6-5.3-1-7.9c-0.1-0.6-1-1.1-1.4-1.4
			c2.1-0.1,4.7-0.2,7.2-0.4C110.7,30.9,110.7,31.1,110.7,31.3z"/>
		<path class="st3" d="M59.3,57c0.4,0.8,1.1,2,1.7,3.3c-0.2,0.1-0.4,0.3-0.6,0.4c-0.7-0.6-1.4-1.1-1.6-1.3c-1.9,0.6-3.4,1-4.2,1.3
			c-2.4,1.1-4.2,1.9-6,2.7c-0.2-0.3-0.3-0.7-0.5-1c0.4-0.3,0.8-0.6,1.2-0.7c0.8-0.2,1.7-0.4,2.5-0.5c-0.7-0.8-1.3-1.6-2.1-2.5
			c0.1-0.2,0.4-0.9,0.6-1.5C53.3,57,56.1,57,59.3,57z"/>
		<path class="st3" d="M158.2,9.8c1-0.1,1.8-0.3,3.3-0.5c0,2.2,0.1,4.2-0.1,6.2c-0.1,0.5-1.1,1.2-1.8,1.3c-0.4,0.1-1.3-0.8-1.4-1.3
			C158.1,13.7,158.2,11.9,158.2,9.8z"/>
		<path class="st3" d="M47.4,60.3c-1.9-0.4-3.5-0.8-5.5-1.2c0.6,1.8,0.9,2.9,1.4,4.3c-1.2,0.2-2.3,0.4-4.1,0.7
			c1-1.3,1.7-2.2,2.8-3.5c-1.1-0.4-2.2-0.8-3.3-1.2c-0.1-0.2-0.2-0.4-0.2-0.6c2.6-0.6,5.2-1.2,7.8-1.8C46.6,58.1,47,59.1,47.4,60.3z
			"/>
		<path class="st3" d="M70.9,25.9c0.9-5.7,6.5-6.6,9.9-9.7c0.2,0.2,0.4,0.4,0.6,0.6c-3.1,3.3-6.3,6.6-9.4,10
			C71.6,26.5,71.3,26.2,70.9,25.9z"/>
		<path class="st3" d="M162.2,12.5c0-0.7-0.1-1.4,0-2c0.1-0.5,0.6-0.8,0.9-1.2c0.4,0.4,1.1,0.8,1.1,1.3c0.2,1.4,0.2,2.9,0.1,4.3
			c-0.1,0.6-0.7,1.1-1,1.7c-0.4-0.6-0.9-1.1-1.1-1.8C162,14.1,162.2,13.3,162.2,12.5L162.2,12.5z"/>
		<path class="st3" d="M38.9,36.3c0.2,3.2,2,6.5-0.8,9.8c0-3.5,0-6.7,0-9.9C38.3,36.2,38.6,36.2,38.9,36.3z"/>
		<path class="st3" d="M56.7,28.3c-0.1,1.2-0.1,2.1-0.1,2.7c-1.8,0.1-3.4,0.2-5.4,0.3c-0.1-0.5-0.1-1.4-0.2-2.4
			C52.9,28.7,54.6,28.5,56.7,28.3z"/>
		<path class="st3" d="M146.5,17.7c-4.6-3.9-4.8-4.5-3.4-6.5C144.2,13.3,145.3,15.4,146.5,17.7z"/>
		<path class="st3" d="M50.5,55c-2.8,0.3-5.6,0.6-8.4,0.8c0-0.4-0.1-0.7-0.1-1.1c2.8-0.1,5.6-0.3,8.4-0.4
			C50.4,54.6,50.4,54.8,50.5,55z"/>
		<path d="M-2.8,64.3c1.3-1.2,2.6-2.5,3.6-0.9c1.7-0.2,2.9-0.3,4-0.5c2.8-0.4,5.6-0.8,8.3-1.5c0.9-0.2,0.5-2.5,2.6-2.1
			c1.9,0.4,3.9,0.4,5.9,0.2c2.7-0.3,5.7,1,8.1-1.4c0.1-0.1,1.3,0.5,1.8,1c0.9,0.8,1.7,1.7,2.5,2.6c-0.9,0.1-1.7,0.5-2.6,0.4
			c-3.3-0.2-6.6-1.4-9.8,1.1c-0.8,0.6-2.8-0.4-4.2-0.2c-5.2,0.6-10.5,1.5-15.7,2C0.3,65.1-1.3,64.5-2.8,64.3z"/>
		<path d="M14.6,22.4c-1.9-3.3-1.2-6.2-1-9c0.3,0,0.7,0,1,0C14.6,16.2,14.6,19,14.6,22.4z"/>
	</g>
</g>
<rect x="43" y="69.4" class="st4" width="128.4" height="11.5"/>
<text transform="matrix(1 0 0 1 42.9614 74.5615)" class="st5 st6 st7">HUDDERSFIELD WEBSITE DESIGN</text>
</svg>
