<?xml version="1.0" encoding="utf-8"?>
<!-- Generator: Adobe Illustrator 18.1.1, SVG Export Plug-In . SVG Version: 6.00 Build 0)  -->
<svg version="1.1" id="Layer_1" xmlns="http://www.w3.org/2000/svg" xmlns:xlink="http://www.w3.org/1999/xlink" x="0px" y="0px"
	 viewBox="0 0 203.3 87.3" enable-background="new 0 0 203.3 87.3" xml:space="preserve">
<rect x="40.6" y="9.7" fill="none" width="49.2" height="51.7"/>
<text transform="matrix(1 0 0 1 40.5716 55.0264)" font-family="'AvenirNext-DemiBold'" font-size="60">H</text>
<rect x="44.9" y="66.4" fill="none" width="266.1" height="40.7"/>
<text transform="matrix(1 0 0 1 44.852 74.6104)" font-family="'GillSans'" font-size="12">huddersfield website design</text>
<rect x="84.5" y="9.7" fill="none" width="67.4" height="51.7"/>
<text transform="matrix(1 0 0 1 84.5211 55.0264)" font-family="'AvenirNext-DemiBold'" font-size="60">W</text>
<rect x="145.1" y="9.7" fill="none" width="65.3" height="51.7"/>
<text transform="matrix(1 0 0 1 145.1322 55.0264)" font-family="'AvenirNext-DemiBold'" font-size="60">D</text>
<polygon points="10.3,75.7 10.3,68.7 12.1,66.1 13.1,16 15.3,16 15.3,16.9 21.3,17.1 21.3,7 30.6,7 33.1,74.9 "/>
</svg>
